<?xml version="1.0" encoding="utf-8"?>
<!-- Generator: Adobe Illustrator 27.2.0, SVG Export Plug-In . SVG Version: 6.00 Build 0)  -->
<svg version="1.1" id="katman_1" xmlns="http://www.w3.org/2000/svg" xmlns:xlink="http://www.w3.org/1999/xlink" x="0px" y="0px"
	 viewBox="0 0 130 130" style="enable-background:new 0 0 130 130;" xml:space="preserve">
<style type="text/css">
	.st0{fill:#8900FE;}
	.st1{fill-rule:evenodd;clip-rule:evenodd;fill:#FFFFFF;}
</style>
<g>
	<g>
		<rect x="-0.04" y="-0.04" class="st0" width="130.07" height="130.07"/>
	</g>
	<path class="st1" d="M65,14.46L65,14.46c18.6,0,33.81,14.82,33.81,32.92l0,0c0,8.49-3.35,16.26-8.82,22.12
		c-3.85-4.73-7.79-7.63-11.81-8.7c4.2,1.99,7.75,5.28,10.68,9.86v0c3.21,5.43,3.71,12.72,1.5,21.87
		c-2.26-6.17-5.86-10.89-10.81-14.17c2.52,10.67,3.7,25.37-5.32,33.57c4.38,0.49,7.75,1.7,9.55,3.62c-5.17-0.02-10.79-0.02-16.84,0
		c19.92-7.54,11.5-34.03,6.05-47.98c-1.99-5.08-2.97-9.75-1.05-15.01c1-2.74,3.08-5.06,7.92-5.85c1.33-0.22,2.77-0.19,4.27-0.22
		c2.82-0.06,4.22-0.38,4.19-0.96c-0.11-0.63-1.71-1.03-4.81-1.2c-1.95-0.12-6.09-0.33-6.96-2.46c-1.87-4.11-5.14-5.89-9.81-5.36
		c-18.98,3.76-17.51,26.38-6.31,39.89c5.82,6.56,7.31,13.88,4.48,21.97c-4.41-9.17-11.47-13.89-21.18-14.15c0,0-0.01,0.01-0.01,0.01
		c-0.13,10.53,7.12,17.98-2.02,27.04c-2.3,1.91-5.81,3.33-10.5,4.26V80.3V47.38C31.19,29.28,46.4,14.46,65,14.46L65,14.46z
		 M69.59,40.04c0.79,0,1.43,0.62,1.43,1.39c0,0.77-0.64,1.39-1.43,1.39c-0.79,0-1.43-0.62-1.43-1.39
		C68.15,40.67,68.8,40.04,69.59,40.04L69.59,40.04z"/>
</g>
</svg>
