<?xml version="1.0" encoding="UTF-8"?><svg xmlns="http://www.w3.org/2000/svg" xmlns:xlink="http://www.w3.org/1999/xlink" viewBox="0 0 595.28 841.89"><defs><style>.cls-1{fill:url(#_ÂÁ_Ï_ÌÌ_È_ËÂÌÚ_178-2);}.cls-1,.cls-2,.cls-3,.cls-4,.cls-5,.cls-6,.cls-7,.cls-8,.cls-9,.cls-10,.cls-11,.cls-12,.cls-13,.cls-14,.cls-15{mix-blend-mode:multiply;}.cls-16{fill:none;}.cls-17{fill:url(#_ÂÁ_Ï_ÌÌ_È_ËÂÌÚ_314-2);}.cls-18{fill:url(#_ÂÁ_Ï_ÌÌ_È_ËÂÌÚ_197-2);}.cls-19{fill:url(#_ÂÁ_Ï_ÌÌ_È_ËÂÌÚ_197-3);}.cls-20{fill:url(#_ÂÁ_Ï_ÌÌ_È_ËÂÌÚ_189-2);}.cls-21{opacity:.28;}.cls-21,.cls-22,.cls-23,.cls-24,.cls-25,.cls-26,.cls-27,.cls-28,.cls-29,.cls-30,.cls-31,.cls-32,.cls-33{mix-blend-mode:screen;}.cls-21,.cls-22,.cls-25{fill:#e09ce0;}.cls-22{opacity:.15;}.cls-34{clip-path:url(#clippath);}.cls-35,.cls-36{fill:#f4e2f1;}.cls-37{fill:#fff;}.cls-38{fill:#932b55;}.cls-39{fill:#2e0043;}.cls-40{fill:#5d2755;}.cls-23{fill:url(#_ÂÁ_Ï_ÌÌ_È_ËÂÌÚ_238-2);}.cls-23,.cls-26,.cls-27{opacity:.38;}.cls-24{fill:url(#_ÂÁ_Ï_ÌÌ_È_ËÂÌÚ_187-2);}.cls-24,.cls-28,.cls-29{opacity:.25;}.cls-2{fill:url(#_ÂÁ_Ï_ÌÌ_È_ËÂÌÚ_76);}.cls-3{opacity:.58;}.cls-3,.cls-5,.cls-7{fill:#ba92d1;}.cls-4{fill:#8486ea;opacity:.37;}.cls-5{opacity:.85;}.cls-6{fill:#c960d1;}.cls-6,.cls-36{opacity:.71;}.cls-7{opacity:.72;}.cls-25{opacity:.08;}.cls-26{fill:url(#_ÂÁ_Ï_ÌÌ_È_ËÂÌÚ_238);}.cls-27{fill:url(#_ÂÁ_Ï_ÌÌ_È_ËÂÌÚ_198);}.cls-28{fill:url(#_ÂÁ_Ï_ÌÌ_È_ËÂÌÚ_154);}.cls-29{fill:url(#_ÂÁ_Ï_ÌÌ_È_ËÂÌÚ_187);}.cls-30{fill:url(#_ÂÁ_Ï_ÌÌ_È_ËÂÌÚ_144);opacity:.32;}.cls-41{isolation:isolate;}.cls-31{fill:url(#_ÂÁ_Ï_ÌÌ_È_ËÂÌÚ_212);}.cls-31,.cls-32,.cls-33{opacity:.5;}.cls-32{fill:url(#_ÂÁ_Ï_ÌÌ_È_ËÂÌÚ_241);}.cls-33{fill:url(#_ÂÁ_Ï_ÌÌ_È_ËÂÌÚ_110);}.cls-42{fill:url(#_ÂÁ_Ï_ÌÌ_È_ËÂÌÚ_220);}.cls-43{fill:url(#_ÂÁ_Ï_ÌÌ_È_ËÂÌÚ_227);}.cls-44{fill:url(#_ÂÁ_Ï_ÌÌ_È_ËÂÌÚ_152);}.cls-45{fill:url(#_ÂÁ_Ï_ÌÌ_È_ËÂÌÚ_314);}.cls-46{fill:url(#_ÂÁ_Ï_ÌÌ_È_ËÂÌÚ_189);}.cls-8{opacity:.51;}.cls-9{fill:url(#_ÂÁ_Ï_ÌÌ_È_ËÂÌÚ_239);opacity:.6;}.cls-47{fill:#f46f9f;opacity:.36;}.cls-10{fill:url(#_ÂÁ_Ï_ÌÌ_È_ËÂÌÚ_197);opacity:.79;}.cls-11{fill:url(#_ÂÁ_Ï_ÌÌ_È_ËÂÌÚ_118);opacity:.31;}.cls-12{fill:url(#_ÂÁ_Ï_ÌÌ_È_ËÂÌÚ_117);opacity:.43;}.cls-13{fill:url(#_ÂÁ_Ï_ÌÌ_È_ËÂÌÚ_240);}.cls-14{fill:url(#_ÂÁ_Ï_ÌÌ_È_ËÂÌÚ_178);}.cls-15{fill:url(#_ÂÁ_Ï_ÌÌ_È_ËÂÌÚ_103);}</style><linearGradient id="_ÂÁ_Ï_ÌÌ_È_ËÂÌÚ_220" x1="71.18" y1="171.6" x2="148.51" y2="10.75" gradientUnits="userSpaceOnUse"><stop offset=".07" stop-color="#2e0043"/><stop offset=".24" stop-color="#370846"/><stop offset=".52" stop-color="#521e51"/><stop offset=".88" stop-color="#7c4161"/><stop offset="1" stop-color="#8d4f68"/></linearGradient><linearGradient id="_ÂÁ_Ï_ÌÌ_È_ËÂÌÚ_314" x1="112.62" y1="253.65" x2="112.62" y2="-29.73" gradientUnits="userSpaceOnUse"><stop offset="0" stop-color="#ba92d1"/><stop offset=".32" stop-color="#cea8d7"/><stop offset=".82" stop-color="#f4d3e3"/></linearGradient><linearGradient id="_ÂÁ_Ï_ÌÌ_È_ËÂÌÚ_314-2" x1="152.29" y1="242.09" x2="152.29" y2="-21.38" xlink:href="#_ÂÁ_Ï_ÌÌ_È_ËÂÌÚ_314"/><linearGradient id="_ÂÁ_Ï_ÌÌ_È_ËÂÌÚ_197" x1="164.84" y1="65.83" x2="168.87" y2="65.83" gradientUnits="userSpaceOnUse"><stop offset=".33" stop-color="#ba92d1"/><stop offset="1" stop-color="#c960d1"/></linearGradient><linearGradient id="_ÂÁ_Ï_ÌÌ_È_ËÂÌÚ_227" x1="173.05" y1="71.29" x2="174.95" y2="50.44" gradientUnits="userSpaceOnUse"><stop offset="0" stop-color="#ea524b"/><stop offset="1" stop-color="#ffa953"/></linearGradient><linearGradient id="_ÂÁ_Ï_ÌÌ_È_ËÂÌÚ_118" x1="156.31" y1="47.48" x2="174.72" y2="36.9" gradientUnits="userSpaceOnUse"><stop offset=".47" stop-color="#fff"/><stop offset=".55" stop-color="#e3d0e3"/><stop offset=".72" stop-color="#b079b1"/><stop offset=".85" stop-color="#8a3a8c"/><stop offset=".95" stop-color="#731275"/><stop offset="1" stop-color="#6b046d"/></linearGradient><linearGradient id="_ÂÁ_Ï_ÌÌ_È_ËÂÌÚ_117" x1="163.48" y1="43.41" x2="156.46" y2="50.43" gradientUnits="userSpaceOnUse"><stop offset=".19" stop-color="#fff"/><stop offset=".32" stop-color="#e3d0e3"/><stop offset=".57" stop-color="#b079b1"/><stop offset=".77" stop-color="#8a3a8c"/><stop offset=".92" stop-color="#731275"/><stop offset="1" stop-color="#6b046d"/></linearGradient><clipPath id="clippath"><path class="cls-16" d="m152.8,43.1s5.02-7.65,14.6-6.59c4.21.46,4.29,12.91-4.17,15.02-.9.23-1.99.46-3.38.12-2.15-.53-5.78-1.68-7.05-8.54Z"/></clipPath><linearGradient id="_ÂÁ_Ï_ÌÌ_È_ËÂÌÚ_152" x1="122.69" y1="64.63" x2="122.69" y2="46.14" gradientTransform="translate(52.01 -34.14) rotate(11.54)" gradientUnits="userSpaceOnUse"><stop offset=".12" stop-color="#fff"/><stop offset=".32" stop-color="#fafafc"/><stop offset=".54" stop-color="#edeef6"/><stop offset=".77" stop-color="#d6d9ec"/><stop offset="1" stop-color="#babfdf"/></linearGradient><linearGradient id="_ÂÁ_Ï_ÌÌ_È_ËÂÌÚ_178" x1="63.9" y1="61.81" x2="63.9" y2="48.96" gradientTransform="translate(128.56 -27.79) rotate(20.49) scale(.93 1) skewX(2.27)" gradientUnits="userSpaceOnUse"><stop offset="0" stop-color="#bf92ed"/><stop offset="0" stop-color="#bd90eb"/><stop offset=".15" stop-color="#9b69b6"/><stop offset=".29" stop-color="#7e488a"/><stop offset=".42" stop-color="#682f69"/><stop offset=".55" stop-color="#581c50"/><stop offset=".67" stop-color="#4f1142"/><stop offset=".77" stop-color="#4c0e3d"/></linearGradient><linearGradient id="_ÂÁ_Ï_ÌÌ_È_ËÂÌÚ_178-2" x1="64.14" y1="59.53" x2="64.14" y2="51.5" xlink:href="#_ÂÁ_Ï_ÌÌ_È_ËÂÌÚ_178"/><linearGradient id="_ÂÁ_Ï_ÌÌ_È_ËÂÌÚ_144" x1="162.48" y1="16.82" x2="162.48" y2="6.27" gradientTransform="translate(2.42 27.18) rotate(4.5)" gradientUnits="userSpaceOnUse"><stop offset=".23" stop-color="#000"/><stop offset=".3" stop-color="#080406"/><stop offset=".4" stop-color="#1f0f16"/><stop offset=".53" stop-color="#452231"/><stop offset=".68" stop-color="#793d57"/><stop offset=".85" stop-color="#bb5e87"/><stop offset="1" stop-color="#ff81b8"/></linearGradient><linearGradient id="_ÂÁ_Ï_ÌÌ_È_ËÂÌÚ_110" x1="74.98" y1="95.52" x2="74.98" y2="77.21" gradientTransform="translate(109.75 -52.51) rotate(22.27)" gradientUnits="userSpaceOnUse"><stop offset=".19" stop-color="#000"/><stop offset=".27" stop-color="#050405"/><stop offset=".38" stop-color="#160f16"/><stop offset=".51" stop-color="#312231"/><stop offset=".64" stop-color="#583d58"/><stop offset=".79" stop-color="#895f89"/><stop offset=".94" stop-color="#c488c4"/><stop offset="1" stop-color="#e09ce0"/></linearGradient><linearGradient id="_ÂÁ_Ï_ÌÌ_È_ËÂÌÚ_103" x1="135.05" y1="80.32" x2="135.05" y2="38.2" gradientUnits="userSpaceOnUse"><stop offset="0" stop-color="#fff"/><stop offset=".23" stop-color="#ede2f3"/><stop offset=".75" stop-color="#c8a8da"/><stop offset="1" stop-color="#ba92d1"/></linearGradient><linearGradient id="_ÂÁ_Ï_ÌÌ_È_ËÂÌÚ_154" x1="122.72" y1="18.6" x2="98.36" y2="18.6" gradientTransform="translate(65.07 -27.48) rotate(16.17)" gradientUnits="userSpaceOnUse"><stop offset="0" stop-color="#e09ce0"/><stop offset=".08" stop-color="#c488c4"/><stop offset=".26" stop-color="#895f89"/><stop offset=".44" stop-color="#583d58"/><stop offset=".61" stop-color="#312231"/><stop offset=".76" stop-color="#160f16"/><stop offset=".9" stop-color="#050405"/><stop offset="1" stop-color="#000"/></linearGradient><linearGradient id="_ÂÁ_Ï_ÌÌ_È_ËÂÌÚ_239" x1="51.35" y1="136.68" x2="162.92" y2="58.53" gradientUnits="userSpaceOnUse"><stop offset=".36" stop-color="#ba92d1"/><stop offset=".52" stop-color="#c8a8da"/><stop offset=".85" stop-color="#ede2f3"/><stop offset="1" stop-color="#fff"/></linearGradient><linearGradient id="_ÂÁ_Ï_ÌÌ_È_ËÂÌÚ_240" x1="147.41" y1="83.67" x2="209.23" y2="83.67" gradientUnits="userSpaceOnUse"><stop offset=".42" stop-color="#ba92d1"/><stop offset=".56" stop-color="#c8a8da"/><stop offset=".86" stop-color="#ede2f3"/><stop offset="1" stop-color="#fff"/></linearGradient><linearGradient id="_ÂÁ_Ï_ÌÌ_È_ËÂÌÚ_197-2" x1="158.49" y1="70" x2="159.02" y2="70" xlink:href="#_ÂÁ_Ï_ÌÌ_È_ËÂÌÚ_197"/><linearGradient id="_ÂÁ_Ï_ÌÌ_È_ËÂÌÚ_197-3" x1="159.02" y1="60.75" x2="187.01" y2="60.75" xlink:href="#_ÂÁ_Ï_ÌÌ_È_ËÂÌÚ_197"/><linearGradient id="_ÂÁ_Ï_ÌÌ_È_ËÂÌÚ_212" x1="176.13" y1="52.19" x2="183.75" y2="52.19" gradientUnits="userSpaceOnUse"><stop offset=".19" stop-color="#000"/><stop offset=".27" stop-color="#050502"/><stop offset=".38" stop-color="#16160a"/><stop offset=".5" stop-color="#303117"/><stop offset=".64" stop-color="#565828"/><stop offset=".78" stop-color="#86893f"/><stop offset=".93" stop-color="#c0c45a"/><stop offset="1" stop-color="#e0e56a"/></linearGradient><linearGradient id="_ÂÁ_Ï_ÌÌ_È_ËÂÌÚ_76" x1="176.95" y1="98.1" x2="176.95" y2="80.6" gradientUnits="userSpaceOnUse"><stop offset=".12" stop-color="#fff"/><stop offset=".24" stop-color="#ede2f3"/><stop offset=".48" stop-color="#c8a8da"/><stop offset=".6" stop-color="#ba92d1"/></linearGradient><linearGradient id="_ÂÁ_Ï_ÌÌ_È_ËÂÌÚ_189" x1="20.64" y1="189.3" x2="20.64" y2="157.69" gradientUnits="userSpaceOnUse"><stop offset="0" stop-color="#ffa953"/><stop offset="1" stop-color="#ea524b"/></linearGradient><linearGradient id="_ÂÁ_Ï_ÌÌ_È_ËÂÌÚ_241" x1="134.22" y1="110.47" x2="118.3" y2="126.39" gradientUnits="userSpaceOnUse"><stop offset=".22" stop-color="#e09ce0"/><stop offset=".54" stop-color="#855d85"/><stop offset="1" stop-color="#000"/></linearGradient><linearGradient id="_ÂÁ_Ï_ÌÌ_È_ËÂÌÚ_187" x1="117.45" y1="89.29" x2="176.17" y2="89.29" gradientUnits="userSpaceOnUse"><stop offset="0" stop-color="#000"/><stop offset=".1" stop-color="#050405"/><stop offset=".24" stop-color="#160f16"/><stop offset=".39" stop-color="#312231"/><stop offset=".56" stop-color="#583d58"/><stop offset=".74" stop-color="#895f89"/><stop offset=".92" stop-color="#c488c4"/><stop offset="1" stop-color="#e09ce0"/></linearGradient><linearGradient id="_ÂÁ_Ï_ÌÌ_È_ËÂÌÚ_187-2" x1="160.26" y1="80.58" x2="196.35" y2="80.58" xlink:href="#_ÂÁ_Ï_ÌÌ_È_ËÂÌÚ_187"/><linearGradient id="_ÂÁ_Ï_ÌÌ_È_ËÂÌÚ_238" x1="145.36" y1="83.23" x2="129.74" y2="98.85" gradientUnits="userSpaceOnUse"><stop offset="0" stop-color="#9c3be0"/><stop offset=".08" stop-color="#8833c4"/><stop offset=".26" stop-color="#5f2489"/><stop offset=".44" stop-color="#3d1758"/><stop offset=".61" stop-color="#220d31"/><stop offset=".76" stop-color="#0f0516"/><stop offset=".9" stop-color="#040105"/><stop offset="1" stop-color="#000"/></linearGradient><linearGradient id="_ÂÁ_Ï_ÌÌ_È_ËÂÌÚ_238-2" x1="183.86" y1="77.65" x2="176.67" y2="84.85" xlink:href="#_ÂÁ_Ï_ÌÌ_È_ËÂÌÚ_238"/><linearGradient id="_ÂÁ_Ï_ÌÌ_È_ËÂÌÚ_198" x1="134.01" y1="24.9" x2="166.41" y2="24.9" gradientUnits="userSpaceOnUse"><stop offset="0" stop-color="#000"/><stop offset=".1" stop-color="#040105"/><stop offset=".24" stop-color="#0f0516"/><stop offset=".39" stop-color="#220d31"/><stop offset=".56" stop-color="#3d1758"/><stop offset=".74" stop-color="#5f2489"/><stop offset=".92" stop-color="#8833c4"/><stop offset="1" stop-color="#9c3be0"/></linearGradient><linearGradient id="_ÂÁ_Ï_ÌÌ_È_ËÂÌÚ_189-2" x1="118.19" y1="187.2" x2="82.08" y2="187.2" xlink:href="#_ÂÁ_Ï_ÌÌ_È_ËÂÌÚ_189"/></defs><g class="cls-41"><g id="katman_1"><g><path class="cls-42" d="m177.53,43.95s1.12-5.78,1.29-9.75-5.06-20.61-26.02-22.02c-17.76-1.2-25.76,11.01-28.26,15.16-2.5,4.14-7.34-.52-5.27,4.19,0,0-4.81-.14-1.44,3.31,3.37,3.45,3.77,2.65,3.77,2.65,0,0-24.51,22.53-34.44,27.97-9.93,5.44-16.49,1.73-13.55,5.35,0,0-2.59,0-.09,2.85,0,0-28.57,12.86-34.7,16.92-6.13,4.06-15.02,1.12-22.79-4.06-7.77-5.18-1.81,17.26-1.81,17.26,0,0-2.93-2.76-1.47,4.4,1.47,7.16-1.29,26.24,5.09,34.87,6.39,8.63,1.38,15.31,1.38,15.31l1.73,3.34s9.44.23,12.66,1.38c3.22,1.15,32.57,12.43,49.03,27.51l6.56-2.99v-13.93s30.15-17.01,48.34-62.77c0,0,55.24,2.58,62.84-2.25,7.6-4.83-31.07-12.75-31.07-12.75,0,0,36.83-4.28,39.82-8.66,2.99-4.37-54.78-10.36-59.61-13.81-4.83-3.45,1.73-2.04,6.44-3.11,16.23-3.68,21.58-26.35,21.58-26.35Z"/><path class="cls-45" d="m137.54,110.88c-8.52-.18-31.76-.53-39.93-5.02,0,0-9.78,10.47-9.9,30.27-.12,19.79,1.5,25.78,1.5,37.52,0,0,30.84-16.28,48.34-62.77Z"/><path class="cls-17" d="m171.31,27.51c-7.24-.56-17.33,5.21-21.64,15.59,0,0-7.75-5.86-14.43.39-6.67,6.25-2.19,18.07,1.38,23.02,0,0-5.41-6.91-9.09-6.44-3.68.46,1.5,18.53,2.53,20.6l18.53,8.4s-2.05-16.19-.71-17.61c.5-.87,4.74.19,8.07-.56,16.23-3.68,21.58-26.35,21.58-26.35,0,0,.3-1.53.61-3.55.5-3.22.07-5.92-.65-8.04-.91-2.68-2.95-5.19-6.18-5.44Z"/><path class="cls-38" d="m170.21,73.06s-.73-7.19.09-11.09c.83-3.9,9.91-5.77,9.91-5.77l-10.19-.62-5.71,4.86,1.17,9.24,4.73,3.38Z"/><path class="cls-10" d="m168.87,72.71s-.23-11.03-1.38-13.28c-1.15-2.24-2.65,4.26-2.65,4.26l1.61,5.28,2.42,3.74Z"/><path class="cls-43" d="m187.01,55.62s-3.58-5.01-11.06-6.84c0,0-7.8,6.64-12.74,8.51-.5.19,3.79,8.42-2.5,11.81,0,0,7.11,4.14,9.5,3.96,0,0-3.76-4.84-3.95-9.86s5.87-5.48,20.74-7.58Z"/><g><path class="cls-11" d="m152.8,43.1s2.08-6.06,13.82-10.58c11.74-4.51,9.15,11.95,1.46,17.72-7.68,5.77-15.29-7.15-15.29-7.15Z"/><path class="cls-39" d="m152.8,43.1s3.98-6.95,12.44-7.62c8.46-.67,5.72,6.84,4.45,9.59-1.27,2.75-16.89-1.96-16.89-1.96Z"/><path class="cls-12" d="m152.8,43.1s1.99,12.88,12.99,8.15c10.36-4.45-12.99-8.15-12.99-8.15Z"/><g class="cls-34"><path class="cls-44" d="m152.8,43.1s4.99-8.49,14.6-6.59c4.66.92,3.38,15.33-5.09,17.44-.9.23-1.87.12-2.7-.3-1.97-.99-5.55-3.69-6.82-10.55Z"/><path class="cls-4" d="m151.43,45.98c2.23-8.45,19.38-8.82,17.57,2.3s6.72-13.04,6.72-13.04l-11.66-6.64-13.08,5.4-1.36,9.49,1.82,2.5Z"/><g><path class="cls-14" d="m171.31,47.26c-1.29,3.32-4.46,5.36-7.09,4.55-2.62-.8-3.71-4.15-2.42-7.47,1.29-3.32,4.46-5.36,7.09-4.55s3.71,4.15,2.42,7.47Z"/><path class="cls-1" d="m169.7,46.91c-.81,2.08-2.79,3.35-4.43,2.85-1.64-.5-2.32-2.59-1.51-4.67.81-2.08,2.79-3.35,4.43-2.85s2.32,2.59,1.51,4.67Z"/><path class="cls-30" d="m169.11,51.62c-.35,2.89-3.16,5.15-6.27,5.04-3.11-.1-5.34-2.53-4.99-5.42.35-2.89,3.16-5.15,6.27-5.04,3.11.1,5.34,2.53,4.99,5.42Z"/></g><g><path class="cls-37" d="m166.26,43.94c-.14.06-.88-.22-1.09-.8-.21-.58.14-1.26.31-1.31.17-.06.88.22,1.09.8.21.58-.12,1.24-.31,1.31Z"/><path class="cls-37" d="m166.72,45.86c-.06.02-.33-.02-.39-.17-.06-.15.11-.36.18-.38.07-.02.33.02.39.17.06.15-.1.35-.18.38Z"/></g></g><path class="cls-40" d="m167.34,32.27s4.78-1.25,6.39,1.24c0,0,.91-3.46-6.39-1.24Z"/></g><path class="cls-33" d="m140.27,41.28c7.69-2.06,25.98,17.31,17.58,25.97-4.04,4.17-10.45,4.25-18.47-1.9-7.45-5.71-11.11-20.86.89-24.08Z"/><path class="cls-47" d="m147.56,45.35c7.21.72,12.6,14.08,7.28,15.23-8.47,1.82-16.89-16.19-7.28-15.23Z"/><path class="cls-15" d="m119.7,44.11c3.34.73,8.52,20.79,16.11,28.96,7.6,8.17,14.04,8.86,15.77,4.95,1-2.28,4.77-2.33,7.75-1.97-5.05-.97-8.74-1.86-9.82-2.63-1.41-1.01-1.83-1.6-1.63-1.96.5-.87,4.74.19,8.07-.56,1.71-.39,3.3-1,4.77-1.76,0-.03-4.82,3.49-16.37-4.81-13.56-9.74-7.28-22.58-7.28-22.58-3.91-4.23-6.82-25.57,9.17-29.38-13.95,2.47-19.58,11.44-21.71,14.97-2.5,4.14-7.34-.52-5.27,4.19,0,0-4.81-.14-1.44,3.31,2.8,2.87,3.55,2.8,3.72,2.69-.46.42-5.7,5.22-12.18,10.81,3.64-2.16,8.39-4.65,10.33-4.22Z"/><path class="cls-7" d="m151.05,71.14s-15.36-1.81-19.96-18.12c-4.6-16.31-9.54-15.49-9.54-15.49l-2.78,2.52s6.74,1.79,10.02,7.65c3.28,5.86,2.3,28.19,18.64,25.83,0,0-.14-1.21.36-1.93.36-.52.7-.67,3.26-.46Z"/><path class="cls-28" d="m175.31,24.72c5.91,9.88-9.02,1.66-18.13-5.96-8.4-7.03,9.99-7.65,18.13,5.96Z"/><path class="cls-35" d="m165.09,24.73c-1.88-.71-3.03-1.21-3.43-2.47-.4-1.26,7.37,3.95,3.43,2.47Z"/><path class="cls-5" d="m130.06,80.66s-10.93-3.51-14.62-15.81c0,0,9.44,6.64,11.51,7.85,2.07,1.21,3.11,7.96,3.11,7.96Z"/><path class="cls-9" d="m200.37,108.63c7.6-4.83-31.07-12.75-31.07-12.75,0,0,27.89,7.95,19.33,8.26-8.55.31-62.2-10.17-69.56-13.74-7.37-3.57-24.35-21.19-16.63-28.67,6.31-6.12,8.15-7.19,8.61-7.38-1.35.4-12.68,3.85-19.5,8.29-.43.3-.85.59-1.25.86-.4.29-.76.52-1.09.72-.73.47-1.41.88-2.04,1.22-9.93,5.44-16.49,1.73-13.55,5.35,0,0-2.59,0-.09,2.85,0,0-28.57,12.86-34.7,16.92-6.13,4.06-15.02,1.12-22.79-4.06-7.77-5.18-1.81,17.26-1.81,17.26,0,0-2.93-2.76-1.47,4.4,1.47,7.16-1.29,26.24,5.09,34.87,6.39,8.63,1.38,15.31,1.38,15.31l1.73,3.34s9.44.23,12.66,1.38c3.22,1.15,32.57,12.43,49.03,27.51l6.56-2.99v-4.6c0,5.29-23.94-20.02-26.58-28.08-2.65-8.06-.23-1.27-.23-1.27,0,0-3.45-38.55,7.14-30.27,10.59,8.29,19.68,27.85,19.68,50.29,0,0,22.44-13.22,37.47-39.87-2.13,4.04-6.63,2.9-8.48,2.66-10.8-1.38-24.5-16.1-10.92-20.35,13.55-4.25,29.73-4.69,28.41-.52.63-1.53,1.25-3.08,1.85-4.68,0,0,55.24,2.58,62.84-2.25Z"/><path class="cls-13" d="m148.59,89.06l20.72,6.82s36.83-4.28,39.82-8.66c.57-.83-1.08-1.73-4.14-2.65,11,3.44-24.78-2.1-31.11-2.99-9.03-1.26-27.05-7.98-13.85-5.41-5.4-1.02-9.38-1.96-10.5-2.76-1.41-1.01-1.83-1.6-1.63-1.96-1.37,1.01.71,17.61.71,17.61Z"/><g class="cls-8"><path class="cls-18" d="m159.02,69.88c-.18.07-.35.17-.53.24.13-.05.32-.14.53-.24Z"/><path class="cls-19" d="m166.79,60.91c.76-1.28,2.4-2.13,5-2.81,3.36-.88,8.33-1.51,15.22-2.48-5.52-.25-11.46.73-14.11.57-.8-.05-1.31-.2-1.41-.52-.43-1.4,4.46-6.88,4.46-6.88-1.07.95-2.15,1.8-3.21,2.57-6.51,4.7-12.47,6.1-12.47,6.1,0,0,3.88,4.75,3.02,8.03-.63,2.41-3.04,3.82-4.27,4.4.59-.24,1.17-.48,1.72-.76.22.13,4.57,2.64,7.54,3.59-.47-1.07-1.84-4.39-2.24-7.37-.24-1.78-.13-3.43.74-4.41,0,0,0,0,.01-.01Z"/></g><path class="cls-31" d="m176.13,49.01s3.18,4.99,6.54,5.79c3.36.8,3.63.5,3.63.5,0,0-1.94-3.88-10.16-6.29Z"/><path class="cls-2" d="m202.7,85.48c-1.46-.14-3.16-.33-5.02-.56-12.35-1.38-41.53-4.78-47.54-6.9-1.04-.37-1.9-.64-2.65-.87.26,5.15,1.1,11.91,1.1,11.91l16.96,5.58s27.31-1.51,38.27-4.84c3.35-1.89,3.92-3.77-1.12-4.33Z"/><path class="cls-5" d="m148.38,87.35l-.9-10.2s10.92,4.09,48.97,7.63c0,0,10.34,1.26.41,2.57-9.93,1.31-48.48,0-48.48,0Z"/><path class="cls-5" d="m88.45,160.44c-4.49-15.65-7.1-24.33-15.89-34.35,0,0,11.01,5.32,13.45,8.18,2.44,2.86,2.44,26.16,2.44,26.16Z"/><path class="cls-5" d="m29.59,135.06c-2.23-23.99,7.56-43.59,40.47-59.85-7.79,3.56-26.43,12.16-31.24,15.35-6.13,4.06-15.02,1.12-22.79-4.06-7.77-5.18-1.81,17.26-1.81,17.26,0,0-2.93-2.76-1.47,4.4,1.47,7.16-1.29,26.24,5.09,34.87,6.39,8.63,1.38,15.31,1.38,15.31l1.73,3.34s5.27-3.2,8.49-2.05c.7.25,4.17,3.43,4.17,3.43,13.06,4.97,36.13,15.69,49.03,27.51l4.01-1.83c-20.34-15.14-55.68-38.83-57.07-53.68Z"/><path class="cls-46" d="m19.23,158.35l-3.8,2.04s1.91,15.88.7,24.51l2.59-1.06v5.47s5.52-3.11,6.91-6.99-4.41-17.52-4.85-19.25,6.15-4.32.1-3.63c0,0,3.61-3.05-1.65-1.09Z"/><path class="cls-6" d="m24.67,180.33c-.57-2.87-5.87-14.41-5.87-14.41,0,0,3.54,12.34,2.83,14.33-.71,1.99-4.29,3.11-4.29,3.11,0,0,3.8-2.07,2.85-4.66-.95-2.59-2.85-16.4-2.85-16.4l4.29-3.57c.68-.76,1.11-1.68-2.39-.37l-3.8,2.04s1.91,15.88.7,24.51l2.59-1.06v5.47s6.51-6.1,5.94-8.98Z"/><path class="cls-22" d="m29.76,125.57c-1.55,11.82,2.99,17.32,6.22,20.9,3.23,3.58-5.61-19.48-2.25-35.4,1.77-8.37-2.35,2.13-3.97,14.5Z"/><path class="cls-22" d="m96.91,167.11c-2.93,2.12-5.47,3.75-7.72,4.94l-.19-6.19c6.14-2.24,12.84-4.83,16.54-7.89,4.99-4.14,2.64.98-8.63,9.15Z"/><path class="cls-21" d="m148.01,84.56c.21,1.54.58,3.23.35,4.5l-4.16-1.99c.26-.7.53-1.43.79-2.18.7-2.05,1.04-7.02,1.42-9.11.83-4.61.41-.21,1.61,8.78Z"/><path class="cls-25" d="m85.47,86.69c-2.02-6.4.77-10.66,3.65-13,2.88-2.34-2.66,14.7,2.2,24.1,2.55,4.94-1.4,2.98-5.85-11.1Z"/><path class="cls-25" d="m128.05,26.73c.74-3.93,2.89-5.82,4.61-6.63s-4.62,7.76-4.96,13.85c-.18,3.2-1.28,1.42.35-7.21Z"/><path class="cls-32" d="m118.19,113.53c16.6-1.71,18.83-.22,15.48,6.7-3.35,6.92-6.72,16.53-12.33,12.66-5.61-3.87-11.37-18.51-3.15-19.36Z"/><path class="cls-3" d="m89.71,97.65c-1.11-1.9-2.2-4.18-3.15-6.98,0,0-2.25,11.24,2.45,15.03,2.92,5.18,47.84,6.69,47.84,6.69l.69-1.5c7.25.57,38.1.62,38.1.62,0,0-80.27-3.05-85.92-13.84Z"/><path class="cls-5" d="m97.6,105.87s-6.79-2.76-11.05-15.19c0,0-4.26,21.18,11.05,15.19Z"/><path class="cls-29" d="m160.01,99.99c26.84,5.89,17.74-.4-8.96-10.12-26.69-9.71-33.25-17.83-33.6-11.09-.35,6.73,8.8,13.33,19.16,16.42,10.36,3.09,23.4,4.79,23.4,4.79Z"/><path class="cls-24" d="m179.54,82.54c12.54,2.34,25.21,1.26,9.52-1.39-15.69-2.65-34.65-5.54-27.09-2.53,7.56,3.02,17.57,3.92,17.57,3.92Z"/><path class="cls-36" d="m150.97,98.71c2.49.97,4.05,1.5,5.15.73,1.1-.77-10.36-2.75-5.15-.73Z"/><path class="cls-26" d="m122.55,91.65c4.65,1.29,31.64.43,21.64-4.58l8.35,3.35s-3.77.28-13.11,1.77c-9.35,1.48-3.91,2.82-3.91,2.82l-12.97-3.36Z"/><path class="cls-23" d="m181.21,82.83c-5.18-1.34,5.8-2.03,5.8-2.03l-7.53-1.27s5.23,1.11,1.72,1.65-7.69.52-7.69.52l7.69,1.13Z"/><path class="cls-5" d="m18.65,141.85s18.18,22.1,20.02,23.02c0,0-13.35-1.61-20.02-23.02Z"/><path class="cls-5" d="m88.45,160.44s7.42,8.82,5.27,10.19-4.52,3.02-4.52,3.02l-.75-13.22Z"/><path class="cls-27" d="m134.72,36.41c-2.23-7.97,16.01-24.93,31.69-20.36,0,0-2.94-1.49-6.39-2.65,0,0,4.45,1.81-3.2,1.7-7.65-.12-15.79,4.09-18.54,10.76-2.75,6.67-4.03.72-4.03.72,0,0-.17,1.72-.24,4.4-.08,3.16.71,5.44.71,5.44Z"/><path class="cls-20" d="m82.64,190.57l6.5,6.85,24.47-12.83-2.59-1.12,7.16-4.14s-6.65-2.24-11.13-2.33-15.66,13.58-15.66,13.58c0,0-3.02-5.24-5.78-5.75-2.76-.52-.6,3.88-.6,3.88,0,0-4.46-1.52-2.36,1.87Z"/><path class="cls-6" d="m82.64,190.57l6.5,6.85,24.47-12.83s-5.05-.63-8.07-.37c-3.02.26-15.36,9.93-15.36,9.93l-6.64-5.76c-1.07-.11-2.15.17-.9,2.19Z"/><path class="cls-6" d="m104.59,179.72c-1.99.86-10.88,10.85-10.88,10.85,0,0,8.46-7.91,10.53-7.91s6.77.81,6.77.81l7.16-4.14s-11.61-.46-13.59.4Z"/></g></g></g></svg>