<svg xmlns="http://www.w3.org/2000/svg" xml:space="preserve" viewBox="0 0 65 65"><path fill="#8900fe" fill-rule="evenodd" d="M32.3.28c11.85 0 21.55 9.44 21.55 20.98 0 5.41-2.13 10.36-5.62 14.1-2.45-3.02-4.96-4.87-7.52-5.55 2.67 1.27 4.94 3.37 6.8 6.28 2.05 3.46 2.37 8.11.95 13.94-1.44-3.93-3.74-6.94-6.89-9.03 1.61 6.8 2.36 16.17-3.39 21.39 2.79.31 4.94 1.08 6.08 2.31-3.3-.01-6.87-.01-10.73 0 12.69-4.8 7.33-21.69 3.86-30.58-1.27-3.24-1.89-6.21-.67-9.57.64-1.75 1.96-3.23 5.05-3.73.85-.14 1.76-.12 2.72-.14 1.8-.04 2.69-.24 2.67-.61-.07-.4-1.09-.66-3.06-.76-1.24-.08-3.88-.21-4.43-1.57-1.19-2.62-3.27-3.76-6.25-3.42-12.1 2.39-11.16 16.81-4.02 25.42 3.71 4.18 4.66 8.85 2.86 14-2.81-5.85-7.31-8.85-13.5-9.02 0 .06-.01.13-.01.19 0 6.62 4.48 11.32-1.29 17.05-1.47 1.22-3.7 2.13-6.7 2.72V21.26C10.75 9.72 20.44.28 32.3.28zm2.92 16.3c.5 0 .91.4.91.89s-.41.89-.91.89-.91-.4-.91-.89.41-.89.91-.89z" clip-rule="evenodd"/></svg>
