<svg xmlns="http://www.w3.org/2000/svg" xml:space="preserve" id="katman_1" x="0" y="0" version="1.1" viewBox="0 0 261 66"><style>.st0{fill:#8900fe}.st1{fill:#fff}</style><g id="_x39_nEqj4_00000147184934841852209240000008450992408147086983_"><path d="M28.94 61.81c3.29-3.99 3.55-8.75 2.67-13.41-.92-4.92-2.6-9.7-4.1-14.49-.74-2.4-1.22-4.75-.82-7.26.52-3.25 2.68-5.17 5.98-5.33 1.55-.07 3.1-.2 4.64-.31.02-.22.05-.43.07-.65-.53-.2-1.04-.48-1.58-.57-1.07-.17-2.23-.06-3.23-.4-1-.35-2.15-.91-2.71-1.73-1.74-2.56-3.92-3.56-6.91-2.77-5.75 1.52-8.9 5.98-8.6 12.01.26 5.12 2.12 9.58 5.37 13.47 3.24 3.88 4.54 8.15 2.82 13.41-3.01-5.3-7.14-8.6-13.72-8.57.22 1.6.38 3.05.62 4.48.36 2.08.99 4.14 1.14 6.24.24 3.37-2.22 6.68-5.7 8-1.11.42-2.26.73-3.72 1.2v-2.06c0-13.96-.01-27.92.01-41.87.05-10.24 8.9-19.38 19.15-20.25 11.6-.99 20.42 6.43 22.88 14.89 2.14 7.37.41 13.86-4.43 19.66-1.97-1.65-3.8-3.19-5.64-4.73-.18.14-.35.28-.53.42 6.58 4.65 8.09 10.96 6.17 18.72-1.62-3.36-3.47-6.25-6.71-8.38.28 2.63.63 4.97.77 7.32.25 4.18-.11 8.27-2.58 11.86-.31.45-.88.72-1.33 1.07l.02.03z" class="st0"/><path d="M143.69 40.26c0 2.78.13 5.54-.02 8.28-.39 6.96-3.56 12.33-9.53 15.99-.33.2-.7.33-1.28.59V61.4c0-12.81.35-25.63-.09-38.42-.49-14.21 10.75-22.65 23.19-21.77 10.13.71 18.92 9.22 19.5 18.72.76 12.39-8 20.88-17.9 22.17-4.23.55-8.48.2-12.47-1.61-.31-.14-.64-.23-.96-.34-.05-.02-.12.02-.44.11zm10.5-8.23c5.93 0 10.38-4.41 10.37-10.26-.02-6.19-4.46-10.41-10.95-10.41-5.65 0-9.89 4.52-9.91 10.53 0 5.78 4.51 10.14 10.49 10.14zM219.87 30.09H190.2c1.6 3.38 4.2 5.18 7.5 5.65 3.98.57 7.65-.24 10.27-3.75.3-.4 1.23-.62 1.76-.5 3 .71 5.98 1.55 8.96 2.35-3.25 8.57-13.46 13.81-24.01 11.68-11.33-2.29-18.38-13.3-15.96-24.79 2.32-11.01 14.43-18.26 26.13-15.45 10.58 2.54 17.4 11.79 15.02 24.81zm-11.17-9.88c-1.73-3.86-6.46-5.97-11.23-5.21-3.34.53-6.5 2.92-6.77 5.21h18zM88.75 30.07H58.98c1.15 2.53 2.93 4.05 5.18 4.99 4.53 1.9 9.24.68 12.58-3.04.34-.38 1.12-.71 1.59-.6 3.1.74 6.18 1.61 9.28 2.44-4.09 9.45-14.74 14.05-25.23 11.39-10.71-2.72-17.26-13.6-14.87-24.29C49.67 11.31 59.16 3.23 71.59 4.9c10.21 1.37 19.56 9.64 17.16 25.17zm-29.31-9.93h18.07c-1.53-3.6-5.51-5.48-10.63-5.17-3.36.2-6.63 2.45-7.44 5.17zM128.52 45.24h-10.83v-1.89c0-6.6.05-13.21-.04-19.81a14.71 14.71 0 0 0-.84-4.69c-.98-2.73-3.17-3.94-6.01-4.05-2.71-.1-5.07 1.21-6.01 3.73-.61 1.63-.98 3.44-1.02 5.17-.12 6.49-.05 12.98-.05 19.46v2.03H92.96c-.03-.59-.09-1.15-.09-1.71-.01-12.34 0-24.69-.04-37.03 0-1.11.28-1.61 1.42-1.86 3.07-.65 6.11-1.44 9.33-2.22.09 1.11.17 2.1.24 2.99 2.57-.24 5.05-.72 7.52-.66 7.12.19 12.58 3.3 15.58 9.92.88 1.94 1.46 4.17 1.51 6.29.19 8.03.09 16.07.09 24.33zM224.64 4.9c3.55-.85 7-1.67 10.66-2.55.07 1.07.13 2.06.2 3.12 1.93-.28 3.76-.67 5.61-.79 8.17-.56 15.22 3.65 17.82 10.71.68 1.86 1.18 3.89 1.21 5.85.14 7.69.07 15.39.07 23.08 0 .27-.06.55-.11.91h-10.74v-1.9c0-6.6.04-13.21-.03-19.81-.01-1.41-.26-2.87-.68-4.21-.93-2.95-3.32-4.57-6.37-4.55-3.01.02-5.37 1.7-6.23 4.71-.41 1.41-.6 2.93-.62 4.4-.06 6.43-.03 12.86-.03 19.29v2.02h-10.76V4.9z" class="st1"/><path d="M28.91 61.77v1.05c1.45.48 2.85.92 4.25 1.41.23.08.4.33.79.67h-8.63c1.21-1.02 2.42-2.05 3.63-3.09-.01 0-.04-.04-.04-.04z" class="st0"/></g></svg>
