<?xml version="1.0" encoding="UTF-8" standalone="no"?><!DOCTYPE svg PUBLIC "-//W3C//DTD SVG 1.1//EN" "http://www.w3.org/Graphics/SVG/1.1/DTD/svg11.dtd"><svg width="100%" height="100%" viewBox="0 0 261 66" version="1.1" xmlns="http://www.w3.org/2000/svg" xmlns:xlink="http://www.w3.org/1999/xlink" xml:space="preserve" xmlns:serif="http://www.serif.com/" style="fill-rule:evenodd;clip-rule:evenodd;stroke-linejoin:round;stroke-miterlimit:2;"><g id="_x39_nEqj4_00000147184934841852209240000008450992408147086983_"><path d="M28.94,61.81c3.29,-3.99 3.55,-8.75 2.67,-13.41c-0.92,-4.92 -2.6,-9.7 -4.1,-14.49c-0.74,-2.4 -1.22,-4.75 -0.82,-7.26c0.52,-3.25 2.68,-5.17 5.98,-5.33c1.55,-0.07 3.1,-0.2 4.64,-0.31c0.02,-0.22 0.05,-0.43 0.07,-0.65c-0.53,-0.2 -1.04,-0.48 -1.58,-0.57c-1.07,-0.17 -2.23,-0.06 -3.23,-0.4c-1,-0.35 -2.15,-0.91 -2.71,-1.73c-1.74,-2.56 -3.92,-3.56 -6.91,-2.77c-5.75,1.52 -8.9,5.98 -8.6,12.01c0.26,5.12 2.12,9.58 5.37,13.47c3.24,3.88 4.54,8.15 2.82,13.41c-3.01,-5.3 -7.14,-8.6 -13.72,-8.57c0.22,1.6 0.38,3.05 0.62,4.48c0.36,2.08 0.99,4.14 1.14,6.24c0.24,3.37 -2.22,6.68 -5.7,8c-1.11,0.42 -2.26,0.73 -3.72,1.2l0,-2.06c0,-13.96 -0.01,-27.92 0.01,-41.87c0.05,-10.24 8.9,-19.38 19.15,-20.25c11.6,-0.99 20.42,6.43 22.88,14.89c2.14,7.37 0.41,13.86 -4.43,19.66c-1.97,-1.65 -3.8,-3.19 -5.64,-4.73c-0.18,0.14 -0.35,0.28 -0.53,0.42c6.58,4.65 8.09,10.96 6.17,18.72c-1.62,-3.36 -3.47,-6.25 -6.71,-8.38c0.28,2.63 0.63,4.97 0.77,7.32c0.25,4.18 -0.11,8.27 -2.58,11.86c-0.31,0.45 -0.88,0.72 -1.33,1.07l0.02,0.03Z" style="fill:#8900fe;fill-rule:nonzero;"/><path d="M143.69,40.26c0,2.78 0.13,5.54 -0.02,8.28c-0.39,6.96 -3.56,12.33 -9.53,15.99c-0.33,0.2 -0.7,0.33 -1.28,0.59l0,-3.72c0,-12.81 0.35,-25.63 -0.09,-38.42c-0.49,-14.21 10.75,-22.65 23.19,-21.77c10.13,0.71 18.92,9.22 19.5,18.72c0.76,12.39 -8,20.88 -17.9,22.17c-4.23,0.55 -8.48,0.2 -12.47,-1.61c-0.31,-0.14 -0.64,-0.23 -0.96,-0.34c-0.05,-0.02 -0.12,0.02 -0.44,0.11Zm10.5,-8.23c5.93,0 10.38,-4.41 10.37,-10.26c-0.02,-6.19 -4.46,-10.41 -10.95,-10.41c-5.65,0 -9.89,4.52 -9.91,10.53c0,5.78 4.51,10.14 10.49,10.14Zm65.68,-1.94l-29.67,0c1.6,3.38 4.2,5.18 7.5,5.65c3.98,0.57 7.65,-0.24 10.27,-3.75c0.3,-0.4 1.23,-0.62 1.76,-0.5c3,0.71 5.98,1.55 8.96,2.35c-3.25,8.57 -13.46,13.81 -24.01,11.68c-11.33,-2.29 -18.38,-13.3 -15.96,-24.79c2.32,-11.01 14.43,-18.26 26.13,-15.45c10.58,2.54 17.4,11.79 15.02,24.81Zm-11.17,-9.88c-1.73,-3.86 -6.46,-5.97 -11.23,-5.21c-3.34,0.53 -6.5,2.92 -6.77,5.21l18,0Zm-119.95,9.86l-29.77,0c1.15,2.53 2.93,4.05 5.18,4.99c4.53,1.9 9.24,0.68 12.58,-3.04c0.34,-0.38 1.12,-0.71 1.59,-0.6c3.1,0.74 6.18,1.61 9.28,2.44c-4.09,9.45 -14.74,14.05 -25.23,11.39c-10.71,-2.72 -17.26,-13.6 -14.87,-24.29c2.16,-9.65 11.65,-17.73 24.08,-16.06c10.21,1.37 19.56,9.64 17.16,25.17Zm-29.31,-9.93l18.07,-0c-1.53,-3.6 -5.51,-5.48 -10.63,-5.17c-3.36,0.2 -6.63,2.45 -7.44,5.17Zm69.08,25.1l-10.83,-0l-0,-1.89c-0,-6.6 0.05,-13.21 -0.04,-19.81c-0.023,-1.599 -0.307,-3.183 -0.84,-4.69c-0.98,-2.73 -3.17,-3.94 -6.01,-4.05c-2.71,-0.1 -5.07,1.21 -6.01,3.73c-0.61,1.63 -0.98,3.44 -1.02,5.17c-0.12,6.49 -0.05,12.98 -0.05,19.46l-0,2.03l-10.76,-0c-0.03,-0.59 -0.09,-1.15 -0.09,-1.71c-0.01,-12.34 -0,-24.69 -0.04,-37.03c-0,-1.11 0.28,-1.61 1.42,-1.86c3.07,-0.65 6.11,-1.44 9.33,-2.22c0.09,1.11 0.17,2.1 0.24,2.99c2.57,-0.24 5.05,-0.72 7.52,-0.66c7.12,0.19 12.58,3.3 15.58,9.92c0.88,1.94 1.46,4.17 1.51,6.29c0.19,8.03 0.09,16.07 0.09,24.33Zm96.12,-40.34c3.55,-0.85 7,-1.67 10.66,-2.55c0.07,1.07 0.13,2.06 0.2,3.12c1.93,-0.28 3.76,-0.67 5.61,-0.79c8.17,-0.56 15.22,3.65 17.82,10.71c0.68,1.86 1.18,3.89 1.21,5.85c0.14,7.69 0.07,15.39 0.07,23.08c0,0.27 -0.06,0.55 -0.11,0.91l-10.74,-0l0,-1.9c0,-6.6 0.04,-13.21 -0.03,-19.81c-0.01,-1.41 -0.26,-2.87 -0.68,-4.21c-0.93,-2.95 -3.32,-4.57 -6.37,-4.55c-3.01,0.02 -5.37,1.7 -6.23,4.71c-0.41,1.41 -0.6,2.93 -0.62,4.4c-0.06,6.43 -0.03,12.86 -0.03,19.29l0,2.02l-10.76,-0l0,-40.28Z" style="fill:#fff;fill-rule:nonzero;"/><path d="M28.91,61.77l0,1.05c1.45,0.48 2.85,0.92 4.25,1.41c0.23,0.08 0.4,0.33 0.79,0.67l-8.63,0c1.21,-1.02 2.42,-2.05 3.63,-3.09c-0.01,0 -0.04,-0.04 -0.04,-0.04Z" style="fill:#8900fe;fill-rule:nonzero;"/></g></svg>
