<?xml version="1.0" encoding="UTF-8"?><svg xmlns="http://www.w3.org/2000/svg" xmlns:xlink="http://www.w3.org/1999/xlink" viewBox="0 0 595.28 841.89"><defs><style>.cls-1{fill:none;}.cls-2{fill:url(#_ÂÁ_Ï_ÌÌ_È_ËÂÌÚ_189-3);}.cls-3{fill:url(#_ÂÁ_Ï_ÌÌ_È_ËÂÌÚ_189-2);}.cls-4{opacity:.47;}.cls-4,.cls-5,.cls-6,.cls-7,.cls-8,.cls-9,.cls-10,.cls-11,.cls-12,.cls-13,.cls-14,.cls-15,.cls-16,.cls-17,.cls-18,.cls-19,.cls-20,.cls-21,.cls-22,.cls-23,.cls-24{mix-blend-mode:screen;}.cls-4,.cls-13{fill:#3b7eca;}.cls-5{opacity:.28;}.cls-5,.cls-6,.cls-12{fill:#e09ce0;}.cls-6{opacity:.15;}.cls-25{fill:url(#_ÂÁ_Ï_ÌÌ_È_ËÂÌÚ_16);}.cls-26{fill:url(#_ÂÁ_Ï_ÌÌ_È_ËÂÌÚ_83);}.cls-27{clip-path:url(#clippath);}.cls-28{fill:url(#_ÂÁ_Ï_ÌÌ_È_ËÂÌÚ_28);}.cls-28,.cls-29,.cls-30,.cls-31,.cls-32,.cls-33,.cls-34,.cls-35,.cls-36,.cls-37,.cls-38,.cls-39,.cls-40,.cls-41,.cls-42,.cls-43,.cls-44,.cls-45,.cls-46,.cls-47,.cls-48,.cls-49{mix-blend-mode:multiply;}.cls-28,.cls-36,.cls-37,.cls-50{opacity:.71;}.cls-51,.cls-50{fill:#f4e2f1;}.cls-52,.cls-33{fill:#b4bad8;}.cls-53{fill:#0f2670;}.cls-54{fill:#89a2c1;}.cls-55,.cls-34{fill:#892f49;}.cls-56{fill:#2e0043;}.cls-57{fill:#5d2755;}.cls-58{fill:#390947;}.cls-7{fill:url(#_ÂÁ_Ï_ÌÌ_È_ËÂÌÚ_402-2);}.cls-7,.cls-19{opacity:.69;}.cls-29{fill:url(#_ÂÁ_Ï_ÌÌ_È_ËÂÌÚ_47);opacity:.35;}.cls-8{fill:url(#_ÂÁ_Ï_ÌÌ_È_ËÂÌÚ_154-2);}.cls-8,.cls-17,.cls-18{opacity:.25;}.cls-9{fill:url(#_ÂÁ_Ï_ÌÌ_È_ËÂÌÚ_198-2);}.cls-9,.cls-15,.cls-16{opacity:.38;}.cls-30{fill:#609ad9;}.cls-31{fill:#4c75d9;}.cls-59{clip-path:url(#clippath-1);}.cls-60{clip-path:url(#clippath-2);}.cls-10{fill:url(#_ÂÁ_Ï_ÌÌ_È_ËÂÌÚ_41);opacity:.74;}.cls-32{fill:url(#_ÂÁ_Ï_ÌÌ_È_ËÂÌÚ_76);}.cls-33{opacity:.42;}.cls-34,.cls-42,.cls-49{opacity:.51;}.cls-35{opacity:.85;}.cls-35,.cls-38{fill:#ba92d1;}.cls-36{fill:#5b81b6;}.cls-37{fill:#c960d1;}.cls-38{opacity:.72;}.cls-11{fill:url(#_ÂÁ_Ï_ÌÌ_È_ËÂÌÚ_546);}.cls-12{opacity:.08;}.cls-14{fill:url(#_ÂÁ_Ï_ÌÌ_È_ËÂÌÚ_10);}.cls-61{opacity:.46;}.cls-39{fill:url(#_ÂÁ_Ï_ÌÌ_È_ËÂÌÚ_308-2);}.cls-39,.cls-46{opacity:.43;}.cls-62{opacity:.61;}.cls-40{fill:url(#_ÂÁ_Ï_ÌÌ_È_ËÂÌÚ_395-2);}.cls-40,.cls-41{opacity:.65;}.cls-41{fill:url(#_ÂÁ_Ï_ÌÌ_È_ËÂÌÚ_395-3);}.cls-63{opacity:.56;}.cls-15{fill:url(#_ÂÁ_Ï_ÌÌ_È_ËÂÌÚ_238);}.cls-16{fill:url(#_ÂÁ_Ï_ÌÌ_È_ËÂÌÚ_198);}.cls-17{fill:url(#_ÂÁ_Ï_ÌÌ_È_ËÂÌÚ_154);}.cls-18{fill:url(#_ÂÁ_Ï_ÌÌ_È_ËÂÌÚ_187);}.cls-19{fill:url(#_ÂÁ_Ï_ÌÌ_È_ËÂÌÚ_402);}.cls-64{isolation:isolate;}.cls-20{fill:url(#_ÂÁ_Ï_ÌÌ_È_ËÂÌÚ_215);}.cls-20,.cls-21,.cls-22,.cls-23,.cls-24{opacity:.5;}.cls-21{fill:url(#_ÂÁ_Ï_ÌÌ_È_ËÂÌÚ_212);}.cls-22{fill:url(#_ÂÁ_Ï_ÌÌ_È_ËÂÌÚ_209);}.cls-23{fill:url(#_ÂÁ_Ï_ÌÌ_È_ËÂÌÚ_110);}.cls-24{fill:url(#_ÂÁ_Ï_ÌÌ_È_ËÂÌÚ_316);}.cls-65{fill:url(#_ÂÁ_Ï_ÌÌ_È_ËÂÌÚ_391);}.cls-66{fill:url(#_ÂÁ_Ï_ÌÌ_È_ËÂÌÚ_220);}.cls-67{fill:url(#_ÂÁ_Ï_ÌÌ_È_ËÂÌÚ_189);}.cls-68{fill:url(#_ÂÁ_Ï_ÌÌ_È_ËÂÌÚ_4);}.cls-42{fill:url(#_ÂÁ_Ï_ÌÌ_È_ËÂÌÚ_197);}.cls-43{fill:url(#_ÂÁ_Ï_ÌÌ_È_ËÂÌÚ_202);opacity:.6;}.cls-69{fill:#f46f9f;opacity:.36;}.cls-44{fill:url(#_ÂÁ_Ï_ÌÌ_È_ËÂÌÚ_310);}.cls-44,.cls-45{opacity:.31;}.cls-45{fill:url(#_ÂÁ_Ï_ÌÌ_È_ËÂÌÚ_309);}.cls-46{fill:url(#_ÂÁ_Ï_ÌÌ_È_ËÂÌÚ_308);}.cls-47{fill:url(#_ÂÁ_Ï_ÌÌ_È_ËÂÌÚ_395);}.cls-48{fill:url(#_ÂÁ_Ï_ÌÌ_È_ËÂÌÚ_199);}.cls-49{fill:url(#_ÂÁ_Ï_ÌÌ_È_ËÂÌÚ_16-2);}</style><clipPath id="clippath"><polygon class="cls-1" points="14.4 148.02 24.08 182.79 37.29 189.57 41.32 192.95 44.73 197.63 86.07 196.63 89.73 194.71 91.57 197.63 94.29 195.48 96.31 201.98 140.82 201.98 147.51 195.48 149.62 197.63 169.2 195.04 171.27 191.93 173.48 193.37 186.63 196.83 190 195.48 192.58 190.94 201.6 190.77 211.81 186.8 224.52 157.49 225.13 146.58 14.4 148.02"/></clipPath><linearGradient id="_ÂÁ_Ï_ÌÌ_È_ËÂÌÚ_391" x1="-51.12" y1="191.31" x2="-51.12" y2="123.02" gradientTransform="translate(-102.08 15.86) scale(1 .97) skewX(10.85)" gradientUnits="userSpaceOnUse"><stop offset=".45" stop-color="#bbc8fd"/><stop offset=".63" stop-color="#ccd6fd"/><stop offset=".85" stop-color="#e6ebff"/></linearGradient><linearGradient id="_ÂÁ_Ï_ÌÌ_È_ËÂÌÚ_402" x1="-57.35" y1="191.31" x2="-57.35" y2="149.34" gradientTransform="translate(-102.08 15.86) scale(1 .97) skewX(10.85)" gradientUnits="userSpaceOnUse"><stop offset="0" stop-color="#000"/><stop offset=".2" stop-color="#15414b"/><stop offset=".45" stop-color="#3090a5"/><stop offset=".56" stop-color="#3bb0ca"/><stop offset=".58" stop-color="#37a5be"/><stop offset=".69" stop-color="#246b7b"/><stop offset=".8" stop-color="#143d46"/><stop offset=".88" stop-color="#091b20"/><stop offset=".96" stop-color="#020708"/><stop offset="1" stop-color="#000"/></linearGradient><linearGradient id="_ÂÁ_Ï_ÌÌ_È_ËÂÌÚ_395" x1="-51.11" y1="206.39" x2="-51.11" y2="100.3" gradientTransform="translate(-102.08 15.86) scale(1 .97) skewX(10.85)" gradientUnits="userSpaceOnUse"><stop offset="0" stop-color="#fff"/><stop offset=".41" stop-color="#9ea9d6"/><stop offset=".81" stop-color="#4459b0"/><stop offset="1" stop-color="#2039a1"/></linearGradient><linearGradient id="_ÂÁ_Ï_ÌÌ_È_ËÂÌÚ_395-2" x1="-51.13" y1="204.21" x2="-51.13" y2="113.46" xlink:href="#_ÂÁ_Ï_ÌÌ_È_ËÂÌÚ_395"/><linearGradient id="_ÂÁ_Ï_ÌÌ_È_ËÂÌÚ_546" x1="376.27" y1="141.7" x2="315.74" y2="141.7" gradientTransform="translate(-102.08 15.86) scale(1 .97) skewX(10.85)" gradientUnits="userSpaceOnUse"><stop offset="0" stop-color="#3b7eca"/><stop offset=".32" stop-color="#224975"/><stop offset=".59" stop-color="#0f2136"/><stop offset=".78" stop-color="#04090e"/><stop offset=".88" stop-color="#000"/></linearGradient><linearGradient id="_ÂÁ_Ï_ÌÌ_È_ËÂÌÚ_4" x1="112.6" y1="166.57" x2="128.12" y2="124.79" gradientUnits="userSpaceOnUse"><stop offset="0" stop-color="#bbc8fd"/><stop offset=".46" stop-color="#ccd6fd"/><stop offset="1" stop-color="#e6ebff"/></linearGradient><clipPath id="clippath-1"><path class="cls-31" d="m213.47,143.96c0,1.83-11.04,3.31-24.65,3.31s-24.65-1.48-24.65-3.31,11.04-4.44,24.65-4.44,24.65,2.61,24.65,4.44Z"/></clipPath><linearGradient id="_ÂÁ_Ï_ÌÌ_È_ËÂÌÚ_402-2" x1="190.07" y1="147.49" x2="190.07" y2="139.29" gradientTransform="matrix(1, 0, 0, 1, 0, 0)" xlink:href="#_ÂÁ_Ï_ÌÌ_È_ËÂÌÚ_402"/><linearGradient id="_ÂÁ_Ï_ÌÌ_È_ËÂÌÚ_10" x1="162.55" y1="151.76" x2="214.05" y2="136.91" gradientUnits="userSpaceOnUse"><stop offset=".05" stop-color="#000"/><stop offset=".11" stop-color="#04090e"/><stop offset=".21" stop-color="#0f2136"/><stop offset=".35" stop-color="#224975"/><stop offset=".51" stop-color="#3b7eca"/><stop offset="1" stop-color="#000"/></linearGradient><linearGradient id="_ÂÁ_Ï_ÌÌ_È_ËÂÌÚ_395-3" x1="188.81" y1="147.27" x2="188.81" y2="139.52" gradientTransform="matrix(1, 0, 0, 1, 0, 0)" xlink:href="#_ÂÁ_Ï_ÌÌ_È_ËÂÌÚ_395"/><linearGradient id="_ÂÁ_Ï_ÌÌ_È_ËÂÌÚ_41" x1="14.26" y1="157.12" x2="222.43" y2="157.12" gradientUnits="userSpaceOnUse"><stop offset="0" stop-color="#000"/><stop offset=".42" stop-color="#5ea6fb"/><stop offset=".51" stop-color="#4c86cb"/><stop offset=".69" stop-color="#2b4d75"/><stop offset=".84" stop-color="#142336"/><stop offset=".94" stop-color="#05090e"/><stop offset="1" stop-color="#000"/></linearGradient><linearGradient id="_ÂÁ_Ï_ÌÌ_È_ËÂÌÚ_47" x1="52.73" y1="158.75" x2="203.52" y2="158.75" gradientUnits="userSpaceOnUse"><stop offset="0" stop-color="#fff"/><stop offset=".14" stop-color="#ccdbf5"/><stop offset=".25" stop-color="#abc3ef"/><stop offset=".31" stop-color="#9fbbed"/><stop offset=".65" stop-color="#fff"/><stop offset=".81" stop-color="#ccdbf5"/><stop offset=".93" stop-color="#abc3ef"/><stop offset="1" stop-color="#9fbbed"/></linearGradient><linearGradient id="_ÂÁ_Ï_ÌÌ_È_ËÂÌÚ_28" x1="162.91" y1="141.01" x2="37.29" y2="141.01" gradientUnits="userSpaceOnUse"><stop offset=".12" stop-color="#5b81b6"/><stop offset=".23" stop-color="#678abb"/><stop offset=".43" stop-color="#88a4ca"/><stop offset=".71" stop-color="#becde2"/><stop offset="1" stop-color="#fff"/></linearGradient><linearGradient id="_ÂÁ_Ï_ÌÌ_È_ËÂÌÚ_220" x1="74.23" y1="145.83" x2="140.11" y2="20.34" gradientUnits="userSpaceOnUse"><stop offset=".07" stop-color="#2e0043"/><stop offset=".24" stop-color="#370846"/><stop offset=".52" stop-color="#521e51"/><stop offset=".88" stop-color="#7c4161"/><stop offset="1" stop-color="#8d4f68"/></linearGradient><linearGradient id="_ÂÁ_Ï_ÌÌ_È_ËÂÌÚ_76" x1="109.2" y1="104.48" x2="131.66" y2="91.26" gradientUnits="userSpaceOnUse"><stop offset=".12" stop-color="#fff"/><stop offset=".24" stop-color="#ede2f3"/><stop offset=".48" stop-color="#c8a8da"/><stop offset=".6" stop-color="#ba92d1"/></linearGradient><linearGradient id="_ÂÁ_Ï_ÌÌ_È_ËÂÌÚ_83" x1="102.3" y1="176.98" x2="102.3" y2="36.66" gradientUnits="userSpaceOnUse"><stop offset="0" stop-color="#ba92d1"/><stop offset=".39" stop-color="#cea8d7"/><stop offset="1" stop-color="#f4d3e3"/></linearGradient><linearGradient id="_ÂÁ_Ï_ÌÌ_È_ËÂÌÚ_199" x1="102.53" y1="67.3" x2="102.53" y2="15.93" gradientUnits="userSpaceOnUse"><stop offset="0" stop-color="#fff"/><stop offset=".04" stop-color="#f9f7fb"/><stop offset=".23" stop-color="#e3d2ec"/><stop offset=".42" stop-color="#d1b6e0"/><stop offset=".62" stop-color="#c4a2d7"/><stop offset=".81" stop-color="#bc96d2"/><stop offset="1" stop-color="#ba92d1"/></linearGradient><linearGradient id="_ÂÁ_Ï_ÌÌ_È_ËÂÌÚ_310" x1="117.59" y1="40.02" x2="110" y2="53.72" gradientUnits="userSpaceOnUse"><stop offset="0" stop-color="#6b046d"/><stop offset=".25" stop-color="#9d599f"/><stop offset=".48" stop-color="#c7a0c8"/><stop offset=".66" stop-color="#e5d3e5"/><stop offset=".8" stop-color="#f8f3f8"/><stop offset=".88" stop-color="#fff"/></linearGradient><linearGradient id="_ÂÁ_Ï_ÌÌ_È_ËÂÌÚ_308" x1="110.9" y1="55.54" x2="110.9" y2="46.21" gradientUnits="userSpaceOnUse"><stop offset="0" stop-color="#6b046d"/><stop offset=".08" stop-color="#731275"/><stop offset=".23" stop-color="#8a3a8c"/><stop offset=".43" stop-color="#b079b1"/><stop offset=".68" stop-color="#e3d0e3"/><stop offset=".81" stop-color="#fff"/></linearGradient><linearGradient id="_ÂÁ_Ï_ÌÌ_È_ËÂÌÚ_309" x1="130.61" y1="46.85" x2="125.14" y2="57.02" gradientUnits="userSpaceOnUse"><stop offset="0" stop-color="#6b046d"/><stop offset=".16" stop-color="#88368a"/><stop offset=".52" stop-color="#c7a1c8"/><stop offset=".76" stop-color="#efe4ef"/><stop offset=".88" stop-color="#fff"/></linearGradient><linearGradient id="_ÂÁ_Ï_ÌÌ_È_ËÂÌÚ_308-2" x1="125.66" y1="58.15" x2="125.66" y2="55.09" xlink:href="#_ÂÁ_Ï_ÌÌ_È_ËÂÌÚ_308"/><linearGradient id="_ÂÁ_Ï_ÌÌ_È_ËÂÌÚ_110" x1="-290.7" y1="-741.11" x2="-290.7" y2="-754.19" gradientTransform="translate(-55.36 830.34) rotate(32.44)" gradientUnits="userSpaceOnUse"><stop offset=".19" stop-color="#000"/><stop offset=".27" stop-color="#050405"/><stop offset=".38" stop-color="#160f16"/><stop offset=".51" stop-color="#312231"/><stop offset=".64" stop-color="#583d58"/><stop offset=".79" stop-color="#895f89"/><stop offset=".94" stop-color="#c488c4"/><stop offset="1" stop-color="#e09ce0"/></linearGradient><linearGradient id="_ÂÁ_Ï_ÌÌ_È_ËÂÌÚ_189" x1="168.16" y1="476.6" x2="160.9" y2="483.86" gradientTransform="translate(-160.77 -365.56) rotate(-14.21)" gradientUnits="userSpaceOnUse"><stop offset="0" stop-color="#ffa953"/><stop offset="1" stop-color="#ea524b"/></linearGradient><clipPath id="clippath-2"><path class="cls-1" d="m124.37,113.24c-3.5-12.01-13.14-24.58-13.14-24.58,0,0,2.67-3.27,3.01-6.94.24-2.55-3.16-20.59-3.16-20.59,0,0,16.84,6.39,18.08-4.27,0,0,5.5-7.04,4.19-10.01-1.78-4.04-8.77,2.29-8.77,2.29,0,0,6.67-7.52-1.96-8.57-10.33-1.25-17.25,4.82-17.25,4.82,0,0-1.39-11.49-5.91-13.19-4.51-1.7-9.51,11.36.61,24.27,0,0-6.37-3.23-8.46,2.44-2.09,5.67,1.4,23.2,1.4,23.2,0,0-1.57-5.32-3.36-4.97-1.79.35-.26,33.24,13.22,50.9,0,0-.48-2.31,3.71-.79,4.19,1.53,6.8,6.59.35,7.2-6.46.61-26.43-6.41-35.85-26.43,0,0,.13,7.46,5.76,15.18,0,0,8.28,4.01,13.74,8.37,9.94,7.94,7.76,25.31,16.33,19.46,0,0,.56-.3,1.17-.62,1.03-.55,2.01-1.19,2.92-1.93.12-.1.23-.18.31-.24,2.28-1.68,4.61-3.79,6.76-6.46.76-.95,1.5-1.8,2.23-2.56,3.19-4.69,5.22-10.48,5.36-17.85.05-2.55-.43-5.29-1.23-8.06l-.02-.07Z"/></clipPath><linearGradient id="_ÂÁ_Ï_ÌÌ_È_ËÂÌÚ_316" x1="104.26" y1="-13.89" x2="106.98" y2="-22.72" gradientTransform="translate(19.91 73.01) rotate(2.7)" gradientUnits="userSpaceOnUse"><stop offset=".19" stop-color="#000"/><stop offset=".33" stop-color="#2c1e2c"/><stop offset=".66" stop-color="#8c618c"/><stop offset=".89" stop-color="#c88bc8"/><stop offset="1" stop-color="#e09ce0"/></linearGradient><linearGradient id="_ÂÁ_Ï_ÌÌ_È_ËÂÌÚ_202" x1="119.56" y1="75.71" x2="51.34" y2="143.93" gradientUnits="userSpaceOnUse"><stop offset=".09" stop-color="#fff"/><stop offset=".25" stop-color="#ede2f3"/><stop offset=".6" stop-color="#c8a8da"/><stop offset=".77" stop-color="#ba92d1"/></linearGradient><linearGradient id="_ÂÁ_Ï_ÌÌ_È_ËÂÌÚ_16" x1="102.85" y1="117.59" x2="188.19" y2="117.59" gradientUnits="userSpaceOnUse"><stop offset="0" stop-color="#892f49"/><stop offset=".45" stop-color="#973b4c"/><stop offset="1" stop-color="#b05052"/></linearGradient><linearGradient id="_ÂÁ_Ï_ÌÌ_È_ËÂÌÚ_16-2" y1="119.68" x2="188.19" y2="119.68" xlink:href="#_ÂÁ_Ï_ÌÌ_È_ËÂÌÚ_16"/><linearGradient id="_ÂÁ_Ï_ÌÌ_È_ËÂÌÚ_189-2" x1="37.28" y1="163.65" x2="37.28" y2="138.79" gradientTransform="translate(87.77 -8.56) scale(1 1.02) skewX(-9.37)" xlink:href="#_ÂÁ_Ï_ÌÌ_È_ËÂÌÚ_189"/><linearGradient id="_ÂÁ_Ï_ÌÌ_È_ËÂÌÚ_189-3" x1="150.33" y1="135.59" x2="150.33" y2="118.5" gradientTransform="matrix(1, 0, 0, 1, 0, 0)" xlink:href="#_ÂÁ_Ï_ÌÌ_È_ËÂÌÚ_189"/><linearGradient id="_ÂÁ_Ï_ÌÌ_È_ËÂÌÚ_154" x1="439.98" y1="-850.38" x2="414.58" y2="-850.38" gradientTransform="translate(-678.92 536.04) rotate(31.35)" gradientUnits="userSpaceOnUse"><stop offset="0" stop-color="#e09ce0"/><stop offset=".08" stop-color="#c488c4"/><stop offset=".26" stop-color="#895f89"/><stop offset=".44" stop-color="#583d58"/><stop offset=".61" stop-color="#312231"/><stop offset=".76" stop-color="#160f16"/><stop offset=".9" stop-color="#050405"/><stop offset="1" stop-color="#000"/></linearGradient><linearGradient id="_ÂÁ_Ï_ÌÌ_È_ËÂÌÚ_197" x1="107.96" y1="61.76" x2="119.73" y2="61.76" gradientUnits="userSpaceOnUse"><stop offset=".33" stop-color="#ba92d1"/><stop offset="1" stop-color="#c960d1"/></linearGradient><linearGradient id="_ÂÁ_Ï_ÌÌ_È_ËÂÌÚ_212" x1="-1039.41" y1="-1175.65" x2="-1033.71" y2="-1175.65" gradientTransform="translate(-375.6 1546.84) rotate(59.82)" gradientUnits="userSpaceOnUse"><stop offset=".19" stop-color="#000"/><stop offset=".27" stop-color="#050502"/><stop offset=".38" stop-color="#16160a"/><stop offset=".5" stop-color="#303117"/><stop offset=".64" stop-color="#565828"/><stop offset=".78" stop-color="#86893f"/><stop offset=".93" stop-color="#c0c45a"/><stop offset="1" stop-color="#e0e56a"/></linearGradient><linearGradient id="_ÂÁ_Ï_ÌÌ_È_ËÂÌÚ_154-2" x1="90.18" y1="159.06" x2="90.18" y2="118.93" gradientTransform="translate(-7.56 -36.91) rotate(-1.32)" xlink:href="#_ÂÁ_Ï_ÌÌ_È_ËÂÌÚ_154"/><linearGradient id="_ÂÁ_Ï_ÌÌ_È_ËÂÌÚ_238" x1="90.68" y1="92.98" x2="73.88" y2="92.98" gradientUnits="userSpaceOnUse"><stop offset="0" stop-color="#9c3be0"/><stop offset=".08" stop-color="#8833c4"/><stop offset=".26" stop-color="#5f2489"/><stop offset=".44" stop-color="#3d1758"/><stop offset=".61" stop-color="#220d31"/><stop offset=".76" stop-color="#0f0516"/><stop offset=".9" stop-color="#040105"/><stop offset="1" stop-color="#000"/></linearGradient><linearGradient id="_ÂÁ_Ï_ÌÌ_È_ËÂÌÚ_209" x1="102.34" y1="85.04" x2="102.34" y2="77.24" gradientUnits="userSpaceOnUse"><stop offset="0" stop-color="#e09ce0"/><stop offset=".41" stop-color="#855d85"/><stop offset="1" stop-color="#000"/></linearGradient><linearGradient id="_ÂÁ_Ï_ÌÌ_È_ËÂÌÚ_215" x1="104.46" y1="98.97" x2="104.46" y2="87.7" gradientUnits="userSpaceOnUse"><stop offset="0" stop-color="#000"/><stop offset=".59" stop-color="#855d85"/><stop offset="1" stop-color="#e09ce0"/></linearGradient><linearGradient id="_ÂÁ_Ï_ÌÌ_È_ËÂÌÚ_187" x1="118.33" y1="95.89" x2="131.99" y2="95.89" gradientUnits="userSpaceOnUse"><stop offset="0" stop-color="#000"/><stop offset=".1" stop-color="#050405"/><stop offset=".24" stop-color="#160f16"/><stop offset=".39" stop-color="#312231"/><stop offset=".56" stop-color="#583d58"/><stop offset=".74" stop-color="#895f89"/><stop offset=".92" stop-color="#c488c4"/><stop offset="1" stop-color="#e09ce0"/></linearGradient><linearGradient id="_ÂÁ_Ï_ÌÌ_È_ËÂÌÚ_198" x1="116.79" y1="85.62" x2="121.37" y2="85.62" gradientUnits="userSpaceOnUse"><stop offset="0" stop-color="#000"/><stop offset=".1" stop-color="#040105"/><stop offset=".24" stop-color="#0f0516"/><stop offset=".39" stop-color="#220d31"/><stop offset=".56" stop-color="#3d1758"/><stop offset=".74" stop-color="#5f2489"/><stop offset=".92" stop-color="#8833c4"/><stop offset="1" stop-color="#9c3be0"/></linearGradient><linearGradient id="_ÂÁ_Ï_ÌÌ_È_ËÂÌÚ_198-2" x1="98.56" y1="27.16" x2="138.56" y2="27.16" xlink:href="#_ÂÁ_Ï_ÌÌ_È_ËÂÌÚ_198"/></defs><g class="cls-64"><g id="katman_1"><g><g><g class="cls-27"><path class="cls-65" d="m-556.22,151.78s24.94,7.04,77.37-4.07c52.43-11.11,144.86-12.53,144.86-12.53l1.93,2.41c1.93,2.41,6.47.37,6.47.37,0,0,70.88,7.16,107.4,9.57,36.52,2.41,63.48,5.49,115.44-.19,51.96-5.68,82.75-4.8,82.75-4.8l2.69,1.84s54.56,5.43,68.7,6.42c0,0-6.72,3.21,40.45,2.72,47.18-.49,134.21-5.19,159.79-5.19l4.32,2.22s39.68-.43,47.52,1.23l9.86,49.63h-859.69l-9.86-49.63Z"/><path class="cls-30" d="m-554.21,161.9s26.78,5.06,57.98,10.99l-3.37-2.35s103.78-10.12,155.51-11.11c51.73-.99,110.44,0,110.44,0l5.82,3.95s74.84,2.22,89.28,2.72l-59.66-13.58,74.58,13.09S-22.93,132.97-2.88,132.47c20.05-.49,59.78,25.55,95.26,34.44l-31.14-9.46,39.36,10.87s53.4-12.35,71.99-14.32c18.6-1.98,28.66-.83,28.66-.83,0,0,.84-19.58,26.04-13.65,0,0,60.01,18.68,78.19,22.38l7.85,39.51h-859.69l-7.85-39.51Z"/><g class="cls-63"><path class="cls-19" d="m297.5,200.9c.16-1.54,1.46-6.03,1.46-6.03-1.8-.4-23.66-10.84-26.55-12.23l19.3,2.39-27.25-4.46-.23,1.6c0,.06-.07.11-.16.13-.09.02-.2,0-.28-.03l-11.14-5.53-2.02,1.58s-.08.04-.13.05l-11.64,1.85c-.1.02-.21,0-.29-.06l-15.92-10.18-5.68.61c-.09,0-.19-.01-.27-.06l-5.97-3.62,6.04,5.24,5.47-1.54c.11-.03.24,0,.33.05l15.74,10s.08.07.09.11l.63,2.22c.02.07-.02.13-.1.17-.08.03-.2.03-.29,0l-17.04-6-10.58,3.17c-.1.03-.23.02-.33-.04l-16.01-9.38c-.07-.04-.11-.09-.11-.15,0-.05.04-.1.1-.13l7.05-3.23-9.72,3.06-9.05,1.67,9.05-1.29c.09-.01.19,0,.27.05l4.8,2.6c1.22.66-4.67,10.57-4.67,10.57l-8.1,3.34-16.54-4.75s-11.03,10.56-12.8,10.3c0,0-34.28-5.06-34.28-5.06-.09-.01-.16-.05-.21-.1l-7.33-7.66c-.08-.09-.05-.19.06-.24l17.03-6.91s.11-.02.15-.02l12.86.32c-6.11-.34-13.13-.74-17.15-.98.67.16,1.17.29,1.22.3.1.03.18.09.2.15.02.07-.02.13-.1.17l-18.73,7.8,6.91,5.4c.08.06.1.15.04.21-.06.06-.18.09-.3.07l-13.7-2.66c-.08-.01-.14-.05-.18-.09l-11.04-10.79-4.69-.29s-.08,0-.11-.02l-6.15-1.97,7.08,2.69c1.12.66-1.24,5.35-1.24,5.35,0,0,.03,2.88-.88,3.47l-5.02-2.96-20.15,4.04s-.07.01-.1,0l-14.66-.74h-9.64c-.05,0-.11,0-.16-.03l-9.28-3.52-52.85-4.19,1.1,1.05c.06.06.07.13.03.18-.04.05-.11.08-.23.09l-10.29-.12s-.05,0-.07,0l-3.51-.6s-32.51-5.53-32.51-5.53l17.1,4.55,13.45,1.39c.08.02.18.04.29.07,2.12.43-25.5.37-25.5.37,0,0-8.16,4.87-16.29,7.03l-6.71-14.1c-.03-.06,0-.12.06-.16.06-.04.16-.06.26-.04l11.91,2.02-20.19-4.39,7.2,3.26c.07.03.12.08.13.13l5.76,16.37,11.62,8.97c.09.07.1.17.02.23-.08.06-.23.07-.35.03l-12.28-4.51-1.04-.54c-.08.06-.23.08-.35.03l-36.06-13.24-.18,1.84c0,.05-.05.1-.12.13-.07.03-.16.03-.24,0l-1.13-.28c-.09-.02-.17-.07-.2-.13l-3.48-6.83c-.03-.06-.01-.13.05-.17.07-.04.17-.06.26-.04l5.57.98s.08.02.11.04l28.6,13.96-28.63-14.87-21.99-2.97,14.62,2.57c.1.02.19.07.23.13l3.92,6.81c.04.07.02.14-.06.18-.07.04-.18.06-.29.03l-5.63-1.41-.19,1.63c0,.08-.09.13-.21.14l-9.52.86c-.09,0-.18-.01-.26-.05l-20.55-12.11-22.27-1.58,20.13,2.58s.1.02.14.04l4.22,2.13c.73.37.65,1.06-15.89,6.66l-29.29-4.82,28.89,5s-12.83,5.05-24.7,7.41l-18.06-17.35-6.42-2.38s-.05-.02-.07-.03l-7.32-4.65-.42,5.18c0,.07-.07.12-.16.14-.1.02-.21,0-.29-.04l-4.58-2.51,10.13,8.45s.04.03.05.05l2.83,4.76-2.13-5.92-1.47-.88c-3.01-1.78-4.45-2.85-4.26-3.17.17-.3,1.29-3.38,1.7-4.55.02-.06.1-.11.2-.12.01,0,.03,0,.04,0,.09,0,.18.03.24.07l7.05,5.25,4.47,3.61,6.34,6.71s3.36,7.04,1.18,5.94c0,0-6.89-4.18-6.89-4.18l1.58,3.74c.02.05,0,.1-.04.14-.04.04-.12.06-.2.06l-9.08.12c-.09,0-.21-.03-.27-.09l-4.76-4.27-8.96,4.33c-.06.03-.13.04-.21.03l-58.36-6.6,7.51,1.56c.13.03.23.1.23.19s-.08.15-.21.16l-10.65.99c-.09,0-.18-.01-.25-.05l-10.45-6.02-6.64,2.23c-.09.03-.2.02-.29-.01s-.15-.1-.16-.17l-.24-3.46-1.07,1.95s-.08.08-.16.1c-.08.01-.16,0-.24-.02l-7.36-2.8-7.16.85c-.06,0-.13,0-.19-.02l-26.54-8.77,21.89,9.65,11.51-.98c.09,0,.2.02.27.07l8.18,5.71,9.7-1.94c.1-.02.22,0,.3.05l6.38,3.83c.06.04.1.08.1.13,0,.05-.02.09-.07.13l-12.72,8.15c-.1.07-.29.06-.4-.01l-8.24-5.09-26.08,7.24c-.07.02-.15.02-.23,0-.08-.02-.14-.06-.17-.11l-2.94-4.28-21.44,8.21c-.09.04-.22.03-.32-.02l-7.36-3.34,3.02,1.97c.07.05.11.11.09.17-.02.06-.08.11-.18.12l-24.93,4.2c-.05,0-.11,0-.16,0l-5.43-1.15c-2.2-1.04-4.61-6.34-4.61-6.34-4.34-5.52-4.91-7.44-4.99-7.87,6.9-.9,15.14-1.88,15.14-1.88h-2.18l5.58-4.85-1.29-2.35s.63,1.83.7,2.31c.07.48-4.17,4.53-7.21,5.15-3.04.63-21.53,2.81-21.53,2.81,0,0,.52.4-1.32,2.87-1.83,2.47-3.01,4.59-4.04,4.12,0,0-9.2-4.19-9.2-4.19l-.28.87c-.03.08-.13.14-.26.12l-41.65-1.66,5.69,1.44c.13.03.22.12.21.2,0,.08-.11.15-.25.15,0,0-35.68-.12-35.68-.12l-19.87-1.52-8.33,4.86,6.78-3.18s.1-.02.14-.02l63.07.49,24.22,3.55-15.88-3.08c-.14-.03-.24-.11-.24-.2s.11-.15.25-.15c0,0,21.15.12,21.15.12.04,0,.09,0,.13.02l8.24,2.47,26.67,10.02-13.97-6.02c-.11-.06-.16-.15-.11-.23.05-.08.18-.11.32-.08l20.74,3.95s.08.02.11.04l1.41.72-.12-.58c-.02-.08.06-.16.18-.18l24.02-3.95c.06-.01.15,0,.21.02l2.79.95,22.54-4.6c.08-.01.18,0,.26.03l2.27.98,22.85-6.14c.07-.02.16-.02.24,0l11.09,3.57,5.9-2.02c3.91-.61,14.79,1.07,14.79,1.07l1.91,1.57s24.14-9.04,26.69-8.76l18.91,2.1c2.7.79-17.1,6.99-17.1,6.99,1.94.99,12.2,11.42,12.2,11.42h2.94c-6.45-1.73-13.64-11.16-13.64-11.16,0,0,16.67-7.14,18.58-6.93l6.04.67,9.5-2.39c.11-.03.23,0,.32.05l4.66,2.89,9.37-.35c.08,0,.15.01.21.04l8.53,4.08c2.32,1.11,8.95,13.09,8.95,13.09h.68s-2.11-2.84-2.61-5.59c0,0-3.46-3.46-5.46-6.76l17.97,8.61-19.64-11.94c-2.41-1.91-4.33-8.12-4.33-8.12,0,0-4.1-3.96-5.17-5.45l22.39,18.1-4.15-3.99c-.51-.49,24.2-8.33,24.2-8.33,0,0,29.96.51,31.94,1.19l2.9,1.47,12.03-1.7s.04,0,.06,0c.03,0,.07,0,.1.01l4.83,1.13,15.01,4.78c1.49.47,4.77,7.28,4.77,7.28l-19.53,6.54s19.83-6.48,22.18-6.36l-2.24-.56s-5.02-6.86-2.75-6.14l35.96,11.44-.9-.89c-.54-.53,18.02-5.61,18.02-5.61,0,0,18.81,5.46,21.6,7.78,0,0,27.33-13.1,29.39-12.64.44.1.64.11.73.08l27.96,7.68,10.83-4.64c.09-.04.21-.03.31,0l8.05,3.2,21.43,2.54-21.37-3.57s-.07-.02-.1-.03l-8.58-3.75-4.67,2.66c-.09.05-.23.05-.35,0l-25.88-11.34c-.11-.05-.17-.13-.14-.21.03-.08.14-.13.26-.12l20.16.86c.06,0,.12.02.17.04l9.68,4.73,9.12-.49,14.99.12,21.03-2.16c.08,0,.15,0,.22.03l7.74,3.35s.05.03.08.05l9.9,7.92,9.75-2.39c.05-.01.12-.01.17,0l8.28,1.44-9.76-2.67-8.26,2.68c-.11.04-.27.01-.36-.06l-10.03-7.32-2.96-1.74c-1.11-1.1,2.63-8.8,3.15-8.6l1.9.72s.07.04.1.06l10.55,9.29,16.58,3.61,52.77,8.12,4.95-3.75c.07-.05.19-.07.31-.04l7.64,1.93-11.04-3.5-2.65,4.53c-.04.08-.18.11-.3.1l-11.33-1.67c-1.35-.7,9.26-10.12,10-10.25.74-.14,16.71,4.65,16.71,4.65,8.02-4.01,7.86-2.53,7.86-2.53,0,0,4.77-10.97,6.67-10.65l11.51,6.23,10.51-1.79c.07,0,.15,0,.22.02l32.17,11.05,3.05-.83c.09-.03.2-.01.29.03l5.8,2.73,33.91,9.39h4.27l-3.34-.51Zm-733.94-9.44s-.06-.02-.09-.03l-1.18-.54s4.25-6.86,5.79-7.38c.58-.2,4.13-.7,8.35-1.25,0,0,9.77,13.97,8.9,13.79l-21.77-4.59Zm140.58-2.39c-1.6-.03-1.44-1.39-1.44-1.39,0,0-14.92-.77-13.52-1.48.05-.03.06-.04.11-.06l21.5-7.35c.05-.02.11-.02.17-.02l4.15.46,3.59,4.65s-12.96,5.22-14.57,5.19Zm14.97-5.34c-1.34-.99-3.2-4.07-3.42-4.44l11.56,1.29c2.18.49-8.14,3.15-8.14,3.15Zm105.38-6.11s14.73-6,16.03-6.01l13.96,7.05s-23.1-.72-29.99-1.04Zm146.55,18.29c-1.41,2.04-4.02,1.71-4.02,1.71,0,0-16.06-6.62-21.5-7.64,0,0-7.95,3.59-18.62,5.25l-9.44-9.28s-.03-.03-.04-.05l-.51-1.08c-.76-1.59,16.56-8.33,16.56-8.33,0,0,26.55-.42,29.66-.18.02,0,.05,0,.07.01l15.56,4.27-7.54,3.42-.39,6.81s1.62,3.06.21,5.09Zm1.01-.42s-2.03-10.6.09-11.62c1.69-.81,5.57-2.49,7.11-3.15l15.12,4.15c.82.53-11.75,6.73-22.31,10.62Zm58.62-5.33c.02.06,0,.12-.07.16l-4.56,2.59s-.11.04-.17.04c-.04,0-.09,0-.13-.02l-53.32-15.8c-.13-.04-.21-.13-.19-.21.02-.08.11-.16.27-.13l17.53.75s.08,0,.12.02l40.35,12.46c.09.03.16.08.18.14Zm-5.07-2.35c.13.06.18.16.11.24-.04.05-.13.08-.22.08-.05,0-.09,0-.14-.02l-31.49-10.08c-.13-.04-.2-.13-.18-.21.02-.08.12-.14.27-.13l10.2.43c.06,0,.11.02.16.04l21.3,9.64Zm247.23-4.49c.73-.04,25.3,11.79,25.3,11.79,0,2.84-1.51,4.84-2.01,5.42l-7.46-1.95s-16.57-15.22-15.84-15.26Zm-10.29,8.43c-.05-.01-.1-.03-.13-.06l-5.81-4.46-2.96,1.68c-.08.05-.2.05-.3.02l-13.57-4.15c-.14-.04-.22-.14-.18-.23l1.9-4.07c.02-.05.09-.09.17-.1l11.98-2.1c.08-.01.18,0,.25.03l9.96,4.4,2.9-.73s.11-.01.16,0l4.27.53s16.88,15.94,16.03,15.72c0,0-24.65-6.45-24.65-6.45Z"/></g><path class="cls-47" d="m305.48,161.9c-18.17-3.7-81.46-20.11-81.46-20.11-25.2-5.93-22.51,9.42-22.51,9.42,0,0-6.27,9.41-24.86,11.38-18.6,1.98-76.05,5.73-76.05,5.73l-39.36-10.87,33.09,11.48c-35.48-8.89-77.03-36.96-97.08-36.47-20.05.49-120.88,33.13-120.88,33.13l-74.58-13.09,59.66,13.58c-14.44-.49-89.28-2.72-89.28-2.72l-5.82-3.95s-58.71-.99-110.44,0c-51.73.99-155.51,11.11-155.51,11.11l3.37,2.35c-31.21-5.93-57.98-10.99-57.98-10.99l7.85,39.51h10.81l15.91-28.4h3.88l16.62,1.73,5.3,26.67h38.09l26.63-33.12,12.79-1.94,88.73-1.98-49.34,37.04h6.98l49.34-37.04h19.38l-41.63,30.37,15.55.25,41.83-29.38,41.41-.25,3.3,2.93-2.25,33.12h17.86l-4.46-31.61,4.58-2.28,79.41,1.79,10.96,32.1h5.96l5.94-31.61,67.75-4.69,16.77,4.44,6.33,31.85H25.64l-4.05-41.98,9.64,8.86,8.52,33.12h5.04l-.53-33.89,46.71,3.03-5.8,30.87h10.76l8.41-29.88,50.18-.99,11.14,1.48,5.84,29.38h21.32l-.77-33.12,18.1-7.14,4.45,2.88-4.97,37.38h8.09l5.62-35.56,20.63-1.48,7.99,3.15,2.34,33.89h6.93l5.22-37.04h29.64l4.98,3.15,2.35,33.89h9.91l-7.85-39.51Z"/><polygon class="cls-4" points="214.6 164.03 210.15 161.15 197.58 166.11 203.7 201.41 209.76 200.41 214.6 164.03"/><polygon class="cls-4" points="251.96 167.52 243.97 164.37 241.53 164.55 238.07 201.41 246.34 201.41 252.21 171.11 251.96 167.52"/><path class="cls-40" d="m225.2,146.87c-25.2-5.93-23.03,6.43-23.03,6.43,0,0-6.92,7.32-25.52,9.29-18.6,1.98-76.05,5.73-76.05,5.73l-39.36-10.87,33.09,11.48c-35.48-8.89-84.88-26.99-104.93-26.5-20.05.49-113.03,23.16-113.03,23.16l-74.58-13.09,59.66,13.58c-14.44-.49-89.28-2.72-89.28-2.72l-5.82-3.95s-58.71-.99-110.44,0c-51.73.99-155.51,11.11-155.51,11.11l3.37,2.35c-31.21-5.93-57.98-10.99-57.98-10.99l2.86,14.38,15.92-4.69-2.24,29.82h2.12l15.91-28.4h3.88l16.62,1.73,5.3,26.67h3.58l3.99-26.02,34.22-2.59-11.78,28.61h.84l14.24-28.8,2.22.19-12.76,28.61h3.55l26.63-33.12,12.79-1.94,88.73-1.98-49.34,37.04h6.98l49.34-37.04h19.38l-41.63,30.37,4.65.07,37.6-27.3-28.56,27.44,1.86.03,41.83-29.38,41.41-.25,3.3,2.93-2.25,33.12h2.75l2.46-32.13,4.71.28,5.77,31.85h2.17l-4.46-31.61,4.58-2.28,79.41,1.79,10.96,32.1h1.44l-7.53-30.65,8.83-.28,2.6,30.93h.62l5.94-31.61,67.75-4.69,16.77,4.44,6.33,31.85h3.67l-1.07-32.28,32.62-3.28-2.69,35.56h2.74l5.03-35.56,6.96.65,1.72,34.91h8.59l-4.05-41.98,9.64,8.86,8.52,33.12h5.04l-.53-33.89,46.71,3.03-5.8,30.87h2.43l7.29-22.87-.8,22.87h1.85l8.41-29.88,50.18-.99,11.14,1.48,5.84,29.38h2.49l-1.93-30.13,7.56-.74,12.85,30.87h.36l-.77-33.12,18.1-7.14,4.45,2.88-4.97,37.38h8.09l5.62-35.56,20.63-1.48,7.99,3.15,2.34,33.89h1.96l1.09-27.96,2.26,27.96h1.61l5.22-37.04h29.64l4.98,3.15,2.35,33.89h3.45l1.4-25.46-2.79-14.05c-18.17-3.7-80.28-15.03-80.28-15.03Z"/><path class="cls-13" d="m233.19,161.16c19.18-.8,58.73-2.03,72.3.74l-.45-2.25c-48.94-.58-64.89.64-71.85,1.51Z"/><path class="cls-11" d="m253.64,151.08c11.76.29,36.05-1.16,46.31.76,7.22,1.35-19.66,3.92-35.65,3.92s-38.27-5.36-10.67-4.68Z"/><polygon class="cls-4" points="186.63 196.83 176.01 170.89 179.61 170.54 190 195.48 186.63 196.83"/><polygon class="cls-4" points="155.69 196.83 155.06 170.54 165.67 172.02 169.2 195.04 155.69 196.83"/><polygon class="cls-4" points="147.51 195.48 144.73 170.54 138.03 170.87 140.43 201.98 147.51 195.48"/><polygon class="cls-4" points="86.07 196.63 86.07 170.23 74.06 169.45 69.49 197.03 86.07 196.63"/></g><g><path class="cls-68" d="m225.51,147.04c0,12.3-47.53,22.44-105.77,22.44s-105.47-10.31-105.47-22.61,47.22-22.27,105.47-22.27,105.77,10.14,105.77,22.44Z"/><g class="cls-61"><path class="cls-31" d="m213.47,143.96c0,1.83-11.04,3.31-24.65,3.31s-24.65-1.48-24.65-3.31,11.04-4.44,24.65-4.44,24.65,2.61,24.65,4.44Z"/><g class="cls-59"><path class="cls-7" d="m275.04,147.39c.09-.31.54-1.21.54-1.21-.35-.08-4.35-2.18-4.88-2.46l3.81.48-5.33-.9-.11.32s-.02.02-.04.03c-.02,0-.04,0-.06,0l-2.03-1.11-.47.32s-2.46.38-2.46.38c-.02,0-.04,0-.06-.01l-2.81-2.05-1.17.12s-.04,0-.05-.01l-1.06-.73,1.01,1.06,1.17-.31s.05,0,.07,0l2.78,2.01s.05.47.05.47c0,.01,0,.03-.03.03-.02,0-.04,0-.06,0l-3.2-1.21-2.27.64s-.05,0-.06,0l-2.86-1.89c0-.06,1.57-.71,1.57-.71l-2.09.62-1.9.34,1.88-.26s.04,0,.05,0l.87.52c.22.13-1.37,2.13-1.37,2.13l-1.77.67-3.15-.96s-2.65,2.13-3,2.07c0,0-6.73-1.02-6.73-1.02-.02,0-.03,0-.04-.02l-1.18-1.54s0-.04.02-.05l3.72-1.39s2.62.06,2.62.06c-1.22-.07-2.62-.15-3.43-.2.13.03.23.06.23.06.02,0,.03.02.03.03,0,.01,0,.03-.03.03l-4.1,1.57,1.18,1.09s.01.03,0,.04c-.01.01-.04.02-.06.01l-2.66-.53s-1.83-2.19-1.83-2.19l-.94-.06s-1.19-.4-1.19-.4l1.32.54c.2.13-.47,1.08-.47,1.08,0,0-.11.58-.32.7l-.9-.6-4.24.81s-2.96-.15-2.96-.15h-1.95s-1.77-.71-1.77-.71l-10.52-.84.18.21s0,.03,0,.04c-.01.01-.03.02-.05.02l-2.08-.02s-.7-.12-.7-.12c0,0-6.35-1.11-6.35-1.11l3.27.92,2.66.28s.03,0,.06.01c.41.09-5.17.07-5.17.07,0,0-1.84.98-3.58,1.42l-.79-2.84s0-.02.02-.03c.01,0,.04-.01.05,0l2.33.41-3.91-.88,1.33.66s.53,3.32.53,3.32l1.99,1.81s.01.03,0,.05c-.02.01-.05.01-.07,0l-2.3-.91-.19-.11s-.05.02-.07,0l-6.76-2.66-.11.37s-.01.02-.03.03c-.02,0-.03,0-.05,0l-.22-.06s-.03-.01-.03-.03l-.43-1.38s0-.03.02-.03c.02,0,.04-.01.05,0l1.09.2s5.24,2.82,5.24,2.82l-5.19-2.99-4.33-.6,2.85.52s.04.01.04.03l.52,1.37s0,.03-.02.04c-.02,0-.04.01-.06,0l-1.08-.28-.1.33s-.02.03-.05.03l-1.96.17s-.04,0-.05-.01l-3.67-2.44-4.44-.32,3.97.52s.79.44.79.44c.13.07.09.21-3.48,1.34l-5.73-.97,5.64,1.01s-2.8,1.02-5.29,1.49l-2.95-3.49-1.2-.48s-1.3-.94-1.3-.94l-.29,1.04s-.02.02-.04.03c-.02,0-.04,0-.06,0l-.82-.51,1.71,1.7s.39.97.39.97l-.19-1.19-.26-.18c-.54-.36-.78-.57-.73-.64.05-.06.4-.68.53-.92,0-.01.02-.02.05-.02.03,0,.04,0,.05.01l1.21,1.06.76.73,1.01,1.35s.4,1.42,0,1.2c0,0-1.22-.84-1.22-.84l.17.75s-.04.04-.06.04l-1.84.02s-.04,0-.05-.02l-.79-.86-1.99.87s-.03,0-.04,0l-11.53-1.33,1.46.31s.04.02.04.04c0,.02-.02.03-.05.03l-2.19.2s-.04,0-.05-.01l-1.87-1.21-1.43.45s-.04,0-.06,0-.03-.02-.02-.03l.09-.7-.3.39s-.02.02-.04.02c-.02,0-.03,0-.05,0l-1.38-.56-1.48.17s-5.05-1.77-5.05-1.77l4.04,1.94,2.37-.2s.04,0,.05.01l1.42,1.15,2.04-.39s.04,0,.06.01l1.14.77c0,.05-2.9,1.69-2.9,1.69-.02.01-.06.01-.08,0l-1.46-1.02-5.56,1.46s-.03,0-.05,0c-.03-.02-.45-.88-.45-.88l-4.66,1.65s-.05,0-.06,0l-1.35-.67.53.4s.02.02.01.03c0,.01-.02.02-.04.02l-5.21.85s-1.09-.23-1.09-.23c-.4-.21-.68-1.28-.68-1.28-.65-1.11-.69-1.5-.69-1.59,1.43-.18,3.14-.38,3.14-.38h-.44l1.32-.98-.17-.47s.05.37.05.47c0,.1-1.02.91-1.66,1.04-.64.13-4.47.57-4.47.57,0,0,.09.08-.38.58-.47.5-.79.92-.98.83,0,0-1.69-.84-1.69-.84l-.09.17s-.03.03-.06.02l-8.35-.33,1.09.29s.04.02.03.04c0,.02-.03.03-.06.03,0,0-7.21-.02-7.21-.02l-3.96-.31-1.88.98,1.5-.64s12.76.09,12.76.09l4.75.72-3.09-.62s-.04-.02-.04-.04c0-.02.03-.03.06-.03,0,0,4.27.02,4.27.02.03,0,1.59.5,1.59.5l4.99,2.02-2.58-1.21s-.03-.03-.01-.05c.01-.02.04-.02.07-.02l4.03.8s.28.15.28.15v-.12s.02-.03.04-.04l5.01-.8s.03,0,.04,0l.53.19,4.74-.93s.04,0,.05,0l.42.2,4.87-1.24s.03,0,.05,0l2.1.72,1.27-.41c.81-.12,2.95.22,2.95.22l.32.32s5.24-1.82,5.75-1.76l3.74.42c.51.16-3.74,1.41-3.74,1.41.35.2,2.01,2.3,2.01,2.3h.6c-1.23-.35-2.31-2.25-2.31-2.25,0,0,3.66-1.44,4.03-1.39l1.19.14,2.02-.48s.05,0,.06,0l.83.58,1.91-.07s.03,0,.04,0l1.56.82c.43.22,1.28,2.64,1.28,2.64h.14s-.31-.57-.3-1.12c0,0-.56-.7-.83-1.36l3.29,1.73-3.49-2.4c-.41-.38-.55-1.64-.55-1.64,0,0-.67-.8-.83-1.1l3.8,3.64-.68-.8c-.08-.1,5.23-1.68,5.23-1.68,0,0,6.04.1,6.41.24l.53.29,2.5-.34s.96.23.96.23l2.84.96c.28.1.67,1.47.67,1.47l-4.21,1.32s4.27-1.31,4.74-1.28l-.43-.11s-.74-1.38-.31-1.24l6.81,2.3-.15-.18c-.09-.11,3.87-1.13,3.87-1.13,0,0,3.58,1.1,4.05,1.57,0,0,6.05-2.64,6.45-2.54.09.02.13.02.15.02l5.34,1.55,2.38-.93s.04,0,.06,0l1.5.64,4.23.51-4.18-.72s-1.6-.76-1.6-.76l-1.05.54s-.05.01-.07,0l-4.78-2.28s-.03-.03-.02-.04c0-.02.03-.03.06-.02l4.04.17s1.8.96,1.8.96l1.86-.1,3.02.03,4.34-.43s.03,0,.04,0l1.43.67s1.7,1.6,1.7,1.6l2.07-.48s1.65.29,1.65.29l-1.87-.54-1.78.54s-.05,0-.07-.01l-1.73-1.47-.53-.35c-.18-.22.88-1.77.98-1.73l.36.15s1.78,1.88,1.78,1.88l3.21.73,10.34,1.63,1.15-.76s.04-.01.06,0l1.47.39-2.09-.7-.72.91s-.04.02-.06.02l-2.22-.34c-.24-.14,2.28-2.04,2.43-2.06.15-.03,3.19.94,3.19.94,1.78-.81,1.69-.51,1.69-.51,0,0,1.4-2.21,1.78-2.14l2.08,1.25,2.2-.36s.03,0,.04,0l6.06,2.23.65-.17s.04,0,.06,0l1.06.55,6.48,1.89h.86l-.65-.1Zm-147.99-1.9s-.23-.11-.23-.11c0,0,1.13-1.38,1.47-1.49.12-.04.86-.14,1.74-.25,0,0,1.41,2.81,1.25,2.78l-4.22-.92Zm28.51-.48c-.32,0-.24-.28-.24-.28,0,0-2.98-.16-2.67-.3.02-.01,4.66-1.49,4.66-1.49.04,0,.86.09.86.09l.54.94s-2.83,1.05-3.15,1.04Zm3.24-1.08c-.23-.2-.48-.82-.51-.89l2.29.26c.42.1-1.77.63-1.77.63Zm21.55-1.23s3.22-1.21,3.48-1.21l2.54,1.42s-4.64-.14-6.02-.21Zm28.89,3.68c-.37.41-.88.34-.88.34,0,0-2.98-1.33-4.04-1.54,0,0-1.75.72-3.97,1.06l-1.54-1.87s-.07-.23-.07-.23c-.09-.32,3.68-1.68,3.68-1.68,0,0,5.38-.08,6-.04.01,0,2.99.86,2.99.86l-1.66.69-.35,1.37s.21.62-.16,1.03Zm.22-.08s.01-2.13.48-2.34c.37-.16,1.23-.5,1.56-.63l2.89.84c.15.11-2.65,1.36-4.94,2.14Zm12.06-1.07s0,.02-.02.03l-1.03.52c-.06,0-10.21-3.18-10.21-3.18-.02,0-.04-.03-.03-.04,0-.02.03-.03.06-.03l3.51.15s7.68,2.51,7.68,2.51c.02,0,.03.02.03.03Zm-.93-.47s.03.03.01.05c-.01.01-.03.02-.05.02-.03,0-5.99-2.03-5.99-2.03-.02,0-.04-.03-.03-.04,0-.02.03-.03.06-.03l2.04.09s3.95,1.95,3.95,1.95Zm50.16-.9c.15,0,4.64,2.37,4.64,2.37-.11.57-.5.97-.62,1.09l-1.43-.39s-2.74-3.06-2.59-3.07Zm-2.42,1.7s-1.02-.91-1.02-.91l-.67.34s-.04.01-.06,0l-2.58-.84s-.04-.03-.03-.05l.55-.82s.02-.02.04-.02l2.51-.42s.04,0,.05,0l1.84.89.62-.15s.87.1.87.1c0,0,2.77,3.21,2.61,3.16,0,0-4.72-1.3-4.72-1.3Z"/></g></g><path class="cls-53" d="m168.5,145.83c4.45.87,11.88,1.43,20.31,1.43s15.2-.52,19.7-1.32c-4.46-1.19-11.85-2.18-20.23-2.18s-15.3.93-19.79,2.06Z"/><path class="cls-14" d="m188.81,138.57c-15.8,0-28.6,3.43-28.6,5.83s12.81,4.34,28.6,4.34,28.6-1.94,28.6-4.34-12.81-5.83-28.6-5.83Zm0,8.7c-13.62,0-24.65-1.48-24.65-3.31s11.04-4.44,24.65-4.44,24.65,2.61,24.65,4.44-11.04,3.31-24.65,3.31Z"/><path class="cls-41" d="m213.47,143.96c0,1.83-11.04,3.31-24.65,3.31s-24.65-1.48-24.65-3.31,11.04-4.44,24.65-4.44,24.65,2.61,24.65,4.44Z"/><path class="cls-10" d="m119.73,169.15c49.96,0,91.8-7.34,102.7-17.18-1.77,1.18-4.71,1.96-8.96,2.03-6.4.12-3.84,3.62-19.54,7.68-15.7,4.06-26.69,1.05-38.86,3.01-12.17,1.96-36.77,5.89-49.33,2.22-12.56-3.66-20.67-3.93-36.25-2.62-15.57,1.31-21.59-5.89-30.23-7.33-8.64-1.44-26.82-4.84-24.66-11.86-.22.58-.33,1.18-.33,1.77,0,12.3,47.22,22.27,105.47,22.27Z"/><path class="cls-29" d="m69.49,164.29c15.57-1.31,23.68-1.05,36.25,2.62,12.56,3.66,37.16-.26,49.33-2.22,12.17-1.96,23.16,1.05,38.86-3.01,4.47-1.15,7.45-2.26,9.59-3.26-28.7,9.64-56.96-12.44-54.86-8.95,2.09,3.49,22.16,10.47,8.2,13.43-13.96,2.97-20.06,1.05-31.21-3.47-11.14-4.52-24.06-4.02-14.12-1.7,9.94,2.32,10.79,10.65,0,9.53-10.79-1.12-22.89-7.15-35.45-11.17-12.56-4.01.35,4.36-4.01,5.58-3.46.97-11.42,2.58-19.33.35,4.34,1.64,9.51,2.88,16.76,2.27Z"/></g></g><path class="cls-36" d="m55.92,134.96c-13.95-1.87-26.3,5.03,8.29,15.9,30.64,9.63,44.04,3.31,50.99-5.49,6.94-8.8-59.28-10.41-59.28-10.41Z"/><path class="cls-28" d="m134.97,133.33c16.67,2.53,12.9,2.74-5.02,3.78-16.72.97-10.28,16.02-26.85,19.02,0,0,13.22,1.95-10.15,3.11-35.37,1.74-78.98-8.75-72.23-17.57,7.06-9.22,90.18-19.07,90.18-19.07l24.08,10.74Z"/><path class="cls-66" d="m129.15,56.86s5.45-6.53,6.67-7.93c1.22-1.4,5.58-10.81,0-21.38-4.93-9.33-7.65-7.98-11.57-12.69-4.58-5.51-3.56-.55-3.56-.55,0,0-1.88-1.57-2.4.87,0,0-6.99-1.69-14.92,3.08-6.46,3.88-9.33,9.25-10.56,10.64-1.22,1.4-21.2,16.49-23.73,17.71-2.53,1.22-7.5,2.79-2.97,3.05,0,0-2.79,1.22-.17,1.22,0,0-14.83,14.13-21.33,33.98-6.15,18.78-2.69,31.08-4.32,36.51-.57,1.91-6.15,1.18-3.4,6.41,0,0-3.01,0,2.75,3.79,5.76,3.79,13.61,8.51,13.61,8.51,0,0,13.05,13.91,46.42,13.91,0,0,10.37-2.27,18.35-12.21,7.98-9.94,13.48-9.03,25.12-7.72l.29-3.39s-4.21-8.51-19.57-17.67c0,0,11.52,5.58,13.52,6.28,2.01.7,5.76-1.66,5.76-1.66,0,0-16.23-20.41-21.2-29.75-4.97-9.33-10.6-21.59-10.6-21.59l-.52-5.23s17.1,5.84,18.32-4.19Z"/><path class="cls-32" d="m112.19,74.53s6.4,15.18,11.18,22.25c4.78,7.07,17.02,18.41,14.17,19.19s-3.5,2.36-15.12-4.54c-11.62-6.89-18.43-23.12-18.43-23.12l8.2-13.78Z"/><path class="cls-26" d="m124.37,113.24c-3.5-12.01-13.14-24.58-13.14-24.58,0,0,2.67-3.27,3.01-6.94.24-2.55-3.16-20.59-3.16-20.59,0,0,16.84,6.39,18.08-4.27,0,0,5.5-7.04,4.19-10.01-1.78-4.04-8.77,2.29-8.77,2.29,0,0,6.67-7.52-1.96-8.57-10.33-1.25-17.25,4.82-17.25,4.82,0,0-1.39-11.49-5.91-13.19-4.51-1.7-9.51,11.36.61,24.27,0,0-6.37-3.23-8.46,2.44-2.09,5.67,1.4,23.2,1.4,23.2,0,0-1.57-5.32-3.36-4.97-1.79.35-.26,33.24,13.22,50.9,0,0-.48-2.31,3.71-.79,4.19,1.53,6.8,6.59.35,7.2-6.46.61-26.43-6.41-35.85-26.43,0,0,.13,7.46,5.76,15.18,0,0,8.28,4.01,13.74,8.37,9.94,7.94,7.79,25.37,16.37,19.52,0,0,7.87-3.62,13.34-11.88,3.19-4.69,5.22-10.48,5.36-17.85.05-2.55-.43-5.29-1.23-8.06l-.02-.07Z"/><path class="cls-48" d="m92.82,28.9c-.69.78-7.3,5.9-13.41,10.44,7.52-5.06,11.03,7.77,14.9,21.05,4.01,13.78,16.48,1.83,18.03,6.62-.68-3.32-1.26-5.88-1.26-5.88,0,0,9.28,3.52,14.57.96-6.08,2.55-26.63-7.05-29.42-16.8-2.79-9.75.97-12.76.97-12.76,0,0-.16-11.53,11.38-16.62-1.64.51-3.39,1.25-5.19,2.34-6.46,3.88-9.33,9.25-10.56,10.64Z"/><g><path class="cls-44" d="m104.42,46.69s7.86-5.17,15.99-3.58c8.13,1.59-2.49,11.77-7.83,10.83-5.34-.94-8.16-7.26-8.16-7.26Z"/><path class="cls-56" d="m105.29,46.03s4.41,8.43,11.14,7.37c0,0-1.68,1.51-3.05,1.55s-5.7-1.86-8.1-8.92Z"/><path class="cls-57" d="m115.94,42.85s8.34.11,7.31,3.18c0,0,2.5-3.87-7.31-3.18Z"/><path class="cls-46" d="m105.36,46.21s1.47,6.79,5.27,8.74c3.8,1.95,5.8-1.55,5.8-1.55,0,0-1.61,1.51-4.55.05-2.94-1.47-5.27-4.61-6.52-7.23Z"/></g><g><path class="cls-45" d="m122.42,54.9s.98-4.51,5.76-6.61c4.78-2.09,6.07,2.55.46,8.57,0,0-5.53.85-6.22-1.96Z"/><path class="cls-56" d="m122.59,54.94s-.13,1.22.62,1.98c.75.76,4.22.62,5.55.18,0,0-4.48-.07-6.17-2.16Z"/><path class="cls-57" d="m128.17,48.29s4.65-1.54,3.93,1.91c0,0,1.7-4.07-3.93-1.91Z"/><path class="cls-39" d="m122.58,55.09s-.12,2.23.92,2.84,4.35-.18,5.26-.83c0,0-5.11,1.22-6.17-2.01Z"/></g><path class="cls-38" d="m111.08,61.14s-12.4-2.5-15.76-13.36c-3.36-10.85-1.88-19.58-1.88-19.58,0,0-1.05,1.39-2.71,2.48,0,0,1.75,1.31,3.01,12.57,1.26,11.25,4.74,15.72,10.69,16.71,5.95.98,6.48,1.4,7.1,3.21l-.45-2.03Z"/><path class="cls-23" d="m98.67,32.44c4.19-.39,9.29,16.01,5.46,20.92-1.84,2.36-4.36,1.6-7.16-3.66-2.59-4.89-3.25-16.8,1.69-17.26Z"/><path class="cls-69" d="m100.91,40.98c3.18-.31,5.79,10.41,3.73,11.57-4.25,2.39-10.13-10.94-3.73-11.57Z"/><path class="cls-35" d="m71.06,108.03s-5.76-10.86-6.02-29.31c0,0-8.51,23.95,6.02,29.31Z"/><path class="cls-67" d="m121.02,55.11s-5.37,3.66-10.8,3.21c0,0,6.88,8.67,8.17,9.34,0,0,3.89-1.69,2.63-12.54Z"/><g class="cls-60"><path class="cls-24" d="m122.17,62.54c-3.15-.62,4.3-4.77,7.45-5.39s.05,6.88-7.45,5.39Z"/><path class="cls-69" d="m124.38,60.9c-.28-1.78,5.47-4.18,6.17-3.1,1.45,2.21-5.6,6.68-6.17,3.1Z"/></g><path class="cls-43" d="m66.13,49.67s-2.79,1.22-.17,1.22c0,0-14.83,14.13-21.33,33.98-6.15,18.78-2.69,31.08-4.32,36.51-.57,1.91-6.15,1.18-3.4,6.41,0,0-3.01,0,2.75,3.79,5.76,3.79,13.61,8.51,13.61,8.51,0,0,13.05,13.91,46.42,13.91,0,0,2.06-.45,5.06-1.83.64-.16,1.36-.51,2.18-1.06,0,0,7.87-3.62,13.34-11.88,6.86-7.2,12.36-6.34,22.89-5.16l.29-3.39s-.48-.96-1.68-2.57c2.29,3.07-3,2.62-6.85.53-3.84-2.08-10.07-15.08-3.67-10.71-1.98-1.49-4.25-3.04-6.85-4.62,0,0-.02-.08-.02-.08,2.22,1.07,11.27,5.43,13.03,6.04,2.01.7,5.76-1.66,5.76-1.66,0,0-1.4-1.77-3.5-4.49,4,6.68-14.29-4.67-17.78-11.91-3.49-7.24-8.37-28.09-5.64-24.66-1.58-3.24-2.94-6.12-3.82-8,0,0,1.78,11.84,1.78,11.84-3.57,9.28-19.98-.38-23.47-6.4-3.49-6.02-11.42-6.02,1.86,5.85,13.28,11.87,21.62,2.22,21.62,2.22-.52,3.97-2.97,6.59-2.97,6.59-5.06-4.89-12.56,2.75-16.25.39-3.69-2.36-5.93-6.42-5.93-6.42-.2,21.19,11.58,43.84,1.68,36.05-9.9-7.8-22.15-39.56-18.75-58.12,3.4-18.56,9.77-17.03,9.77-17.03,0,0-5.68-.81-12.35,2.92-.12.07-.22.12-.3.16-2.53,1.22-7.5,2.79-2.97,3.05Zm29.44,41.48c8.22-3.85,16.31-1.83,19.58,3.27,3.27,5.1,10.08,13.81-7.33,11.61-17.4-2.19-18.9-11.78-12.26-14.89Zm-19.84,31.7s10.04,4.29,14.92,9.68c7.77,8.61-24.47-3.27-32.45-8.29-7.98-5.02,6.67-5.97,17.53-1.39Z"/><path class="cls-6" d="m123.4,128.15c-1.01,7.89-5.96,12.14-9.15,13.98s7.53-12.33,8.94-24.71c.74-6.51,1.42,1.33.21,10.73Z"/><g><path class="cls-25" d="m120.72,122.68c-6.15,1.77-11.45,3.41-17.87,5.37.65.88,1.01,1.31,1.74,2.06,4.61-1.64,10.04-3.52,16.03-5.5,18.27-6.05,46.32-14.66,67.57-18.56l-.22-.96s-32.55,7.61-67.25,17.6Z"/><path class="cls-55" d="m91.25,132.18s.02.02.04.03c.43.39.84.8,1.22,1.22.42.45.87.98,1.23,1.48.01.02.02.03.03.05,0,0,1.81-.71,5.02-1.91-1.42-.48-2.94-1.09-4.52-1.83-1.01.32-2.01.65-3.02.97Z"/></g><path class="cls-54" d="m187.11,106.24v41.01h.54s-.41-31.97-.27-36.81.81-4.41.81-4.41l-1.08.2Z"/><path class="cls-49" d="m104.59,130.1c4.61-1.64,10.04-3.52,16.03-5.5,14.21-4.7,34.34-10.96,52.59-15.34-15.62,3.66-29.53,7.71-29.53,7.71l-.75-.46c-1.58.43-3.19.86-4.8,1.3l-.98,1.3-32.19,9.86-1.24-1.18c-.29.09-.56.17-.85.26.65.88,1.01,1.31,1.74,2.06Z"/><path class="cls-34" d="m91.29,132.21c.43.39.84.8,1.22,1.22.42.45.87.98,1.23,1.48.01.02.02.03.03.05,0,0,1.81-.71,5.02-1.91-1.42-.48-2.94-1.09-4.52-1.83-.16.05-.33.11-.49.16l1.88,2.37h-1.18l-2.57-1.77c-.22.07-.43.14-.65.21,0,0,.02.02.04.03Z"/><path class="cls-58" d="m137.81,119.15c2.01-2.13,4.38-2.23,5.63-1.67s1.41,4.35-5.9,1.84l.27-.17Z"/><path class="cls-35" d="m40.31,121.37c-.57,1.91-6.15,1.18-3.4,6.41,0,0-3.01,0,2.75,3.79,5.76,3.79,13.61,8.51,13.61,8.51,0,0,13.05,13.91,46.42,13.91,0,0,2.06-.45,5.06-1.83.64-.16,1.36-.51,2.18-1.06,0,0,7.87-3.62,13.34-11.88,6.86-7.2,12.36-6.34,22.89-5.16l.05-.56c-2.72-2.22-7.14-5.56-10.14-6.47-4.6-1.4-9.54,6.24-13.82,12.47-4.28,6.24-5.92,5.8-9.02,5.58-3.1-.22-3.57,2.63-15.94,2.97-12.37.34-33.43-12.17-34.74-13.01-1.31-.84-14.66-7.53-15.97-15.37-1.31-7.84.17-31.93,5.34-45.14-1.62,3.21-3.1,6.67-4.29,10.32-6.15,18.78-2.69,31.08-4.32,36.51Z"/><path class="cls-3" d="m108.97,156.99s-3.87-13.9-4.56-21.93c0,0-1.57.75-2.35,2.67-.78,1.92-.69,4.25-.69,4.25,0,0-3.61-5.92-5.81-9.51,0,0-2.11,3.42-1.82,6.17.29,2.75,1.84,5.34,1.84,5.34,0,0-3.22-1.92-4.99-4.17,0,0-2.18,3.39.22,6.2,2.97,3.49,11.8,10.73,14.31,11.48s3.86-.5,3.86-.5Z"/><path class="cls-2" d="m145.08,135.59s5.23-7.33,12.82-12.47h-1.22s2.01-2.01,3.93-3.75c0,0-3.66-.87-5.84,0-2.18.87-3.75,2.62-3.75,2.62l2.53-3.49s-4.19.26-5.93,2.01c-1.74,1.74-2.18,10.03-2.53,10.9-.35.87-4.1-3.49-2.44,0,0,0-4.45.79-1.66,1.92,2.79,1.13,4.1,2.27,4.1,2.27Z"/><path class="cls-37" d="m142.63,131.41s-4.45.79-1.66,1.92c2.79,1.13,4.1,2.27,4.1,2.27,0,0,5.23-7.33,12.82-12.47h-1.22c-2.13,2.07-7.44,5.58-7.44,5.58,0,0,4.17-9.49,6.41-9.59-.32.06-.62.14-.9.25-2.18.87-3.75,2.62-3.75,2.62-1.5,3.31-4.15,8.12-4.15,8.12,0,0-.39-6.99.23-8.8-1.31,2.68-1.69,9.33-2,10.1-.35.87-4.1-3.49-2.44,0Z"/><path class="cls-37" d="m101.28,149.77s-4.58-6.87-5.17-8.76c-.59-1.89-1.57-5.31-.56-8.54,0,0-2.11,3.42-1.82,6.17.29,2.75,1.84,5.34,1.84,5.34,2.28,1.58,5.71,5.79,5.71,5.79Z"/><path class="cls-37" d="m106.19,156.97c-2.05-.46-12.04-9.03-13.87-10.99-1.83-1.96-1.73-6.16-1.73-6.16,0,0-2.18,3.39.22,6.2,2.97,3.49,11.8,10.73,14.31,11.48,2.5.75,3.86-.5,3.86-.5,0,0-.73.43-2.78-.02Z"/><path class="cls-37" d="m102.85,140.54c-.2-3.47,1.56-5.49,1.56-5.49,0,0-1.57.75-2.35,2.67-.78,1.92-.69,4.25-.69,4.25.56.92,2.79,6.09,2.79,6.09,0,0-1.11-4.06-1.31-7.52Z"/><path class="cls-17" d="m138.06,37.14c.36,14.51-15.54,4.54-20.77-6.19-4.82-9.9,20.2-16.6,20.77,6.19Z"/><path class="cls-51" d="m120.87,37.01c-1.78-1.31-2.8-2.14-2.06-3.03.74-.9,5.78,5.76,2.06,3.03Z"/><path class="cls-42" d="m118.39,67.65s.56-.25,1.18-1.15c-1.4,1.36-5.33-7.15-4.1-7.79,2.55-1.31,4.26-2.84,4.26-2.84-5.82,3.13-11.78,1.11-11.78,1.11l3.94,4.39.03.05c.3.1.67.21,1.1.34,2.06,2.5,4.63,5.5,5.37,5.88Z"/><path class="cls-21" d="m120.65,55.87s-2.41,4.73-1.65,7.24.62,2.13.62,2.13c0,0,2.46-.71,1.03-9.37Z"/><path class="cls-8" d="m83.15,79.99c4-1.28,10.03,29.53,10.81,34.05,2.29,13.31-7.95,1.39-14.55-11.65-5.7-11.27,3.74-22.41,3.74-22.41Z"/><path class="cls-15" d="m73.88,87.23c2.94,5.26,16.44,3.41,15.33.44l1.47,9.63s-1.74-8.34-6.8-6.22c-5.06,2.13-5.83,7.65-5.83,7.65l-4.17-11.5Z"/><path class="cls-50" d="m83.13,109.46c-1.18-1.64-1.88-2.68-1.52-3.64.35-.96,4,7.07,1.52,3.64Z"/><path class="cls-6" d="m44.6,122.6c-2.33-4.23-1.36-12.74.37-15.53,1.73-2.79.23,10.95,5.54,20,2.79,4.76-2.71,1.32-5.91-4.47Z"/><path class="cls-12" d="m65.17,80.56c-.45-7.34,2.35-11.77,4.9-14.05,2.55-2.28-4.44,16.05-2.36,27.04,1.09,5.78-1.55,3.16-2.54-12.99Z"/><path class="cls-12" d="m94.44,30.19c.48-3.68,2.11-5.71,3.42-6.68,1.31-.98-3.4,7.71-3.52,13.29-.06,2.94-.96,1.48.1-6.61Z"/><path class="cls-56" d="m109.07,57.65s1.86.72,2.81,1.08c.95.36,6.5,8.92,6.5,8.92,0,0-5.56-7.48-7.06-8.46-1.5-.98-2.26-1.54-2.26-1.54Z"/><path class="cls-22" d="m93.7,77.46c6.66,6.29,16.07,8.21,18.79,5.42,2.72-2.79.96-7.89.37-9.27-.59-1.37,1.5,3.91-4.45,5.26-5.95,1.35-12.96-1.04-16.5-4.34-3.54-3.3,1.78,2.93,1.78,2.93Z"/><path class="cls-20" d="m92.01,95.27c.96-4.19,8.56-6.77,14.18-6s8.4,3.99,10.22,7.08c1.82,3.09-.61-2.06-9.63-1.41-9.03.65-10.8,7.32-13.09,4.97s-1.68-4.64-1.68-4.64Z"/><path class="cls-35" d="m61.68,119.87s10.67.93,15.14,3.34c0,0-4.67-4.19-7.98-4.71-3.31-.52-7.15,1.37-7.15,1.37Z"/><path class="cls-18" d="m128.75,103.51c5.01,5.73,4.67,1.79-4.25-11.35-8.92-13.14-6.34-2.8-3.53,1.21,2.81,4.01,7.78,10.14,7.78,10.14Z"/><path class="cls-16" d="m116.79,84.8c1.56,1.97,2.85-1.39,2.85-1.39l1.73,3.35s-1.7-2.59-2.51-1.05c-.82,1.54-.52,2.13-.52,2.13l-1.55-3.04Z"/><path class="cls-35" d="m89.05,86.13c-.29-5.75-3.49-21.64-1.9-17.23,1.59,4.41,4.86,7.82,4.42,9.81-.43,1.99-2.52,7.42-2.52,7.42Z"/><path class="cls-35" d="m112.84,86.13s10.65,14.95,16.8,20.25c6.14,5.3-2.5-4.26-5.58-8.63-3.08-4.38-10.09-18.84-10.09-18.84,0,0,1.31,3.69-1.13,7.22Z"/><path class="cls-9" d="m98.56,26.13c3.1-5.16,34.18-5.69,38.21,3.69,4.03,9.38,0,.28,0,.28,0,0-2.08-5.64-4.44-8.01,0,0,2.98,4.67-4.48,1.34-7.46-3.33-16.35-2.92-22.49-.85-6.14,2.08-3.06-2.32-3.06-2.32,0,0-1.64,1.75-2.41,3.17-.76,1.41-1.34,2.71-1.34,2.71Z"/><path class="cls-5" d="m113.52,75.28c1.17,5.66.14,8.85-5.68,8.96-2.47.05,1.45-1.18,3.41-8.55.42-1.59.41-5.36.58-6.97.38-3.53.3-.18,1.69,6.55Z"/><g class="cls-62"><path class="cls-52" d="m139.42,50.62l-.26,2.38s1.5.19,2.43.67c0,0-2.29.24-2.87,1.08l.02,1.38s2.2.64,4.15,2.02l1.38-1.73-.35-.58c-.73-.38-2-.93-2.91-1.02,0,0,1.7-.73,3.15-.37l1.37-1.61-.25-.6c-.91-.52-2.91-1.42-5.86-1.62Z"/><path class="cls-33" d="m138.89,55.98l-.17-1.23.02,1.38s2.2.64,4.15,2.02l1.38-1.73-.35-.58-.94,1.55c-1.17-1-4.09-1.41-4.09-1.41Z"/><path class="cls-33" d="m141.59,53.67c1.61-.34,2.32-.23,2.32-.23-3.16-.84-4.52-.86-4.52-.86l.03-1.96-.26,2.38s1.5.19,2.43.67Z"/><path class="cls-33" d="m140.3,54.76l.7.06s1.7-.73,3.15-.37l1.37-1.61-.25-.6-1.22,1.41c-2.79.17-3.76,1.1-3.76,1.1Z"/></g><g class="cls-62"><path class="cls-52" d="m151.68,43.73l-1.5,2.68s1.67.98,2.53,2.02c0,0-2.82-.87-3.93-.17l-.67,1.64s2.27,1.86,3.89,4.47l2.5-1.35-.12-.87c-.67-.81-1.89-2.11-2.93-2.67,0,0,2.37,0,3.91,1.15l2.43-1.21v-.83c-.82-1.07-2.72-3.14-6.1-4.86Z"/><path class="cls-33" d="m148.36,49.79l.42-1.54-.67,1.64s2.27,1.86,3.89,4.47l2.5-1.35-.12-.87-1.89,1.36c-.88-1.77-4.12-3.72-4.12-3.72Z"/><path class="cls-33" d="m152.71,48.42c2.07.41,2.86.9,2.86.9-3.31-2.59-4.91-3.28-4.91-3.28l1.02-2.3-1.5,2.68s1.67.98,2.53,2.02Z"/><path class="cls-33" d="m150.64,49.06l.8.42s2.37,0,3.91,1.15l2.43-1.21v-.83s-2.15,1.05-2.15,1.05c-3.38-1.21-4.99-.59-4.99-.59Z"/></g><g class="cls-62"><path class="cls-52" d="m145.33,26.2l-1.06,4.04s2.54.72,4.03,1.79c0,0-4.01-.18-5.24,1.12l-.33,2.38s3.63,1.68,6.65,4.57l2.84-2.63-.46-1.1c-1.16-.84-3.2-2.13-4.77-2.52,0,0,3.13-.81,5.54.18l2.79-2.42-.28-1.09c-1.44-1.13-4.66-3.21-9.7-4.33Z"/><path class="cls-33" d="m143.03,35.32l.02-2.17-.33,2.38s3.63,1.68,6.65,4.57l2.84-2.63-.46-1.1-2.02,2.43c-1.77-2.03-6.7-3.49-6.7-3.49Z"/><path class="cls-33" d="m148.29,32.03c2.87-.16,4.07.21,4.07.21-5.24-2.28-7.59-2.65-7.59-2.65l.56-3.38-1.06,4.04s2.54.72,4.03,1.79Z"/><path class="cls-33" d="m145.78,33.58l1.2.28s3.13-.81,5.54.18l2.79-2.42-.28-1.09-2.47,2.12c-4.87-.43-6.78.93-6.78.93Z"/></g></g></g></g></svg>