<?xml version="1.0" encoding="utf-8"?>
<!-- Generator: Adobe Illustrator 27.0.0, SVG Export Plug-In . SVG Version: 6.00 Build 0)  -->
<svg version="1.1" id="Layer_1" xmlns="http://www.w3.org/2000/svg" xmlns:xlink="http://www.w3.org/1999/xlink" x="0px" y="0px"
	 viewBox="0 0 595.28 841.89" style="enable-background:new 0 0 595.28 841.89;" xml:space="preserve">
<style type="text/css">
	.st0{fill:url(#SVGID_1_);}
	.st1{opacity:0.85;fill:#BA92D1;}
	.st2{fill:url(#SVGID_00000123408727390141674230000001457166667739748785_);}
	.st3{fill:url(#SVGID_00000008114894316265733310000008859219915453495206_);}
	.st4{opacity:0.6;fill:url(#SVGID_00000057116693918617349780000000568418724225010569_);}
	.st5{opacity:0.5;fill:url(#SVGID_00000088844289410886076230000016860010117105948304_);}
	.st6{opacity:0.26;fill:url(#SVGID_00000119822857307528681470000007108894017302309510_);}
	.st7{opacity:0.36;fill:#F46F9F;}
	.st8{opacity:0.31;fill:url(#SVGID_00000129901582569419022350000017900735876475085194_);}
	.st9{opacity:0.43;fill:url(#SVGID_00000111883030977232072690000003286770941317733008_);}
	.st10{fill:#2E0043;}
	.st11{fill:url(#SVGID_00000163061077962581274820000015147531052121258905_);}
	.st12{opacity:0.37;clip-path:url(#SVGID_00000103952887097335995160000002079463538679055289_);fill:#8486EA;}
	.st13{clip-path:url(#SVGID_00000103952887097335995160000002079463538679055289_);}
	.st14{fill:url(#SVGID_00000135692322892187412080000006310046400328224698_);}
	.st15{fill:url(#SVGID_00000023279428655801690320000009090949835158860167_);}
	.st16{opacity:0.32;fill:url(#SVGID_00000011029638858213932850000003570729838394906522_);}
	.st17{fill:#FFFFFF;}
	.st18{opacity:0.31;fill:url(#SVGID_00000183929440281183938030000005492875860609583501_);}
	.st19{opacity:0.43;fill:url(#SVGID_00000008839083441399803710000015289149711523955128_);}
	.st20{clip-path:url(#SVGID_00000147910598685751010980000013886587439199998365_);fill:#2E0043;}
	.st21{clip-path:url(#SVGID_00000147910598685751010980000013886587439199998365_);}
	.st22{opacity:0.37;clip-path:url(#SVGID_00000031906998104562555210000015514859032159225274_);fill:#8486EA;}
	.st23{clip-path:url(#SVGID_00000031906998104562555210000015514859032159225274_);}
	.st24{fill:url(#SVGID_00000122698931688198930390000003223329614028255643_);}
	.st25{fill:url(#SVGID_00000091735019636120758000000013950547231422611374_);}
	.st26{opacity:0.32;fill:url(#SVGID_00000110462831324909157050000016848478285665332112_);}
	.st27{fill:url(#SVGID_00000049187434840049132680000007105276722310270096_);}
	.st28{opacity:0.51;fill:url(#SVGID_00000116214823473119050080000000423410527308531340_);}
	.st29{opacity:0.5;fill:url(#SVGID_00000132059968678208014420000017412806409693293697_);}
	.st30{fill:#5D2755;}
	.st31{opacity:0.72;fill:#BA92D1;}
	.st32{fill:url(#SVGID_00000096756629815382427850000017630817629913235341_);}
	.st33{fill:url(#SVGID_00000092453889176420751220000007833707754543520445_);}
	.st34{opacity:0.71;fill:#C960D1;}
	.st35{opacity:0.25;fill:url(#SVGID_00000183927751261627260760000017753418753559357076_);}
	.st36{fill:#F4E2F1;}
	.st37{fill:url(#SVGID_00000031918467395256945590000010792680240976177549_);}
	.st38{opacity:0.15;fill:#E09CE0;}
	.st39{opacity:0.08;fill:#E09CE0;}
	.st40{opacity:0.25;fill:url(#SVGID_00000085932354585307613390000003651597430801289089_);}
	.st41{opacity:0.38;fill:url(#SVGID_00000083805813129468333370000010410279914081586845_);}
	.st42{opacity:0.71;fill:#F4E2F1;}
	.st43{opacity:0.25;fill:url(#SVGID_00000044141426000448825130000014820515522060976525_);}
	.st44{opacity:0.25;fill:url(#SVGID_00000129180364466374731250000018042481462060022433_);}
	.st45{opacity:0.6;fill:url(#SVGID_00000031929321674877654830000003810919681552803518_);}
	.st46{opacity:0.5;fill:url(#SVGID_00000107556063771799858480000009629189572844910511_);}
	.st47{opacity:0.5;fill:url(#SVGID_00000021822628564186513790000006440809253678375076_);}
	.st48{opacity:0.39;fill:#BA92D1;}
	.st49{opacity:0.28;fill:#E09CE0;}
</style>
<g>
	<linearGradient id="SVGID_1_" gradientUnits="userSpaceOnUse" x1="150.3263" y1="248.841" x2="150.3263" y2="30.3127">
		<stop  offset="0.0711" style="stop-color:#2E0043"/>
		<stop  offset="0.2377" style="stop-color:#380847"/>
		<stop  offset="0.5188" style="stop-color:#521E51"/>
		<stop  offset="0.878" style="stop-color:#7D4262"/>
		<stop  offset="1" style="stop-color:#8D4F68"/>
	</linearGradient>
	<path class="st0" d="M103.79,67.39c0,0,0.29-10.36,1.05-16.33c1.27-9.91,12.77-20.65,32.21-20.74
		c19.44-0.1,29.26,17.63,33.83,19.16c4.57,1.52-0.38,3.14-0.38,3.14s2.67,0.19-0.19,2.86c0,0,2.1,16.11,0.76,22.4
		c-1.33,6.29-7.91,8.58-7.91,8.58s11.82,23.16,18.58,30.02c6.77,6.86,4.19,7.62,4.19,7.62s3.53,4.96,0.48,3.72
		c0,0,17.53,33.55,21.92,45.75c4.38,12.2,2.48,20.59,2.48,20.59s5.91,13.34,9.15,16.58c3.24,3.24-12.58,3.24-12.58,3.24
		s-7.62,8.96-18.68,14.1s-40.98,7.24-60.61,20.78l-3.43-6.1l4-10.1l-22.49-7.62c0,0-9.91-3.24-21.54,1.72l-4.38-3.81
		c0,0,3.24-20.39,11.44-35.45c0,0,0.57-12.1,5.43-22.78c4.86-10.67,6.48-10.71,6.1-13.85c-0.38-3.15-1.14-2.54-1.14-2.54
		s-4.1,11.91-11.63,5.43c-7.53-6.48-12.01-11.06-4.57-20.3c7.43-9.24,16.39-19.16,16.39-19.16s0.57-4,3.91-9.43
		c3.34-5.43,5.77-11.67,5.86-13.34c0.1-1.67-9.82-7.24-12.06-13.68C97.74,71.39,103.79,67.39,103.79,67.39z"/>
	<path class="st1" d="M110.37,151.82c-0.67-1.04-8.77-10.19-8.77-10.19s-6.48-7.62-8.57-8.1c-2.1-0.48-6,0.48-6,0.48
		s5.71-0.57,7.29,1.24s1.86,12.96,1.48,15.44c-0.38,2.47-7.72,0.58-11.05-2.46c1.47,1.78,3.45,3.56,5.71,5.51
		c7.53,6.48,11.63-5.43,11.63-5.43s0.76-0.6,1.14,2.54c0.3,2.45-0.63,3.03-3.35,8.22c0.1-0.06,0.22-0.11,0.3-0.18
		C103.6,156.3,111.03,152.86,110.37,151.82z"/>
	<path class="st1" d="M102.96,130.29c0,0-4.73-3.57-7.02-3.49c-2.34,0.08-6.99,5.69-6.99,5.69s5.42-6.98,8.32-9.31
		C110.18,112.81,102.96,130.29,102.96,130.29z"/>
	
		<linearGradient id="SVGID_00000029045423678932488560000006122033805669366676_" gradientUnits="userSpaceOnUse" x1="128.0442" y1="232.6396" x2="128.0442" y2="44.1771">
		<stop  offset="0" style="stop-color:#BA92D1"/>
		<stop  offset="0.33" style="stop-color:#CEA9D7"/>
		<stop  offset="0.8415" style="stop-color:#F4D3E3"/>
	</linearGradient>
	<path style="fill:url(#SVGID_00000029045423678932488560000006122033805669366676_);" d="M164.59,191.75
		c1.72-22.4-12.81-40.12-12.81-40.12s-11.38,11.15-19.98,9.91c-8.6-1.24-30.21-19.92-30.21-19.92s0.19,0,0.48,6.67
		c0,0,0.13,0.64,0.19,3.14c0.08,3.17-0.48,2.57-5.35,13.25c-4.88,10.67-5.45,22.78-5.45,22.78c-1.05,16.77,5.74,33.17,14.04,37.41
		c0.32,0.08,0.49,0.14,0.49,0.14l22.56,7.62C139.16,207.58,164.59,191.75,164.59,191.75z"/>
	
		<linearGradient id="SVGID_00000099638698515884725970000000982649278592345530_" gradientUnits="userSpaceOnUse" x1="132.8433" y1="232.6396" x2="132.8433" y2="44.1774">
		<stop  offset="0" style="stop-color:#BA92D1"/>
		<stop  offset="0.33" style="stop-color:#CEA9D7"/>
		<stop  offset="0.8415" style="stop-color:#F4D3E3"/>
	</linearGradient>
	<path style="fill:url(#SVGID_00000099638698515884725970000000982649278592345530_);" d="M99.81,77.82
		c2.25,6.43,12.18,12.01,12.09,13.68c-0.1,1.67-2.53,7.91-5.88,13.34c-2.43,3.95-3.4,7.14-3.74,8.58c-0.04,0.27-0.1,0.56-0.18,0.85
		c-2.39,9.34,0.86,16.01,0.86,16.01s19.49-3.34,22.17-2.76c2.68,0.57,7.74,4.96,7.74,4.96l9.14-9.24c0,0,9.11-17.15,8.92-21.73
		c-0.19-4.57-4.71-8.13-4.71-8.13c18.47-6.35,23.82-19.6,17.8-23.13c-6.02-3.53-14.81,0-14.81,0c1.53-13.63-8.79-25.06-17.2-26.02
		c-8.41-0.95-14.33,12.1-14.33,12.1s-1.26-17.07-8.41-8.77c-4.05,4.7-5.64,19.82-5.64,19.82S97.56,71.39,99.81,77.82z"/>
	
		<linearGradient id="SVGID_00000039850994972985036320000012912564540580871320_" gradientUnits="userSpaceOnUse" x1="85.5714" y1="156.0345" x2="195.5173" y2="195.2601">
		<stop  offset="0" style="stop-color:#FFFFFF"/>
		<stop  offset="0.3455" style="stop-color:#D1B6E0"/>
		<stop  offset="0.5403" style="stop-color:#BA92D1"/>
	</linearGradient>
	<path style="opacity:0.6;fill:url(#SVGID_00000039850994972985036320000012912564540580871320_);" d="M219.96,210.72
		c-3.24-3.24-9.15-16.58-9.15-16.58s1.91-8.39-2.48-20.59c-4.05-11.28-19.35-40.8-21.62-45.18l-11.8-17.14
		c1.54,2.55,2.93,5.55,1.87,6.85c-2,2.48-31.16,22.87-33.45,20.11c-2.29-2.76-10.13-5.37-10.13-5.37s-0.36,1.79-3.37,1.63
		c-3.02-0.16-25.31-3.6-24.11-4.16c1.2-0.56,15.82-2.92,18.84-2.67c3.02,0.25,8.3,4.86,8.3,4.86c8.98-5.77,24.05-28.62,24.05-28.62
		c-19.64,7.44-7.67,14.23-23.89,20.14c-16.22,5.91-31.43,1.2-31.19-5.34c0.12-3.21,0.43-4.38,0.43-4.38s-8.96,9.91-16.39,19.16
		c-7.43,9.24-2.95,13.82,4.57,20.3c7.53,6.48,11.63-5.43,11.63-5.43s0.89,4.97-1.03,7.78c6.47-6.19,18.84,10.42,31.8,8.26
		c13.77-2.29,30.45,0.51,9.51,13.98c-19.18,12.34-49.19,8.67-48.2-5.31c-2.15,7.8-2.47,14.46-2.47,14.46
		c-8.2,15.06-11.44,35.45-11.44,35.45l4.38,3.81c11.63-4.96,21.54-1.72,21.54-1.72l22.49,7.62l-4,10.1l3.43,6.1
		c19.63-13.53,49.56-15.63,60.61-20.78c11.06-5.15,18.68-14.1,18.68-14.1S223.2,213.96,219.96,210.72z M186.04,189.31
		c-2.67,6.92-11.84,23.81-32.59,27.47c-20.75,3.66-16.49,2.9-8.67-7.4c7.81-10.29,19.82-17.63,19.82-17.63
		C178.37,186.75,188.7,182.39,186.04,189.31z"/>
	
		<linearGradient id="SVGID_00000163039819965225371920000017625228265723446459_" gradientUnits="userSpaceOnUse" x1="781.3595" y1="87.7683" x2="781.3595" y2="71.7104" gradientTransform="matrix(-1 0 0 1 934.0873 0)">
		<stop  offset="0.189" style="stop-color:#000000"/>
		<stop  offset="0.272" style="stop-color:#060406"/>
		<stop  offset="0.3816" style="stop-color:#171017"/>
		<stop  offset="0.5062" style="stop-color:#322332"/>
		<stop  offset="0.6417" style="stop-color:#583D58"/>
		<stop  offset="0.7862" style="stop-color:#896089"/>
		<stop  offset="0.936" style="stop-color:#C489C4"/>
		<stop  offset="1" style="stop-color:#E09CE0"/>
	</linearGradient>
	<path style="opacity:0.5;fill:url(#SVGID_00000163039819965225371920000017625228265723446459_);" d="M163.45,70.44
		c-4.33-3.54-17.62-1.12-22.68,11.46c-2.4,5.95-1.05,10.9,9.72,7.98C160.49,87.16,170.22,75.96,163.45,70.44z"/>
	
		<linearGradient id="SVGID_00000157279026647753680930000005539369319741713342_" gradientUnits="userSpaceOnUse" x1="826.5833" y1="123.7764" x2="826.5833" y2="112.2547" gradientTransform="matrix(-1.0089 -0.0448 -0.0458 1.0294 945.1103 -5.184)">
		<stop  offset="0.1992" style="stop-color:#000000"/>
		<stop  offset="0.2811" style="stop-color:#060406"/>
		<stop  offset="0.3894" style="stop-color:#171017"/>
		<stop  offset="0.5123" style="stop-color:#322332"/>
		<stop  offset="0.6462" style="stop-color:#583D58"/>
		<stop  offset="0.7889" style="stop-color:#896089"/>
		<stop  offset="0.9368" style="stop-color:#C489C4"/>
		<stop  offset="1" style="stop-color:#E09CE0"/>
	</linearGradient>
	<path style="opacity:0.26;fill:url(#SVGID_00000157279026647753680930000005539369319741713342_);" d="M107.27,75.77
		c-6.33-9.09-8.39-2.61-7.27,0.49c2.18,6.07,7.51,11.81,10.54,11.31C113.56,87.07,110.32,80.15,107.27,75.77z"/>
	<path class="st7" d="M99.71,73.53c-0.73,4.51,5.22,9.24,6.82,6.13C109.08,74.71,100.69,67.52,99.71,73.53z"/>
	<g>
		
			<linearGradient id="SVGID_00000046330531408684875640000009101833838041018791_" gradientUnits="userSpaceOnUse" x1="825.6871" y1="68.1163" x2="825.6871" y2="53.8802" gradientTransform="matrix(-1 0 0 1 934.0873 0)">
			<stop  offset="0.4654" style="stop-color:#FFFFFF"/>
			<stop  offset="0.5497" style="stop-color:#E3D0E4"/>
			<stop  offset="0.7153" style="stop-color:#B07AB2"/>
			<stop  offset="0.8507" style="stop-color:#8B3A8D"/>
			<stop  offset="0.9489" style="stop-color:#741376"/>
			<stop  offset="1" style="stop-color:#6B046D"/>
		</linearGradient>
		<path style="opacity:0.31;fill:url(#SVGID_00000046330531408684875640000009101833838041018791_);" d="M112.31,65.24
			c0.15-2.59,1.15-5.21-0.02-6.63c-0.42-0.52-2.46-5.39-5.27-4.65c-0.7,0.18-1.73,3.51-2.53,6.95
			C101.44,74.02,112.31,65.24,112.31,65.24z"/>
		
			<linearGradient id="SVGID_00000024700698637632948950000013242353806231403194_" gradientUnits="userSpaceOnUse" x1="830.7598" y1="68.2233" x2="823.3755" y2="75.6076" gradientTransform="matrix(-1 0 0 1 934.0873 0)">
			<stop  offset="0.193" style="stop-color:#FFFFFF"/>
			<stop  offset="0.3203" style="stop-color:#E3D0E4"/>
			<stop  offset="0.5702" style="stop-color:#B07AB2"/>
			<stop  offset="0.7746" style="stop-color:#8B3A8D"/>
			<stop  offset="0.9229" style="stop-color:#741376"/>
			<stop  offset="1" style="stop-color:#6B046D"/>
		</linearGradient>
		<path style="opacity:0.43;fill:url(#SVGID_00000024700698637632948950000013242353806231403194_);" d="M111.54,74.78
			c-1.76,1.32-7.71-0.13-7.76-5.92C103.73,63.07,111.54,74.78,111.54,74.78z"/>
		<path class="st10" d="M111.9,73c0,0,1.42-13.43-1.03-16.8c-2.45-3.38-7,1.99-7.13,6.15c-0.14,4.16,1.42,4.76,1.42,4.76L111.9,73z"
			/>
		
			<linearGradient id="SVGID_00000155851432645855159290000002879054218085748117_" gradientUnits="userSpaceOnUse" x1="826.0488" y1="74.9654" x2="826.0488" y2="56.4467" gradientTransform="matrix(-1 0 0 1 934.0873 0)">
			<stop  offset="0.1179" style="stop-color:#FFFFFF"/>
			<stop  offset="0.3181" style="stop-color:#FAFBFD"/>
			<stop  offset="0.5411" style="stop-color:#EDEEF7"/>
			<stop  offset="0.774" style="stop-color:#D7DAEC"/>
			<stop  offset="1" style="stop-color:#BABFDF"/>
		</linearGradient>
		<path style="fill:url(#SVGID_00000155851432645855159290000002879054218085748117_);" d="M112.04,74.14c0,0,1.07-11.49-0.87-16.05
			c-1.94-4.56-7.44,0.83-7.44,9.94C103.74,73.75,111.54,76.45,112.04,74.14z"/>
		<g>
			<defs>
				<path id="SVGID_00000124864926616412753800000018101056242173693119_" d="M112.04,74.14c0,0,1.07-11.49-0.87-16.05
					c-1.94-4.56-7.44,0.83-7.44,9.94C103.74,73.75,111.75,76.73,112.04,74.14z"/>
			</defs>
			<clipPath id="SVGID_00000085940358154666455960000014485189043794332312_">
				<use xlink:href="#SVGID_00000124864926616412753800000018101056242173693119_"  style="overflow:visible;"/>
			</clipPath>
			<path style="opacity:0.37;clip-path:url(#SVGID_00000085940358154666455960000014485189043794332312_);fill:#8486EA;" d="
				M112.45,67.69c-0.52-13.12-8.73-6.29-8.57-1.98c0.16,4.3-7.01-3.99-7.01-3.99l7.83-12.66l11.74,4.53L116.79,67L112.45,67.69z"/>
			<g style="clip-path:url(#SVGID_00000085940358154666455960000014485189043794332312_);">
				<g>
					
						<linearGradient id="SVGID_00000022538669101245140960000017344602055628751029_" gradientUnits="userSpaceOnUse" x1="813.8981" y1="193.9471" x2="813.8981" y2="179.7721" gradientTransform="matrix(-1.0322 -0.2885 -0.3056 0.9576 1007.6647 122.9076)">
						<stop  offset="0" style="stop-color:#BF92ED"/>
						<stop  offset="4.947612e-03" style="stop-color:#BE91EB"/>
						<stop  offset="0.1486" style="stop-color:#9B69B7"/>
						<stop  offset="0.2894" style="stop-color:#7F488B"/>
						<stop  offset="0.4246" style="stop-color:#692F69"/>
						<stop  offset="0.5525" style="stop-color:#591D51"/>
						<stop  offset="0.6703" style="stop-color:#4F1242"/>
						<stop  offset="0.7683" style="stop-color:#4C0E3D"/>
					</linearGradient>
					<path style="fill:url(#SVGID_00000022538669101245140960000017344602055628751029_);" d="M105.92,64.98
						c-0.74,3.85,0.68,7.89,3.18,9.03c2.5,1.13,5.13-1.07,5.88-4.92c0.74-3.85-0.68-7.89-3.18-9.03
						C109.3,58.93,106.67,61.13,105.92,64.98z"/>
					
						<linearGradient id="SVGID_00000060031496148005671740000009948650751537431426_" gradientUnits="userSpaceOnUse" x1="813.9271" y1="191.6919" x2="813.9271" y2="182.663" gradientTransform="matrix(-1.0322 -0.2885 -0.3056 0.9576 1007.6647 122.9076)">
						<stop  offset="0" style="stop-color:#BF92ED"/>
						<stop  offset="4.947612e-03" style="stop-color:#BE91EB"/>
						<stop  offset="0.1486" style="stop-color:#9B69B7"/>
						<stop  offset="0.2894" style="stop-color:#7F488B"/>
						<stop  offset="0.4246" style="stop-color:#692F69"/>
						<stop  offset="0.5525" style="stop-color:#591D51"/>
						<stop  offset="0.6703" style="stop-color:#4F1242"/>
						<stop  offset="0.7683" style="stop-color:#4C0E3D"/>
					</linearGradient>
					<path style="fill:url(#SVGID_00000060031496148005671740000009948650751537431426_);" d="M107.44,66.02
						c-0.47,2.45,0.43,5.03,2.03,5.75c1.59,0.72,3.27-0.68,3.74-3.13c0.47-2.45-0.43-5.03-2.03-5.75
						C109.59,62.17,107.92,63.57,107.44,66.02z"/>
					
						<linearGradient id="SVGID_00000158001555227823596250000014874449532569180583_" gradientUnits="userSpaceOnUse" x1="882.6609" y1="359.623" x2="882.6609" y2="348.4374" gradientTransform="matrix(-0.8531 -0.5218 -0.5218 0.8531 1048.0375 232.9723)">
						<stop  offset="0.2317" style="stop-color:#000000"/>
						<stop  offset="0.2971" style="stop-color:#080406"/>
						<stop  offset="0.4012" style="stop-color:#1F1017"/>
						<stop  offset="0.5309" style="stop-color:#452332"/>
						<stop  offset="0.6812" style="stop-color:#793D58"/>
						<stop  offset="0.8466" style="stop-color:#BB5F87"/>
						<stop  offset="1" style="stop-color:#FF81B8"/>
					</linearGradient>
					<path style="opacity:0.32;fill:url(#SVGID_00000158001555227823596250000014874449532569180583_);" d="M106.42,70.9
						c-1.18,2.85-0.39,6.73,1.76,8.67c2.15,1.94,4.84,1.21,6.02-1.63c1.18-2.85,0.39-6.73-1.76-8.67
						C110.29,67.33,107.59,68.06,106.42,70.9z"/>
				</g>
			</g>
			<g style="clip-path:url(#SVGID_00000085940358154666455960000014485189043794332312_);">
				<path class="st17" d="M108.48,62.67c0.14-0.14,0.2-1.16-0.36-1.76c-0.56-0.6-1.52-0.59-1.67-0.42c-0.15,0.17-0.2,1.16,0.36,1.76
					C107.37,62.85,108.29,62.85,108.48,62.67z"/>
				<path class="st17" d="M110.38,64.42c0.06-0.05,0.15-0.4,0-0.57c-0.15-0.16-0.48-0.09-0.54-0.03c-0.06,0.07-0.15,0.4,0,0.57
					S110.3,64.49,110.38,64.42z"/>
			</g>
		</g>
	</g>
	<path class="st7" d="M154.03,72.41c-6.38-1.33-14.76,8.56-10.52,10.97C150.25,87.21,162.53,74.18,154.03,72.41z"/>
	<g>
		
			<linearGradient id="SVGID_00000168079246055758485100000000900545764254995388_" gradientUnits="userSpaceOnUse" x1="801.0585" y1="74.4118" x2="801.0585" y2="53.0802" gradientTransform="matrix(-1 0 0 1 934.0873 0)">
			<stop  offset="0.4654" style="stop-color:#FFFFFF"/>
			<stop  offset="0.5497" style="stop-color:#E3D0E4"/>
			<stop  offset="0.7153" style="stop-color:#B07AB2"/>
			<stop  offset="0.8507" style="stop-color:#8B3A8D"/>
			<stop  offset="0.9489" style="stop-color:#741376"/>
			<stop  offset="1" style="stop-color:#6B046D"/>
		</linearGradient>
		<path style="opacity:0.31;fill:url(#SVGID_00000168079246055758485100000000900545764254995388_);" d="M145.07,60.97
			c-1.33-2.93-3.97-5.82-7.36-7.89c0,0-3.7,1.63-8.43,6.3c-2.09,2.06-7.32-0.21-7.32-0.21c-0.45,3.52-2.8,14.59,1.93,15.24
			L145.07,60.97z"/>
		
			<linearGradient id="SVGID_00000140700288820991528680000002320909989381937049_" gradientUnits="userSpaceOnUse" x1="803.1893" y1="67.4084" x2="793.2572" y2="77.3405" gradientTransform="matrix(-1 0 0 1 934.0873 0)">
			<stop  offset="0.193" style="stop-color:#FFFFFF"/>
			<stop  offset="0.3203" style="stop-color:#E3D0E4"/>
			<stop  offset="0.5702" style="stop-color:#B07AB2"/>
			<stop  offset="0.7746" style="stop-color:#8B3A8D"/>
			<stop  offset="0.9229" style="stop-color:#741376"/>
			<stop  offset="1" style="stop-color:#6B046D"/>
		</linearGradient>
		<path style="opacity:0.43;fill:url(#SVGID_00000140700288820991528680000002320909989381937049_);" d="M123.89,74.41
			c0,0,2.12,4.15,11.42,3.33c10.23-0.9,10.76-7.27,10.57-9.44S123.89,74.41,123.89,74.41z"/>
		<g>
			<defs>
				<path id="SVGID_00000043432258510915349120000001185903282554748570_" d="M140.21,55.95c-2.53-1.07-4.19-0.96-5.73-0.71
					c-2.93,2.39-5.14,5.75-6.64,5.98c-0.59,0.09-1.31-0.03-2.04-0.25c-0.57,1.04-1.01,2.12-1.3,3.2c-1.71,4.87-0.6,10.24-0.6,10.24
					c2.93,3.93,21.05,4.25,21.94-5.09c0.05-0.54,0.05-1.16,0.01-1.82C147.17,64.8,144.93,57.94,140.21,55.95z"/>
			</defs>
			<clipPath id="SVGID_00000165201525480143799050000014682221906689921927_">
				<use xlink:href="#SVGID_00000043432258510915349120000001185903282554748570_"  style="overflow:visible;"/>
			</clipPath>
			<path style="clip-path:url(#SVGID_00000165201525480143799050000014682221906689921927_);fill:#2E0043;" d="M123.91,72
				c0,0-1.97-14.49,9.94-16.65c1.73-0.31,3.49-0.62,6.37,0.59c5.48,2.32,7.63,11.22,4.71,12.51c-1.54,0.68-0.73,2.65-0.73,2.65
				L123.91,72z"/>
			<g style="clip-path:url(#SVGID_00000165201525480143799050000014682221906689921927_);">
				<defs>
					<path id="SVGID_00000008142274121227197640000011635840504220754578_" d="M123.89,74.41c0,0-3.28-15.83,10.06-17.76
						c9.58-1.39,12.31,8.18,11.88,12.66C144.95,78.66,126.82,78.34,123.89,74.41z"/>
				</defs>
				
					<linearGradient id="SVGID_00000160170318426921945260000012857917304916088245_" gradientUnits="userSpaceOnUse" x1="134.7072" y1="77.0091" x2="134.7072" y2="56.5202">
					<stop  offset="0.1179" style="stop-color:#FFFFFF"/>
					<stop  offset="0.3181" style="stop-color:#FAFBFD"/>
					<stop  offset="0.5411" style="stop-color:#EDEEF7"/>
					<stop  offset="0.774" style="stop-color:#D7DAEC"/>
					<stop  offset="1" style="stop-color:#BABFDF"/>
				</linearGradient>
				
					<use xlink:href="#SVGID_00000008142274121227197640000011635840504220754578_"  style="overflow:visible;fill:url(#SVGID_00000160170318426921945260000012857917304916088245_);"/>
				<clipPath id="SVGID_00000086693648967855523220000015932677112186924931_">
					<use xlink:href="#SVGID_00000008142274121227197640000011635840504220754578_"  style="overflow:visible;"/>
				</clipPath>
				<path style="opacity:0.37;clip-path:url(#SVGID_00000086693648967855523220000015932677112186924931_);fill:#8486EA;" d="
					M145.68,70.25c0.19-9.94-21.19-14.26-22.92-1.51c-1.73,12.75-3.99-16.3-3.99-16.3l17.74-3.92l15.15,9.73l-1.72,10.83
					L145.68,70.25z"/>
				<g style="clip-path:url(#SVGID_00000086693648967855523220000015932677112186924931_);">
					<g>
						
							<linearGradient id="SVGID_00000047018626312706703870000000831342095034871196_" gradientUnits="userSpaceOnUse" x1="794.2556" y1="190.6448" x2="794.2556" y2="174.6106" gradientTransform="matrix(-1.0322 -0.2885 -0.3056 0.9576 1007.6647 122.9076)">
							<stop  offset="0" style="stop-color:#BF92ED"/>
							<stop  offset="4.947612e-03" style="stop-color:#BE91EB"/>
							<stop  offset="0.1486" style="stop-color:#9B69B7"/>
							<stop  offset="0.2894" style="stop-color:#7F488B"/>
							<stop  offset="0.4246" style="stop-color:#692F69"/>
							<stop  offset="0.5525" style="stop-color:#591D51"/>
							<stop  offset="0.6703" style="stop-color:#4F1242"/>
							<stop  offset="0.7683" style="stop-color:#4C0E3D"/>
						</linearGradient>
						<path style="fill:url(#SVGID_00000047018626312706703870000000831342095034871196_);" d="M124.95,66.36
							c-1.16,4.29,1.07,8.79,4.97,10.06c3.91,1.26,8.01-1.19,9.17-5.48c1.16-4.29-1.07-8.79-4.97-10.06
							C130.22,59.62,126.11,62.07,124.95,66.36z"/>
						
							<linearGradient id="SVGID_00000070797552096275408870000006723704095552202369_" gradientUnits="userSpaceOnUse" x1="794.7885" y1="188.0227" x2="794.7885" y2="177.9986" gradientTransform="matrix(-1.0322 -0.2885 -0.3056 0.9576 1007.6647 122.9076)">
							<stop  offset="0" style="stop-color:#BF92ED"/>
							<stop  offset="4.947612e-03" style="stop-color:#BE91EB"/>
							<stop  offset="0.1486" style="stop-color:#9B69B7"/>
							<stop  offset="0.2894" style="stop-color:#7F488B"/>
							<stop  offset="0.4246" style="stop-color:#692F69"/>
							<stop  offset="0.5525" style="stop-color:#591D51"/>
							<stop  offset="0.6703" style="stop-color:#4F1242"/>
							<stop  offset="0.7683" style="stop-color:#4C0E3D"/>
						</linearGradient>
						<path style="fill:url(#SVGID_00000070797552096275408870000006723704095552202369_);" d="M126.94,67.43
							c-0.73,2.68,0.67,5.5,3.11,6.29c2.44,0.79,5.01-0.74,5.73-3.43c0.73-2.68-0.67-5.5-3.11-6.29
							C130.23,63.22,127.66,64.75,126.94,67.43z"/>
						
							<linearGradient id="SVGID_00000096767914018689345270000008141292660854699193_" gradientUnits="userSpaceOnUse" x1="862.9612" y1="351.4513" x2="862.9612" y2="338.1846" gradientTransform="matrix(-0.8531 -0.5218 -0.5218 0.8531 1048.0375 232.9723)">
							<stop  offset="0.2317" style="stop-color:#000000"/>
							<stop  offset="0.2971" style="stop-color:#080406"/>
							<stop  offset="0.4012" style="stop-color:#1F1017"/>
							<stop  offset="0.5309" style="stop-color:#452332"/>
							<stop  offset="0.6812" style="stop-color:#793D58"/>
							<stop  offset="0.8466" style="stop-color:#BB5F87"/>
							<stop  offset="1" style="stop-color:#FF81B8"/>
						</linearGradient>
						<path style="opacity:0.32;fill:url(#SVGID_00000096767914018689345270000008141292660854699193_);" d="M125.85,72.92
							c-1.84,3.17-0.61,7.5,2.75,9.66c3.35,2.17,7.56,1.35,9.4-1.82c1.84-3.17,0.61-7.5-2.75-9.66S127.68,69.75,125.85,72.92z"/>
					</g>
				</g>
				<g style="clip-path:url(#SVGID_00000086693648967855523220000015932677112186924931_);">
					<path class="st17" d="M130.88,65.08c0.13-0.14-0.3-1.52-1.4-2.48c-1.1-0.97-2.44-1.21-2.58-1.02c-0.13,0.18,0.3,1.52,1.4,2.48
						C129.4,65.03,130.7,65.28,130.88,65.08z"/>
					<path class="st17" d="M132.97,66.51c0.05-0.06,0.11-0.41-0.05-0.55s-0.47-0.03-0.53,0.04c-0.06,0.07-0.11,0.41,0.05,0.55
						C132.61,66.69,132.91,66.59,132.97,66.51z"/>
				</g>
			</g>
		</g>
	</g>
	<g>
		
			<linearGradient id="SVGID_00000121238251262618247270000010932422051686569663_" gradientUnits="userSpaceOnUse" x1="826.6036" y1="77.3756" x2="814.7484" y2="89.2309" gradientTransform="matrix(-1 0 0 1 934.0873 0)">
			<stop  offset="0" style="stop-color:#FFA953"/>
			<stop  offset="1" style="stop-color:#EA524B"/>
		</linearGradient>
		<path style="fill:url(#SVGID_00000121238251262618247270000010932422051686569663_);" d="M124.91,82.41c0,0-7.38-3.53-10.07-9.25
			c0,0-10.32,5.02-13.06,10.91c0,0,2.08,0.66,9.78,0.93c0,0,3.12,2.29,5.98,3.79C120.41,90.29,124.91,82.41,124.91,82.41z"/>
		
			<linearGradient id="SVGID_00000078756646375537683030000011864718042339186578_" gradientUnits="userSpaceOnUse" x1="807.5358" y1="82.5341" x2="826.111" y2="82.5341" gradientTransform="matrix(-1 0 0 1 934.0873 0)">
			<stop  offset="0.3309" style="stop-color:#BA92D1"/>
			<stop  offset="1" style="stop-color:#C960D1"/>
		</linearGradient>
		<path style="opacity:0.51;fill:url(#SVGID_00000078756646375537683030000011864718042339186578_);" d="M115.36,74.13
			c3.23,4.96,9.4,7.42,10.02,7.74c0,0,1.63,0.8,1.05,3.86c0,0-1.67-2.95-2.88-0.6c-1.91,3.7-2.55,11.04-11.97-0.12l-9.78-0.93
			c0,0,14.68-0.31,14.21-4.52C115.52,75.34,115.36,74.13,115.36,74.13z"/>
		
			<linearGradient id="SVGID_00000122710484975072623040000006174956095217556877_" gradientUnits="userSpaceOnUse" x1="820.7369" y1="78.7593" x2="828.5212" y2="78.7593" gradientTransform="matrix(-1 0 0 1 934.0873 0)">
			<stop  offset="0.189" style="stop-color:#000000"/>
			<stop  offset="0.2709" style="stop-color:#060603"/>
			<stop  offset="0.379" style="stop-color:#16170A"/>
			<stop  offset="0.5018" style="stop-color:#313217"/>
			<stop  offset="0.6356" style="stop-color:#565829"/>
			<stop  offset="0.7782" style="stop-color:#868940"/>
			<stop  offset="0.9259" style="stop-color:#C0C45B"/>
			<stop  offset="1" style="stop-color:#E0E56A"/>
		</linearGradient>
		<path style="opacity:0.5;fill:url(#SVGID_00000122710484975072623040000006174956095217556877_);" d="M113.35,74.41
			c0,0-2.75,7.05-6.46,7.93c-3.71,0.89-3.92,0.76-3.92,0.76S103.78,79.36,113.35,74.41z"/>
	</g>
	<path class="st30" d="M121.6,58.94c0,0,3.99,2.63,6.24,2.28c2.25-0.35,6.1-7.75,11.56-8.32c0,0-2.99-0.51-7.43,3.78
		C127.52,60.97,121.6,58.94,121.6,58.94z"/>
	<path class="st30" d="M116.56,58.14c0,0-3.05,2.67-3.88,2.45c-0.83-0.22-2.64-5.75-3.65-6.19c-1.02-0.44-2.22-0.44-2.22-0.44
		s1.78-0.48,2.8,0.29C110.62,55,112.56,60.75,116.56,58.14z"/>
	<path class="st10" d="M111.57,85.01c0,0,9.84-3.66,14.03-0.89C125.6,84.12,127.92,79,111.57,85.01z"/>
	<path class="st31" d="M111.54,90.58c0,0,12.73,9.19,35.8,2.15c15.08-4.6,15.82-6.29,15.82-6.29s0.95,4.33-1.43,5.2
		c-2.38,0.87-6.88-1.1-15.83,3.32s-15.22,1.95-24.32-0.23c-9.1-2.18-10.38-0.64-10.38-0.64S112.61,91.5,111.54,90.58z"/>
	<path class="st1" d="M132.87,132.48c3.36,3.21,8.76,10.23-4.08,7.1c-12.83-3.13-21.61-7.96-25.83-9.29c0,0,19.54,9.47,28.81,12.52
		c9.28,3.05,8.06-3.4,4.57-6.86C132.87,132.48,132.87,132.48,132.87,132.48z"/>
	<path class="st1" d="M169.18,144.17c5.27-6.16,5.23-13.88,5.23-13.88c-8.96,8.2-22.63,21.35-22.63,21.35s-11.38,11.15-19.98,9.91
		c-8.59-1.24-30.15-19.87-30.21-19.92c0.02,0.03,0.21,0.44,0.48,6.67c0,0,0.13,0.64,0.19,3.14c0,0,2.64-2.48,3.46-2.86
		c0.83-0.38,20.31,13.65,24.77,14.55c3.97,0.8,24.81-7.44,35.33-15.87c1.28-0.93,2.36-1.95,3.29-3.02
		C169.14,144.22,169.16,144.2,169.18,144.17C169.18,144.17,169.18,144.17,169.18,144.17z"/>
	<path class="st1" d="M142.36,122.56l10.37-12.86C152.73,109.7,151.28,103.98,142.36,122.56z"/>
	<path class="st1" d="M106.17,225.02l22.49,7.62l-4,10.1l3.43,6.1c19.63-13.53,49.56-15.63,60.61-20.78
		c11.06-5.15,18.68-14.1,18.68-14.1s15.82,0,12.58-3.24c-3.24-3.24-9.15-16.58-9.15-16.58s1.91-8.39-2.48-20.59
		c-0.92-2.57-2.43-6.09-4.24-10.04c11.14,23-2.25,53.88-18.06,56.17c-15.82,2.29-56.01,20.98-54.89,12.96
		c1.11-8.02,13.15-23.83,13.15-23.83c-5.15,3.81-16.25,16.96-16.25,16.96s-16.92-12.77-24.16-11.82
		c-5.95,0.78-18.61,7.26-22.95,9.55l3.7,3.22C96.26,221.78,106.17,225.02,106.17,225.02z"/>
	
		<linearGradient id="SVGID_00000044170252999723622070000006110787731608022947_" gradientUnits="userSpaceOnUse" x1="116.6649" y1="253.5426" x2="116.6649" y2="220.7231">
		<stop  offset="0" style="stop-color:#EA524B"/>
		<stop  offset="1" style="stop-color:#FFA953"/>
	</linearGradient>
	<path style="fill:url(#SVGID_00000044170252999723622070000006110787731608022947_);" d="M123.59,253.54c0,0,3.51-4.12,6.89-6.06
		c3.38-1.94,3.38-4.64-1-2.7c0,0,4.81-7.17-2.02-2.78c0,0,0.46-10.96-0.76-14.33c-1.22-3.37-10.37-5.99-10.37-5.99l2.19,6.75
		c0,0-5.06-6.66-8.14-7.42c-3.08-0.76-7.71,0.3-7.71,0.3l4.51,5.69c0,0-2.74-1.56-6.75,0.38
		C100.43,227.36,118.08,239.88,123.59,253.54z"/>
	
		<linearGradient id="SVGID_00000175320783165286847070000016811354176052867761_" gradientUnits="userSpaceOnUse" x1="71.1921" y1="229.3993" x2="71.1921" y2="201.8767">
		<stop  offset="0" style="stop-color:#EA524B"/>
		<stop  offset="1" style="stop-color:#FFA953"/>
	</linearGradient>
	<path style="fill:url(#SVGID_00000175320783165286847070000016811354176052867761_);" d="M86.86,225.87c0,0-4.99,2.29-6.61,3.53
		c0,0-14.39-15.44-26.59-21.54c0,0,2.48-1.62,3.72-1.62c0,0-3.43-3.24-3.72-3.43c-0.29-0.19,7.05-2,11.15,0
		c4.1,2,13.82,18.58,14.3,18.77c0.48,0.19,1.5-0.67,1.5-0.67s5.84-1.04,3.45,1.62C84.06,222.54,92.33,223.87,86.86,225.87z"/>
	<path class="st34" d="M123.71,229.4c-1.91-2.95-7.39-7.73-7.39-7.73l2.19,6.75c2.43,5.88,2.24,10.98,2.24,10.98
		s-2.95-7.14-6.58-11.72c-3.62-4.57-11.21-6.01-11.21-6.01l4.21,5.31c3,2.83,5.95,9.37,5.95,9.37c-4.86-6.19-12.7-8.99-12.7-8.99
		s17.65,12.52,23.16,26.18c0,0,3.51-4.12,6.89-6.06c0.6-0.35,1.09-0.72,1.48-1.08l-7.19,2.83
		C124.76,249.22,125.61,232.35,123.71,229.4z"/>
	<path class="st34" d="M63,207.19c2.48,0.95,9.15,7.81,9.15,7.81s-3.72-6.96-6.67-8.83c-2.95-1.88-11.82-3.37-11.82-3.37
		c0.29,0.19,3.72,3.43,3.72,3.43S60.52,206.24,63,207.19z"/>
	<path class="st34" d="M64.53,210.05c-2.29-1.05-10.86-2.19-10.86-2.19c12.2,6.1,26.59,21.54,26.59,21.54
		c1.62-1.24,6.61-3.53,6.61-3.53c0.75-0.27,1.22-0.54,1.51-0.78l-8.12,2.22C80.25,227.3,66.81,211.1,64.53,210.05z"/>
	
		<linearGradient id="SVGID_00000166643498005304768390000016267681637493313209_" gradientUnits="userSpaceOnUse" x1="906.5439" y1="-37.4473" x2="871.3076" y2="-37.4473" gradientTransform="matrix(-0.9987 0.0512 0.0512 0.9987 1017.2008 29.5275)">
		<stop  offset="0" style="stop-color:#E09CE0"/>
		<stop  offset="0.0789" style="stop-color:#C489C4"/>
		<stop  offset="0.2636" style="stop-color:#896089"/>
		<stop  offset="0.4418" style="stop-color:#583D58"/>
		<stop  offset="0.609" style="stop-color:#322332"/>
		<stop  offset="0.7625" style="stop-color:#171017"/>
		<stop  offset="0.8977" style="stop-color:#060406"/>
		<stop  offset="1" style="stop-color:#000000"/>
	</linearGradient>
	<path style="opacity:0.25;fill:url(#SVGID_00000166643498005304768390000016267681637493313209_);" d="M113.18,38.13
		c-11.79,9.21,13.01,7.43,27.76,1.72C154.55,34.59,131.7,23.67,113.18,38.13z"/>
	<path class="st36" d="M121.1,45.14c2.94,0.25,4.76,0.32,5.68-1.15C127.7,42.51,114.95,44.61,121.1,45.14z"/>
	
		<linearGradient id="SVGID_00000019638523786938691570000006030891700966215830_" gradientUnits="userSpaceOnUse" x1="140.8542" y1="104.7454" x2="140.8542" y2="36.8171">
		<stop  offset="0" style="stop-color:#FFFFFF"/>
		<stop  offset="0.2" style="stop-color:#E8DBF0"/>
		<stop  offset="0.4171" style="stop-color:#D4BBE2"/>
		<stop  offset="0.6274" style="stop-color:#C6A4D9"/>
		<stop  offset="0.8259" style="stop-color:#BD97D3"/>
		<stop  offset="1" style="stop-color:#BA92D1"/>
	</linearGradient>
	<path style="fill:url(#SVGID_00000019638523786938691570000006030891700966215830_);" d="M143.25,98.64
		c11.12-8.18,19.12-7.57,25.72-1.45c-3.33-5.91-5.8-10.75-5.8-10.75s6.58-2.29,7.91-8.58c1.33-6.29-0.76-22.4-0.76-22.4
		c2.86-2.67,0.19-2.86,0.19-2.86s4.96-1.62,0.38-3.15c-2.7-0.9-7.24-7.46-14.5-12.65c8.18,5.95,9.56,28.35,3.61,31.97
		c0,0,7.37,3.48-2.54,13.31c-9.91,9.82-37.55,16.51-48.51,6.24c-0.02-0.02-0.03-0.03-0.05-0.04c1.76,1.48,3.04,2.61,3.01,3.21
		c-0.04,0.77-0.59,2.51-1.48,4.69C115.99,107.51,132.13,106.83,143.25,98.64z"/>
	<path class="st38" d="M204.26,198.48c5.13-10.39,2.54-19.54,0.15-24.34c-2.39-4.8-0.79,21.02-9.05,37.19
		C191.02,219.84,198.16,210.86,204.26,198.48z"/>
	<path class="st39" d="M169.67,60.52c-0.69-7.87-1.39-10.86-5.66-14.46c-2.72-2.29,4.21,9.01,4.97,16.08
		C169.67,68.61,170.52,70.37,169.67,60.52z"/>
	<path class="st38" d="M93.24,199.33c1.89,8.92,3.68,17.28,8.24,12.76c2.87-2.85-10.94-17.94-7.99-28.96
		C95.04,177.34,89.81,183.13,93.24,199.33z"/>
	<path class="st39" d="M171.92,132.25c4.77-4.52,5.85-9.02,5.76-11.98c-0.09-2.96-7.26,13.02-15.21,18.97
		C158.28,142.36,161.43,142.19,171.92,132.25z"/>
	
		<linearGradient id="SVGID_00000002345964556528581590000015420495255383761084_" gradientUnits="userSpaceOnUse" x1="133.6622" y1="121.3061" x2="164.7481" y2="121.3061">
		<stop  offset="0" style="stop-color:#E09CE0"/>
		<stop  offset="0.0789" style="stop-color:#C489C4"/>
		<stop  offset="0.2636" style="stop-color:#896089"/>
		<stop  offset="0.4418" style="stop-color:#583D58"/>
		<stop  offset="0.609" style="stop-color:#322332"/>
		<stop  offset="0.7625" style="stop-color:#171017"/>
		<stop  offset="0.8977" style="stop-color:#060406"/>
		<stop  offset="1" style="stop-color:#000000"/>
	</linearGradient>
	<path style="opacity:0.25;fill:url(#SVGID_00000002345964556528581590000015420495255383761084_);" d="M142.36,136.94
		c-3.44-3.16-9.31-3.37-8.64-4.46c0.67-1.09,8.34-8.73,15.65-17.95c7.31-9.22,14.93-16.36,15.36-2.93s-9.59,22.53-15.54,24.99
		C143.25,139.05,144.52,138.93,142.36,136.94z"/>
	
		<linearGradient id="SVGID_00000060733093704698299520000013150267975697215626_" gradientUnits="userSpaceOnUse" x1="903.9235" y1="337.2184" x2="881.1812" y2="337.2184" gradientTransform="matrix(-0.8277 -0.5612 -0.5612 0.8277 1084.4717 344.8682)">
		<stop  offset="0" style="stop-color:#9C3BE0"/>
		<stop  offset="0.0789" style="stop-color:#8934C4"/>
		<stop  offset="0.2636" style="stop-color:#602489"/>
		<stop  offset="0.4418" style="stop-color:#3D1758"/>
		<stop  offset="0.609" style="stop-color:#230D32"/>
		<stop  offset="0.7625" style="stop-color:#100617"/>
		<stop  offset="0.8977" style="stop-color:#040206"/>
		<stop  offset="1" style="stop-color:#000000"/>
	</linearGradient>
	<path style="opacity:0.38;fill:url(#SVGID_00000060733093704698299520000013150267975697215626_);" d="M169.95,123.45
		c-7.84,3.94-20.23-5.93-17.91-12.16l-7.39,8.95c0,0,5.9-6.39,10.27,0.31c4.37,6.7,1.81,11.5,1.81,11.5L169.95,123.45z"/>
	<path class="st42" d="M150.22,136.49c2.77-1.01,4.45-1.7,4.81-3.14C155.39,131.9,144.43,138.6,150.22,136.49z"/>
	<path class="st42" d="M99.33,135.69c0.85,1.28,1.42,2.05,2.44,1.99C102.8,137.63,97.55,133.02,99.33,135.69z"/>
	
		<linearGradient id="SVGID_00000029744200408568584950000009907821897276357000_" gradientUnits="userSpaceOnUse" x1="132.8858" y1="131.0007" x2="116.5777" y2="131.0007">
		<stop  offset="0" style="stop-color:#E09CE0"/>
		<stop  offset="0.0789" style="stop-color:#C489C4"/>
		<stop  offset="0.2636" style="stop-color:#896089"/>
		<stop  offset="0.4418" style="stop-color:#583D58"/>
		<stop  offset="0.609" style="stop-color:#322332"/>
		<stop  offset="0.7625" style="stop-color:#171017"/>
		<stop  offset="0.8977" style="stop-color:#060406"/>
		<stop  offset="1" style="stop-color:#000000"/>
	</linearGradient>
	<path style="opacity:0.25;fill:url(#SVGID_00000029744200408568584950000009907821897276357000_);" d="M117.04,128.57
		c7.91-1.75,9.59-0.59,12.52,1.9c2.92,2.49,6.5,4.08-1.8,3.76C119.45,133.91,115.09,129,117.04,128.57z"/>
	
		<linearGradient id="SVGID_00000106127770182359504430000008184648836783566755_" gradientUnits="userSpaceOnUse" x1="133.0983" y1="136.2729" x2="90.7727" y2="136.2729">
		<stop  offset="0" style="stop-color:#000000"/>
		<stop  offset="0.1023" style="stop-color:#060406"/>
		<stop  offset="0.2375" style="stop-color:#171017"/>
		<stop  offset="0.391" style="stop-color:#322332"/>
		<stop  offset="0.5582" style="stop-color:#583D58"/>
		<stop  offset="0.7364" style="stop-color:#896089"/>
		<stop  offset="0.9211" style="stop-color:#C489C4"/>
		<stop  offset="1" style="stop-color:#E09CE0"/>
	</linearGradient>
	<path style="opacity:0.25;fill:url(#SVGID_00000106127770182359504430000008184648836783566755_);" d="M90.77,130.47
		c4.92-3.99,4.28-4.88,11.84-0.31c7.56,4.57,27.54,11.82,30.23,13.44s-16.5,3.71-24.51-1.18c-8.01-4.89-12.01-11.02-14.17-11.42
		C92,130.6,90.77,130.47,90.77,130.47z"/>
	
		<linearGradient id="SVGID_00000059290894786653353840000008272850200370951076_" gradientUnits="userSpaceOnUse" x1="131.934" y1="161.6264" x2="131.934" y2="141.6261">
		<stop  offset="0.3186" style="stop-color:#BA92D1"/>
		<stop  offset="0.4878" style="stop-color:#C8A9DB"/>
		<stop  offset="0.8401" style="stop-color:#EDE3F3"/>
		<stop  offset="1" style="stop-color:#FFFFFF"/>
	</linearGradient>
	<path style="opacity:0.6;fill:url(#SVGID_00000059290894786653353840000008272850200370951076_);" d="M101.59,141.63
		c11.63,10.2,31.79,11.91,37.34,12.29c5.55,0.38,23.34-12.29,23.34-12.29s-18.66,20.27-28.61,20
		C123.71,161.35,101.59,141.63,101.59,141.63z"/>
	
		<linearGradient id="SVGID_00000048460381743191522790000006276420735558460093_" gradientUnits="userSpaceOnUse" x1="121.5735" y1="126.984" x2="121.5735" y2="118.9993">
		<stop  offset="0" style="stop-color:#E09CE0"/>
		<stop  offset="0.4141" style="stop-color:#865D86"/>
		<stop  offset="1" style="stop-color:#000000"/>
	</linearGradient>
	<path style="opacity:0.5;fill:url(#SVGID_00000048460381743191522790000006276420735558460093_);" d="M101.92,119.09
		c0.61,7.38,17.25,10.93,31.75,4.67c8.34-3.6,12.1-6.42-0.82-4.4c-14.79,2.32-28.96,1.03-29.88-4.1
		C102.05,110.13,101.79,117.5,101.92,119.09z"/>
	
		<linearGradient id="SVGID_00000111174277101985767540000018394641380782221751_" gradientUnits="userSpaceOnUse" x1="112.929" y1="169.0758" x2="114.5756" y2="155.6281">
		<stop  offset="0" style="stop-color:#000000"/>
		<stop  offset="0.5859" style="stop-color:#865D86"/>
		<stop  offset="1" style="stop-color:#E09CE0"/>
	</linearGradient>
	<path style="opacity:0.5;fill:url(#SVGID_00000111174277101985767540000018394641380782221751_);" d="M104.97,154.7
		c6.37-0.21,22.48,12.18,24.14,14.97c1.65,2.8-34.3,3.09-32.14-3.3C99.12,159.98,100.53,154.85,104.97,154.7z"/>
	<path class="st1" d="M164.59,191.75c0,0,14.58-6.39,21.44-6.39C186.04,185.37,176.12,174.31,164.59,191.75z"/>
	<path class="st48" d="M130.63,126.18c-2.22,0.03-23.63,2.58-24.91,2.45c-1.27-0.13-4.12-3.1-4.13-3.11
		c0.51,2.99,1.37,4.76,1.37,4.76s19.49-3.34,22.17-2.76c2.68,0.57,7.74,4.96,7.74,4.96l9.14-9.24l-6.92,5.4
		C135.08,128.64,132.86,126.16,130.63,126.18z"/>
	<path class="st49" d="M103.73,109.58c-3.87,7.47-2.38,14.17,5.97,15.61c3.55,0.61-1.84-2.02-3.04-13.06
		c-0.26-2.38,0.69-6,1.28-8.28C109.22,98.89,107.66,101.99,103.73,109.58z"/>
</g>
</svg>
