<?xml version="1.0" encoding="UTF-8"?><svg xmlns="http://www.w3.org/2000/svg" xmlns:xlink="http://www.w3.org/1999/xlink" viewBox="0 0 595.28 841.89"><defs><style>.cls-1{fill:url(#_ÂÁ_Ï_ÌÌ_È_ËÂÌÚ_178-2);}.cls-1,.cls-2,.cls-3,.cls-4,.cls-5,.cls-6,.cls-7,.cls-8,.cls-9,.cls-10,.cls-11{mix-blend-mode:multiply;}.cls-12{fill:none;}.cls-13{fill:url(#_ÂÁ_Ï_ÌÌ_È_ËÂÌÚ_189-2);}.cls-14{opacity:.28;}.cls-14,.cls-15,.cls-16,.cls-17,.cls-18,.cls-19,.cls-20,.cls-21,.cls-22,.cls-23,.cls-24,.cls-25,.cls-26{mix-blend-mode:screen;}.cls-14,.cls-15,.cls-18{fill:#e09ce0;}.cls-15{opacity:.15;}.cls-27{fill:url(#_ÂÁ_Ï_ÌÌ_È_ËÂÌÚ_83);}.cls-28{clip-path:url(#clippath);}.cls-29,.cls-30,.cls-31{fill:#f4e2f1;}.cls-32{fill:#fff;}.cls-33{fill:#2e0043;}.cls-34{fill:#5d2755;}.cls-2{fill:url(#_ÂÁ_Ï_ÌÌ_È_ËÂÌÚ_66);opacity:.6;}.cls-16{fill:url(#_ÂÁ_Ï_ÌÌ_È_ËÂÌÚ_198-2);}.cls-16,.cls-19,.cls-20{opacity:.38;}.cls-17{fill:url(#_ÂÁ_Ï_ÌÌ_È_ËÂÌÚ_79);}.cls-17,.cls-21,.cls-22{opacity:.25;}.cls-3{fill:#8486ea;opacity:.37;}.cls-4{opacity:.85;}.cls-4,.cls-6{fill:#ba92d1;}.cls-5{fill:#c960d1;}.cls-5,.cls-31{opacity:.71;}.cls-6{opacity:.72;}.cls-18{opacity:.08;}.cls-19{fill:url(#_ÂÁ_Ï_ÌÌ_È_ËÂÌÚ_238);}.cls-20{fill:url(#_ÂÁ_Ï_ÌÌ_È_ËÂÌÚ_198);}.cls-21{fill:url(#_ÂÁ_Ï_ÌÌ_È_ËÂÌÚ_154);}.cls-22{fill:url(#_ÂÁ_Ï_ÌÌ_È_ËÂÌÚ_187);}.cls-23{fill:url(#_ÂÁ_Ï_ÌÌ_È_ËÂÌÚ_144);opacity:.32;}.cls-35{isolation:isolate;}.cls-24{fill:url(#_ÂÁ_Ï_ÌÌ_È_ËÂÌÚ_213);}.cls-24,.cls-25,.cls-26{opacity:.5;}.cls-25{fill:url(#_ÂÁ_Ï_ÌÌ_È_ËÂÌÚ_212);}.cls-26{fill:url(#_ÂÁ_Ï_ÌÌ_È_ËÂÌÚ_110);}.cls-36{fill:url(#_ÂÁ_Ï_ÌÌ_È_ËÂÌÚ_220);}.cls-37{fill:url(#_ÂÁ_Ï_ÌÌ_È_ËÂÌÚ_227);}.cls-38{fill:url(#_ÂÁ_Ï_ÌÌ_È_ËÂÌÚ_152);}.cls-39{fill:url(#_ÂÁ_Ï_ÌÌ_È_ËÂÌÚ_313);}.cls-40{fill:url(#_ÂÁ_Ï_ÌÌ_È_ËÂÌÚ_189);}.cls-30{opacity:.88;}.cls-7{fill:url(#_ÂÁ_Ï_ÌÌ_È_ËÂÌÚ_197);opacity:.51;}.cls-41{fill:#f46f9f;opacity:.36;}.cls-8{fill:url(#_ÂÁ_Ï_ÌÌ_È_ËÂÌÚ_118);opacity:.31;}.cls-9{fill:url(#_ÂÁ_Ï_ÌÌ_È_ËÂÌÚ_117);opacity:.43;}.cls-10{fill:url(#_ÂÁ_Ï_ÌÌ_È_ËÂÌÚ_178);}.cls-11{fill:url(#_ÂÁ_Ï_ÌÌ_È_ËÂÌÚ_196);}</style><linearGradient id="_ÂÁ_Ï_ÌÌ_È_ËÂÌÚ_220" x1="-1484.69" y1="125.07" x2="-1464.65" y2="27.55" gradientTransform="translate(1632.96)" gradientUnits="userSpaceOnUse"><stop offset=".07" stop-color="#2e0043"/><stop offset=".24" stop-color="#370846"/><stop offset=".52" stop-color="#521e51"/><stop offset=".88" stop-color="#7c4161"/><stop offset="1" stop-color="#8d4f68"/></linearGradient><linearGradient id="_ÂÁ_Ï_ÌÌ_È_ËÂÌÚ_83" x1="-1548.96" y1="203.91" x2="-1548.96" y2="-7.69" gradientTransform="translate(1632.96)" gradientUnits="userSpaceOnUse"><stop offset="0" stop-color="#ba92d1"/><stop offset=".39" stop-color="#cea8d7"/><stop offset="1" stop-color="#f4d3e3"/></linearGradient><linearGradient id="_ÂÁ_Ï_ÌÌ_È_ËÂÌÚ_313" x1="-1439.44" y1="202.45" x2="-1439.44" y2="-5.39" gradientTransform="translate(1632.96)" gradientUnits="userSpaceOnUse"><stop offset="0" stop-color="#ba92d1"/><stop offset=".3" stop-color="#cea8d7"/><stop offset=".77" stop-color="#f4d3e3"/></linearGradient><linearGradient id="_ÂÁ_Ï_ÌÌ_È_ËÂÌÚ_118" x1="-1320.77" y1="213.95" x2="-1303.53" y2="204.03" gradientTransform="translate(1488.46 -436.39) rotate(-13.03)" gradientUnits="userSpaceOnUse"><stop offset=".47" stop-color="#fff"/><stop offset=".55" stop-color="#e3d0e3"/><stop offset=".72" stop-color="#b079b1"/><stop offset=".85" stop-color="#8a3a8c"/><stop offset=".95" stop-color="#731275"/><stop offset="1" stop-color="#6b046d"/></linearGradient><linearGradient id="_ÂÁ_Ï_ÌÌ_È_ËÂÌÚ_117" x1="-1313.94" y1="209.92" x2="-1320.52" y2="216.49" gradientTransform="translate(1488.46 -436.39) rotate(-13.03)" gradientUnits="userSpaceOnUse"><stop offset=".19" stop-color="#fff"/><stop offset=".32" stop-color="#e3d0e3"/><stop offset=".57" stop-color="#b079b1"/><stop offset=".77" stop-color="#8a3a8c"/><stop offset=".92" stop-color="#731275"/><stop offset="1" stop-color="#6b046d"/></linearGradient><clipPath id="clippath"><path class="cls-12" d="m245.63,66.4s3.04-7.8,12.16-8.86c4-.46,6.72,10.52-.69,14.14-.79.39-1.76.82-3.11.8-2.11-.02-5.73-.29-8.36-6.09Z"/></clipPath><linearGradient id="_ÂÁ_Ï_ÌÌ_È_ËÂÌÚ_152" x1="-1342.42" y1="26.88" x2="-1342.42" y2="10.09" gradientTransform="translate(1595.24 12.53) rotate(-1.5)" gradientUnits="userSpaceOnUse"><stop offset=".12" stop-color="#fff"/><stop offset=".32" stop-color="#fafafc"/><stop offset=".54" stop-color="#edeef6"/><stop offset=".77" stop-color="#d6d9ec"/><stop offset="1" stop-color="#babfdf"/></linearGradient><linearGradient id="_ÂÁ_Ï_ÌÌ_È_ËÂÌÚ_178" x1="-1233.94" y1="32.34" x2="-1233.94" y2="20.67" gradientTransform="translate(1395.32 -69.24) rotate(-5.34) scale(.93 1) skewX(2.27)" gradientUnits="userSpaceOnUse"><stop offset="0" stop-color="#bf92ed"/><stop offset="0" stop-color="#bd90eb"/><stop offset=".15" stop-color="#9b69b6"/><stop offset=".29" stop-color="#7e488a"/><stop offset=".42" stop-color="#682f69"/><stop offset=".55" stop-color="#581c50"/><stop offset=".67" stop-color="#4f1142"/><stop offset=".77" stop-color="#4c0e3d"/></linearGradient><linearGradient id="_ÂÁ_Ï_ÌÌ_È_ËÂÌÚ_178-2" x1="-1233.72" y1="30.27" x2="-1233.72" y2="22.97" xlink:href="#_ÂÁ_Ï_ÌÌ_È_ËÂÌÚ_178"/><linearGradient id="_ÂÁ_Ï_ÌÌ_È_ËÂÌÚ_144" x1="-1256.52" y1="290.5" x2="-1256.52" y2="280.89" gradientTransform="translate(1324.55 -653.64) rotate(-21.33)" gradientUnits="userSpaceOnUse"><stop offset=".23" stop-color="#000"/><stop offset=".3" stop-color="#080406"/><stop offset=".4" stop-color="#1f0f16"/><stop offset=".53" stop-color="#452231"/><stop offset=".68" stop-color="#793d57"/><stop offset=".85" stop-color="#bb5e87"/><stop offset="1" stop-color="#ff81b8"/></linearGradient><linearGradient id="_ÂÁ_Ï_ÌÌ_È_ËÂÌÚ_227" x1="-1325.04" y1="163.96" x2="-1323.89" y2="151.46" gradientTransform="translate(1560.64 -253.2) rotate(-7.48)" gradientUnits="userSpaceOnUse"><stop offset="0" stop-color="#ea524b"/><stop offset="1" stop-color="#ffa953"/></linearGradient><linearGradient id="_ÂÁ_Ï_ÌÌ_È_ËÂÌÚ_110" x1="-1553.28" y1="-216.31" x2="-1555" y2="-231.58" gradientTransform="translate(1853.08 859.27) rotate(18.75) scale(1.14 1)" gradientUnits="userSpaceOnUse"><stop offset=".19" stop-color="#000"/><stop offset=".27" stop-color="#050405"/><stop offset=".38" stop-color="#160f16"/><stop offset=".51" stop-color="#312231"/><stop offset=".64" stop-color="#583d58"/><stop offset=".79" stop-color="#895f89"/><stop offset=".94" stop-color="#c488c4"/><stop offset="1" stop-color="#e09ce0"/></linearGradient><linearGradient id="_ÂÁ_Ï_ÌÌ_È_ËÂÌÚ_196" x1="-1402.18" y1="97.25" x2="-1402.18" y2="38.29" gradientTransform="translate(1632.96)" gradientUnits="userSpaceOnUse"><stop offset="0" stop-color="#fff"/><stop offset=".18" stop-color="#eadef1"/><stop offset=".41" stop-color="#d5bde3"/><stop offset=".63" stop-color="#c6a5d9"/><stop offset=".83" stop-color="#bd96d3"/><stop offset="1" stop-color="#ba92d1"/></linearGradient><linearGradient id="_ÂÁ_Ï_ÌÌ_È_ËÂÌÚ_154" x1="-1380.81" y1="-177.62" x2="-1404.02" y2="-177.62" gradientTransform="translate(1607.3 414.66) rotate(8.01)" gradientUnits="userSpaceOnUse"><stop offset="0" stop-color="#e09ce0"/><stop offset=".08" stop-color="#c488c4"/><stop offset=".26" stop-color="#895f89"/><stop offset=".44" stop-color="#583d58"/><stop offset=".61" stop-color="#312231"/><stop offset=".76" stop-color="#160f16"/><stop offset=".9" stop-color="#050405"/><stop offset="1" stop-color="#000"/></linearGradient><linearGradient id="_ÂÁ_Ï_ÌÌ_È_ËÂÌÚ_66" x1="-1579" y1="110.83" x2="-1432.86" y2="38.7" gradientTransform="translate(1632.96)" gradientUnits="userSpaceOnUse"><stop offset=".58" stop-color="#ba92d1"/><stop offset=".68" stop-color="#c8a8da"/><stop offset=".9" stop-color="#ede2f3"/><stop offset="1" stop-color="#fff"/></linearGradient><linearGradient id="_ÂÁ_Ï_ÌÌ_È_ËÂÌÚ_189" x1="-1562.48" y1="50.01" x2="-1601.9" y2="50.01" gradientTransform="translate(1632.96)" gradientUnits="userSpaceOnUse"><stop offset="0" stop-color="#ffa953"/><stop offset="1" stop-color="#ea524b"/></linearGradient><linearGradient id="_ÂÁ_Ï_ÌÌ_È_ËÂÌÚ_189-2" x1="-1533.15" y1="176.61" x2="-1575.6" y2="170.16" gradientTransform="translate(1543.44 -320.83) rotate(-8.65)" xlink:href="#_ÂÁ_Ï_ÌÌ_È_ËÂÌÚ_189"/><linearGradient id="_ÂÁ_Ï_ÌÌ_È_ËÂÌÚ_212" x1="-1365.03" y1="71.19" x2="-1357.02" y2="71.19" gradientTransform="translate(1632.96)" gradientUnits="userSpaceOnUse"><stop offset=".19" stop-color="#000"/><stop offset=".27" stop-color="#050502"/><stop offset=".38" stop-color="#16160a"/><stop offset=".5" stop-color="#303117"/><stop offset=".64" stop-color="#565828"/><stop offset=".78" stop-color="#86893f"/><stop offset=".93" stop-color="#c0c45a"/><stop offset="1" stop-color="#e0e56a"/></linearGradient><linearGradient id="_ÂÁ_Ï_ÌÌ_È_ËÂÌÚ_197" x1="-1378.59" y1="75.94" x2="-1355.45" y2="75.94" gradientTransform="translate(1632.96)" gradientUnits="userSpaceOnUse"><stop offset=".33" stop-color="#ba92d1"/><stop offset="1" stop-color="#c960d1"/></linearGradient><linearGradient id="_ÂÁ_Ï_ÌÌ_È_ËÂÌÚ_79" x1="-1519.01" y1="92.64" x2="-1435" y2="92.64" gradientTransform="translate(1632.96)" gradientUnits="userSpaceOnUse"><stop offset=".25" stop-color="#000"/><stop offset=".32" stop-color="#050405"/><stop offset=".43" stop-color="#160f16"/><stop offset=".54" stop-color="#312231"/><stop offset=".67" stop-color="#583d58"/><stop offset=".8" stop-color="#895f89"/><stop offset=".94" stop-color="#c488c4"/><stop offset="1" stop-color="#e09ce0"/></linearGradient><linearGradient id="_ÂÁ_Ï_ÌÌ_È_ËÂÌÚ_187" x1="-1525.79" y1="45.87" x2="-1474.18" y2="45.87" gradientTransform="translate(1632.96)" gradientUnits="userSpaceOnUse"><stop offset="0" stop-color="#000"/><stop offset=".1" stop-color="#050405"/><stop offset=".24" stop-color="#160f16"/><stop offset=".39" stop-color="#312231"/><stop offset=".56" stop-color="#583d58"/><stop offset=".74" stop-color="#895f89"/><stop offset=".92" stop-color="#c488c4"/><stop offset="1" stop-color="#e09ce0"/></linearGradient><linearGradient id="_ÂÁ_Ï_ÌÌ_È_ËÂÌÚ_213" x1="-1413.02" y1="102.61" x2="-1413.02" y2="92.64" gradientTransform="translate(1632.96)" gradientUnits="userSpaceOnUse"><stop offset="0" stop-color="#e09ce0"/><stop offset=".06" stop-color="#c488c4"/><stop offset=".21" stop-color="#895f89"/><stop offset=".36" stop-color="#583d58"/><stop offset=".49" stop-color="#312231"/><stop offset=".62" stop-color="#160f16"/><stop offset=".73" stop-color="#050405"/><stop offset=".81" stop-color="#000"/></linearGradient><linearGradient id="_ÂÁ_Ï_ÌÌ_È_ËÂÌÚ_238" x1="-2424.29" y1="-577.69" x2="-2457.62" y2="-577.69" gradientTransform="translate(2112.49 1663.62) rotate(31.76) scale(1.22 .53) skewX(-34.77)" gradientUnits="userSpaceOnUse"><stop offset="0" stop-color="#9c3be0"/><stop offset=".08" stop-color="#8833c4"/><stop offset=".26" stop-color="#5f2489"/><stop offset=".44" stop-color="#3d1758"/><stop offset=".61" stop-color="#220d31"/><stop offset=".76" stop-color="#0f0516"/><stop offset=".9" stop-color="#040105"/><stop offset="1" stop-color="#000"/></linearGradient><linearGradient id="_ÂÁ_Ï_ÌÌ_È_ËÂÌÚ_198" x1="-1536.98" y1="50.66" x2="-1483.37" y2="50.66" gradientTransform="translate(1632.96)" gradientUnits="userSpaceOnUse"><stop offset="0" stop-color="#000"/><stop offset=".1" stop-color="#040105"/><stop offset=".24" stop-color="#0f0516"/><stop offset=".39" stop-color="#220d31"/><stop offset=".56" stop-color="#3d1758"/><stop offset=".74" stop-color="#5f2489"/><stop offset=".92" stop-color="#8833c4"/><stop offset="1" stop-color="#9c3be0"/></linearGradient><linearGradient id="_ÂÁ_Ï_ÌÌ_È_ËÂÌÚ_198-2" x1="-1407.49" y1="48.33" x2="-1376.85" y2="48.33" xlink:href="#_ÂÁ_Ï_ÌÌ_È_ËÂÌÚ_198"/></defs><g class="cls-35"><g id="katman_1"><g><path class="cls-36" d="m91.81,20.64s-1.26-12.34,4-7.07c5.26,5.26,18.92,16.12,24.34,17.76,5.43,1.64,28.13,12.67,37.01,19.57,0,0,.22-2.85,3.4,0,0,0,.44-2.19,3.95,1.32,3.51,3.51,41.36,4.26,44.32,4.09,2.96-.16,4.77-2.96,4.77-2.96,0,0-4.44-2.8-1.73-3.13,0,0-3.87-3.21.66-2.88,4.52.33,10.65-8.89,24.51-10.03,18.25-1.51,26.81,9.54,29.61,14.47,2.8,4.93-.44,13.63,1.95,18.57,2.38,4.93-1.62,9.44-18.07,15.81-27.8,10.77-22.92,23.58-56.11,31.27-16.89,3.92-22.7,2.72-45.07,3.37-16.94.49-31.66-2.96-31.66-2.96,0,0-24.34,10.03-48.52,9.21s-27.47-4.11-8.39-6.91c19.08-2.8,31.59-14.85,31.59-14.85,0,0-14.81-8.17-28.63-16.73-13.82-8.55-16.61-8.22-16.61-8.22l2.63-2.14s28.46-3.62,27.63-18.42c0,0-7.73-7.9-10.53-10.36s.82-3.95.82-3.95c0,0,12.17,3.78,14.47.82,2.3-2.96,7.24-11.18,7.24-13.65s-1.1-15.95,2.41-12.01Z"/><path class="cls-27" d="m91.37,43.01c2.3-5.76-1.15-5.26-1.97-10.36,0,2.47-5.22,10.73-7.52,13.69-3.78,4.77-4.41,11.41-4.48,13.45.13,2.31-.46,4.34-1.53,6.13,5.19-8.8,13.21-17.17,15.51-22.91Z"/><path class="cls-39" d="m258.06,50.72c-7.81,2.62-10.17,7.86-14.69,15.42,0,0-9.65-5.61-14.64,2.18-5.1,7.97,4.77,15.52,4.77,15.52,0,0-39.66,8.35-32.26,15.42,0,0-4.93-5.26-22.7.82-17.76,6.09-44.79,12.62-60.86,17.76,0,0,13.98,4.17,30.92,3.67,22.37-.65,29.08.19,45.97-3.73,33.19-7.7,28.89-20.36,56.69-31.13,16.45-6.37,19.79-11.82,17.41-16.76-1.12-2.31-.93-6.83-.83-9.47-.2-5.81-3.09-11.96-9.78-9.71Z"/><g><path class="cls-8" d="m245.63,66.4s.65-5.79,10.59-12.22c9.95-6.43,11.03,8.67,5.12,15.36-5.91,6.69-15.71-3.15-15.71-3.15Z"/><path class="cls-33" d="m245.63,66.4s2.22-6.97,9.94-9.32,6.76,4.86,6.17,7.55c-.59,2.69-16.11,1.77-16.11,1.77Z"/><path class="cls-9" d="m245.63,66.4s4.58,10.97,13.79,4.51c8.67-6.08-13.79-4.51-13.79-4.51Z"/><g class="cls-28"><path class="cls-38" d="m245.63,66.4s2.84-8.54,12.16-8.86c4.52-.16,6.39,12.85-1.03,16.47-.79.39-1.71.49-2.57.3-2.03-.47-5.94-2.11-8.57-7.91Z"/><path class="cls-3" d="m244.97,69.23c.28-7.93,16.13-11.81,16.8-1.61s3.47-12.92,3.47-12.92l-12.24-3.45-11,7.48.75,8.67,2.22,1.83Z"/><g><path class="cls-10" d="m263.04,63.09c.26,3.22-1.62,6.15-4.21,6.54-2.59.39-4.89-1.91-5.16-5.13-.26-3.22,1.62-6.15,4.21-6.54,2.59-.39,4.89,1.91,5.16,5.13Z"/><path class="cls-1" d="m261.51,63.45c.16,2.01-1.01,3.84-2.63,4.09s-3.06-1.19-3.22-3.21c-.16-2.01,1.01-3.84,2.63-4.09s3.06,1.19,3.22,3.21Z"/><path class="cls-23" d="m262.95,67.52c.89,2.5-.59,5.46-3.3,6.61-2.71,1.15-5.63.06-6.52-2.44-.89-2.5.59-5.46,3.3-6.61,2.71-1.15,5.63-.06,6.52,2.44Z"/></g><g><path class="cls-32" d="m257.33,62.39c-.1.1-.84.17-1.27-.22-.43-.39-.4-1.08-.27-1.2.12-.11.84-.17,1.27.22s.41,1.06.27,1.2Z"/><path class="cls-32" d="m258.52,63.78s-.29.12-.41.01c-.11-.1-.05-.34,0-.38.05-.05.29-.12.41-.01.11.1.06.33,0,.38Z"/></g></g><path class="cls-34" d="m256.84,53.81s4.17-2.09,6.2-.23c0,0,.11-3.25-6.2.23Z"/></g><path class="cls-37" d="m279.3,74.53s-4.28-4.83-11.18-6.38c0,0-4.3,6.26-11.55,7.44,0,0,5.59,3.8,2.26,7.76,0,0,8.78-2.13,11.37-6.41,0,0,3.35-.2,9.09-2.4Z"/><path class="cls-26" d="m234.46,64.87c6.71-1.97,23.89,12.17,16.86,19.3-3.38,3.43-9.06,3.8-16.47-.58-6.89-4.07-10.88-15.65-.39-18.72Z"/><path class="cls-41" d="m240,67.37c6.33.38,12,10.97,7.45,12.03-7.24,1.69-15.88-12.54-7.45-12.03Z"/><path class="cls-33" d="m257.68,73.97s-2.01.66-.88,1.19c1.13.54,7.74,1.9,13.4,1.78,0,0-6.21,1.19-13.9-1.27,0,0-1.13-.21-.83.66,0,0-1.13-2.17,2.21-2.36Z"/><path class="cls-11" d="m236.52,80.32c-8.67-6.46-4.98-14.86-4.98-14.86,0,0-14.42-21.89-.09-27.17-10.01,2.67-15.06,9.33-18.92,9.05-4.52-.33-.66,2.88-.66,2.88-2.71.33,1.73,3.13,1.73,3.13,0,0-1.81,2.8-4.77,2.96-.55.03-2.48.03-5.27,0,15.46,1.31,6.91,15.96,16.29,22.54,9.38,6.58,17.43,12.83,12.01,17.76-.25.23-.46.44-.68.64,5.24-3.58,11.3-7.19,20.08-10.59,2.55-.99,4.78-1.95,6.73-2.9-.02,0-12.82,3.03-21.48-3.43Z"/><path class="cls-6" d="m213.6,53.35s-3.54,6.77,6.33,18.56c9.87,11.79,16.17,15.94,33.05,14.07l-3.88,1.55s-1.99-1.3-8.59-.71c-6.59.59-12.22-.15-20.82-13.87-8.6-13.71-7.4-16.65-10.86-16.63,0,0,2.77.11,4.77-2.96Z"/><path class="cls-21" d="m262.34,46.89c6.91,8.52-8.29,2.79-17.91-3.17-8.87-5.49,8.38-8.57,17.91,3.17Z"/><path class="cls-29" d="m252.7,48.3c-1.87-.42-3.03-.73-3.57-1.86-.54-1.13,7.48,2.73,3.57,1.86Z"/><path class="cls-4" d="m92.37,105.29c19.62-16.23,45.39-26.42,55.53-29.55,0,0-18.52.82-29.96,5.64-11.43,4.82-25.57,23.91-25.57,23.91Z"/><path class="cls-2" d="m191.7,88.57c-11.18,7.07-71.55,25-88.98,28.29-17.43,3.29-23.52,6.09,2.96-13.49,26.48-19.57,50.5-33.39,66.12-37.16s27.96-2.98,27.96-2.98c0,0-8.68-6.9-22.25-8.3-.09,0-.18-.02-.27-.03-.38-.04-.75-.09-1.13-.11-.02,0-.04,0-.06,0-3.67-.39-6.84-.86-8.97-1.44,11.91,6.4-30.47,21.9-43.96,22.25-13.49.35-27.47-14.99-28.78-32.42-1.32-17.43,9.87-7.9,9.87-7.9-10.03-11.02-11.51-24.34-8.39-21.71-5.26-5.26-4,7.07-4,7.07-3.51-3.95-2.41,9.54-2.41,12.01s-4.93,10.69-7.24,13.65c-2.3,2.96-14.47-.82-14.47-.82,0,0-3.62,1.48-.82,3.95,2.8,2.47,10.53,10.36,10.53,10.36.82,14.8-27.63,18.42-27.63,18.42l-2.63,2.14s2.8-.33,16.61,8.22c13.82,8.55,28.63,16.73,28.63,16.73,0,0-12.51,12.06-31.59,14.86-19.08,2.8-15.79,6.09,8.39,6.91,24.18.82,48.52-9.21,48.52-9.21,0,0,13.98,4.17,30.92,3.67,22.37-.65,29.08.19,45.97-3.73,20.28-4.7,26.57-11.26,34.73-18.11-14.7,11.61-26.42-18.18-37.61-11.11Z"/><path class="cls-4" d="m62.83,80.35c10.86-3.04,15.3-16.45,18.26-21.71,2.61-4.65.49-9.67,1.72-13.22-.23.33-.45.63-.65.89-.32.41-.85.68-1.49.86-3.41,2.94-4.18,6.05-4.18,6.05l-10.54-4.96c.15.36.43.75.91,1.18,2.8,2.47,10.53,10.36,10.53,10.36.82,14.8-27.63,18.42-27.63,18.42l-2.63,2.14s2.8-.33,16.61,8.22c13.82,8.55,28.63,16.73,28.63,16.73l10.88-8.05s-51.27-13.86-40.41-16.9Z"/><path class="cls-40" d="m66.04,44.08s-23.36,3.04-31.91,0l.55,2.33h-3.62s2.52,4.82,4.93,5.92c2.41,1.1,3.84,1.21,3.84,1.21,0,0,3.29,2.19,5.59,2.41,2.3.22,15.68-6.8,17.54-7.57,1.86-.77,6.19,1.91,4.06-.82,0,0,8.39,1.32-.99-3.48Z"/><path class="cls-13" d="m44.9,76.07s-20.85,7.49-30.58,5.61l.97,2.42-3.9.59s3.51,4.79,6.3,5.58c2.78.79,4.34.67,4.34.67,0,0,3.91,1.83,6.43,1.69,2.52-.14,15.8-9.91,17.69-11.04,1.89-1.13,6.99,1.05,4.24-1.55,0,0,8.19-1.43.95-2.15-1.06-.11-4.76-1.26-6.43-1.82Z"/><path class="cls-5" d="m61.84,47.78c-2.22.74-16.45,6.25-17.76,6.17-1.32-.08-4.52-1.64-4.52-1.64l18.34-5.62s-18.67,2.91-20.56,2.6c-1.89-.31-4.85-2.33-4.85-2.33l20.4-.9h-17.02c-.58,0-1.73-1.97-1.73-1.97l.55,2.33h-3.62s2.52,4.82,4.93,5.92c2.41,1.1,3.84,1.21,3.84,1.21,0,0,3.29,2.19,5.59,2.41,2.3.22,15.68-6.8,17.54-7.57,1.34-.55,3.93.67,4.51.39-.15-.08-3.46-1.72-5.63-.99Z"/><path class="cls-5" d="m11.39,84.7s3.51,4.79,6.3,5.58c2.78.79,4.34.67,4.34.67,0,0,3.91,1.83,6.43,1.69s15.8-9.91,17.69-11.04c1.65-.99,5.75.55,4.93-.78-2.78-.84-6.03-1.6-6.75-.88-1.32,1.32-13.57,9.87-15.87,10.94-2.3,1.07-5.43-.35-5.43-.35l16.37-10.18s-18.18,8.47-20.81,7.98c-2.63-.49-4.85-3.37-4.85-3.37,3.21-.33,23.19-5.43,23.19-5.43,0,0-15.3,3.37-17.11,3.37s-5.5-1.22-5.5-1.22l.97,2.42-3.9.59Z"/><path class="cls-4" d="m142.52,113.41l35.84-13.26c-17.77,6.07-44.66,12.58-60.68,17.7,0,0,13.98,4.17,30.92,3.67,22.37-.65,29.08.19,45.97-3.73,1.18-.27,2.3-.55,3.38-.84-28.84,6.63-55.44-3.55-55.44-3.55Z"/><path class="cls-25" d="m267.93,68.15s3.03,4.75,6.23,5.52,4.44.53,4.44.53c0,0-2.84-3.75-10.67-6.04Z"/><path class="cls-7" d="m258.83,83.35s8.78-2.13,11.37-6.41c0,0,3.35-.2,9.09-2.4-4.82.9-12.84.72-13-1.08-.16-1.8,1.82-5.3,1.82-5.3-4.78,4.8-10.54,7.2-10.64,6.63-.1-.58.7-.95.7-.95,0,0-2.58.18-3.36,1.23-1.34,1.8.82,2.63.82,2.63,1.09-.82,6.7,3.44,2.41,6.04.27-.13.54-.26.8-.39,0,0,0,0,0,0Z"/><path class="cls-17" d="m156.53,75.32c15.22-2.82,50.69,5.16,39.16,11.71-11.53,6.55-47.13,17.55-68.79,22.58-21.66,5.03-13-11.49,2.89-21.51,15.89-10.03,23.21-12.12,26.74-12.77Z"/><path class="cls-22" d="m138.22,62.25c27.83-2.79,26.21-9.23,2.41-21.19-24.43-12.27-33.61-15.98-33.46-6.28.15,9.7,5.37,30.05,31.04,27.47Z"/><path class="cls-31" d="m173.27,95.49c4.74-2.33,7.7-3.68,9.62-2.79,1.93.89-19.54,7.67-9.62,2.79Z"/><path class="cls-30" d="m145.02,60.74c2.01-.97,3.3-1.49,4.83-.45s-9.03,2.47-4.83.45Z"/><path class="cls-15" d="m164.83,117.59c20.34,2.81,31.04.13,35.35-2.43,4.31-2.56-15.75.49-35.73.29-9.27-.09-29.4-1.98.38,2.14Z"/><path class="cls-18" d="m219.35,46.92c-4.41,4.35-5.84,6.3-5.6,10.84.15,2.89,3.1-7.19,6.98-11.2,3.55-3.66,4.14-5.08-1.38.36Z"/><path class="cls-18" d="m213.05,66.08c-.71-4.66-1.35-6.36-5-7.88-2.32-.97,3.69,4.81,4.45,8.97.7,3.8,1.44,4.74.55-1.08Z"/><path class="cls-15" d="m85.89,54.84c-5.01,6.07-9.59,13-4.09,13.65,3.47.41,4.24-9.26,9.27-17.72,3.31-5.58,3.91-6.95-5.18,4.07Z"/><path class="cls-18" d="m112.87,110.15c-10.99,2.09-17.69,5.62-21.17,8.24-3.47,2.63,24.16-8.57,40.58-10.67,8.64-1.11,4.77-2.18-19.41,2.43Z"/><path class="cls-24" d="m206.51,92.64c10.31,6.73,28.74-.22,26.71,2.19-2.03,2.41-8.45,10.35-14.63,6.94-6.18-3.41-12.08-9.13-12.08-9.13Z"/><path class="cls-19" d="m142.23,79.2c-.14,6.7,23.28,20.61,24.62,19.13l-6.98,2.36s2.36-1.85-9.87-10.74c-10.73-7.81-19.28-4.04-19.28-4.04l11.5-6.7Z"/><path class="cls-20" d="m101.17,62.25c-7.04-8.74,35.35-19.04,39.67-18.93,4.32.1,8.75,2.55,8.75,2.55,0,0-7.27-4.02-12.95-6.81,0,0,6.17,3.95-3.03,5.24-13.71,1.92-21.79,5.67-27.06,9.05-5.26,3.37-10.57-1.71-10.57-1.71,0,0,1.77,5.33,3.16,8.08,1.4,2.76,2.03,2.53,2.03,2.53Z"/><path class="cls-14" d="m216.75,100.69c5.18,3.33,9.93,1.02,12.02-1.63,1.72-2.18-4.73.58-10.89-.42-2.07-.34-5.14-2.04-7.6-3.8-2.96-2.12-.55,1.34,6.47,5.85Z"/><path class="cls-16" d="m227.74,58.28c-3.63-6.49,13.44-21.44,28.37-17.09,0,0-3.39-1.7-6.67-2.81,0,0,4.83,2.01-2.46,1.9s-15.05,3.89-17.67,10.25c-2.62,6.36-3.84.68-3.84.68,0,0,.3,2.02,1.22,4.41.92,2.39,1.04,2.66,1.04,2.66Z"/></g></g></g></svg>