<?xml version="1.0" encoding="utf-8"?>
<!-- Generator: Adobe Illustrator 27.2.0, SVG Export Plug-In . SVG Version: 6.00 Build 0)  -->
<svg version="1.1" id="katman_1" xmlns="http://www.w3.org/2000/svg" xmlns:xlink="http://www.w3.org/1999/xlink" x="0px" y="0px"
	 viewBox="0 0 65 65" style="enable-background:new 0 0 65 65;" xml:space="preserve">
<style type="text/css">
	.st0{fill-rule:evenodd;clip-rule:evenodd;fill:#8900FE;}
</style>
<g>
	<path class="st0" d="M32.3,0.28L32.3,0.28c11.85,0,21.55,9.44,21.55,20.98l0,0c0,5.41-2.13,10.36-5.62,14.1
		c-2.45-3.02-4.96-4.87-7.52-5.55c2.67,1.27,4.94,3.37,6.8,6.28v0c2.05,3.46,2.37,8.11,0.95,13.94c-1.44-3.93-3.74-6.94-6.89-9.03
		c1.61,6.8,2.36,16.17-3.39,21.39c2.79,0.31,4.94,1.08,6.08,2.31c-3.3-0.01-6.87-0.01-10.73,0c12.69-4.8,7.33-21.69,3.86-30.58
		c-1.27-3.24-1.89-6.21-0.67-9.57c0.64-1.75,1.96-3.23,5.05-3.73c0.85-0.14,1.76-0.12,2.72-0.14c1.8-0.04,2.69-0.24,2.67-0.61
		c-0.07-0.4-1.09-0.66-3.06-0.76c-1.24-0.08-3.88-0.21-4.43-1.57c-1.19-2.62-3.27-3.76-6.25-3.42c-12.1,2.39-11.16,16.81-4.02,25.42
		c3.71,4.18,4.66,8.85,2.86,14c-2.81-5.85-7.31-8.85-13.5-9.02c0,0.06-0.01,0.13-0.01,0.19c0,6.62,4.48,11.32-1.29,17.05
		c-1.47,1.22-3.7,2.13-6.7,2.72V42.24V21.26C10.75,9.72,20.44,0.28,32.3,0.28L32.3,0.28z M35.22,16.58c0.5,0,0.91,0.4,0.91,0.89
		c0,0.49-0.41,0.89-0.91,0.89c-0.5,0-0.91-0.4-0.91-0.89C34.31,16.98,34.72,16.58,35.22,16.58L35.22,16.58z"/>
</g>
</svg>
