<?xml version="1.0" encoding="utf-8"?>
<!-- Generator: Adobe Illustrator 27.3.1, SVG Export Plug-In . SVG Version: 6.00 Build 0)  -->
<svg version="1.1" id="Layer_1" xmlns="http://www.w3.org/2000/svg" xmlns:xlink="http://www.w3.org/1999/xlink" x="0px" y="0px"
	 viewBox="0 0 79 79" style="enable-background:new 0 0 79 79;" xml:space="preserve">
<style type="text/css">
	.st0{fill-rule:evenodd;clip-rule:evenodd;fill:#FFFFFF;}
</style>
<g>
	<path class="st0" d="M39.5,2.3L39.5,2.3c13.8,0,25.2,11,25.2,24.5l0,0c0,6.3-2.5,12.1-6.6,16.5c-2.9-3.5-5.8-5.7-8.8-6.5
		c3.1,1.5,5.8,3.9,7.9,7.3l0,0c2.4,4,2.8,9.5,1.1,16.3c-1.7-4.6-4.4-8.1-8-10.5c1.9,7.9,2.8,18.9-4,25c3.3,0.4,5.8,1.3,7.1,2.7
		c-3.8,0-8,0-12.5,0c14.8-5.6,8.6-25.3,4.5-35.7c-1.5-3.8-2.2-7.3-0.8-11.2c0.7-2,2.3-3.8,5.9-4.4c1-0.2,2.1-0.1,3.2-0.2
		c2.1,0,3.1-0.3,3.1-0.7c-0.1-0.5-1.3-0.8-3.6-0.9c-1.5-0.1-4.5-0.2-5.2-1.8c-1.4-3.1-3.8-4.4-7.3-4c-14.1,2.8-13,19.6-4.7,29.7
		c4.3,4.9,5.4,10.3,3.3,16.3c-3.3-6.8-8.5-10.3-15.8-10.5l0,0c-0.1,7.8,5.3,13.4-1.5,20.1c-1.7,1.4-4.3,2.5-7.8,3.2V51.3V26.8
		C14.3,13.4,25.7,2.3,39.5,2.3L39.5,2.3z M42.9,21.4c0.6,0,1.1,0.5,1.1,1c0,0.6-0.5,1-1.1,1s-1.1-0.5-1.1-1
		C41.8,21.8,42.3,21.4,42.9,21.4L42.9,21.4z"/>
</g>
</svg>
