<?xml version="1.0" encoding="utf-8"?>
<!-- Generator: Adobe Illustrator 27.2.0, SVG Export Plug-In . SVG Version: 6.00 Build 0)  -->
<svg version="1.1" id="katman_1" xmlns="http://www.w3.org/2000/svg" xmlns:xlink="http://www.w3.org/1999/xlink" x="0px" y="0px"
	 viewBox="0 0 261 66" style="enable-background:new 0 0 261 66;" xml:space="preserve">
<style type="text/css">
	.st0{fill:#8900FE;}
	.st1{fill:#FFFFFF;}
</style>
<g id="_x39_nEqj4_00000147184934841852209240000008450992408147086983_">
	<g>
		<path class="st0" d="M28.94,61.81c3.29-3.99,3.55-8.75,2.67-13.41c-0.92-4.92-2.6-9.7-4.1-14.49c-0.74-2.4-1.22-4.75-0.82-7.26
			c0.52-3.25,2.68-5.17,5.98-5.33c1.55-0.07,3.1-0.2,4.64-0.31c0.02-0.22,0.05-0.43,0.07-0.65c-0.53-0.2-1.04-0.48-1.58-0.57
			c-1.07-0.17-2.23-0.06-3.23-0.4c-1-0.35-2.15-0.91-2.71-1.73c-1.74-2.56-3.92-3.56-6.91-2.77c-5.75,1.52-8.9,5.98-8.6,12.01
			c0.26,5.12,2.12,9.58,5.37,13.47c3.24,3.88,4.54,8.15,2.82,13.41c-3.01-5.3-7.14-8.6-13.72-8.57c0.22,1.6,0.38,3.05,0.62,4.48
			c0.36,2.08,0.99,4.14,1.14,6.24c0.24,3.37-2.22,6.68-5.7,8c-1.11,0.42-2.26,0.73-3.72,1.2c0-0.87,0-1.46,0-2.06
			c0-13.96-0.01-27.92,0.01-41.87C1.22,10.96,10.07,1.82,20.32,0.95c11.6-0.99,20.42,6.43,22.88,14.89
			c2.14,7.37,0.41,13.86-4.43,19.66c-1.97-1.65-3.8-3.19-5.64-4.73c-0.18,0.14-0.35,0.28-0.53,0.42c6.58,4.65,8.09,10.96,6.17,18.72
			c-1.62-3.36-3.47-6.25-6.71-8.38c0.28,2.63,0.63,4.97,0.77,7.32c0.25,4.18-0.11,8.27-2.58,11.86c-0.31,0.45-0.88,0.72-1.33,1.07
			L28.94,61.81z"/>
		<path class="st1" d="M143.69,40.26c0,2.78,0.13,5.54-0.02,8.28c-0.39,6.96-3.56,12.33-9.53,15.99c-0.33,0.2-0.7,0.33-1.28,0.59
			c0-1.36,0-2.54,0-3.72c0-12.81,0.35-25.63-0.09-38.42c-0.49-14.21,10.75-22.65,23.19-21.77c10.13,0.71,18.92,9.22,19.5,18.72
			c0.76,12.39-8,20.88-17.9,22.17c-4.23,0.55-8.48,0.2-12.47-1.61c-0.31-0.14-0.64-0.23-0.96-0.34
			C144.08,40.13,144.01,40.17,143.69,40.26z M154.19,32.03c5.93,0,10.38-4.41,10.37-10.26c-0.02-6.19-4.46-10.41-10.95-10.41
			c-5.65,0-9.89,4.52-9.91,10.53C143.7,27.67,148.21,32.03,154.19,32.03z"/>
		<path class="st1" d="M219.87,30.09c-9.89,0-19.66,0-29.67,0c1.6,3.38,4.2,5.18,7.5,5.65c3.98,0.57,7.65-0.24,10.27-3.75
			c0.3-0.4,1.23-0.62,1.76-0.5c3,0.71,5.98,1.55,8.96,2.35c-3.25,8.57-13.46,13.81-24.01,11.68c-11.33-2.29-18.38-13.3-15.96-24.79
			c2.32-11.01,14.43-18.26,26.13-15.45C215.43,7.82,222.25,17.07,219.87,30.09z M208.7,20.21c-1.73-3.86-6.46-5.97-11.23-5.21
			c-3.34,0.53-6.5,2.92-6.77,5.21C196.64,20.21,202.58,20.21,208.7,20.21z"/>
		<path class="st1" d="M88.75,30.07c-9.88,0-19.67,0-29.77,0c1.15,2.53,2.93,4.05,5.18,4.99c4.53,1.9,9.24,0.68,12.58-3.04
			c0.34-0.38,1.12-0.71,1.59-0.6c3.1,0.74,6.18,1.61,9.28,2.44c-4.09,9.45-14.74,14.05-25.23,11.39
			c-10.71-2.72-17.26-13.6-14.87-24.29C49.67,11.31,59.16,3.23,71.59,4.9C81.8,6.27,91.15,14.54,88.75,30.07z M59.44,20.14
			c6.01,0,12,0,18.07,0c-1.53-3.6-5.51-5.48-10.63-5.17C63.52,15.17,60.25,17.42,59.44,20.14z"/>
		<path class="st1" d="M128.52,45.24c-3.65,0-7.12,0-10.83,0c0-0.67,0-1.28,0-1.89c0-6.6,0.05-13.21-0.04-19.81
			c-0.02-1.57-0.31-3.21-0.84-4.69c-0.98-2.73-3.17-3.94-6.01-4.05c-2.71-0.1-5.07,1.21-6.01,3.73c-0.61,1.63-0.98,3.44-1.02,5.17
			c-0.12,6.49-0.05,12.98-0.05,19.46c0,0.63,0,1.25,0,2.03c-3.62,0-7.13,0-10.76,0c-0.03-0.59-0.09-1.15-0.09-1.71
			c-0.01-12.34,0-24.69-0.04-37.03c0-1.11,0.28-1.61,1.42-1.86c3.07-0.65,6.11-1.44,9.33-2.22c0.09,1.11,0.17,2.1,0.24,2.99
			c2.57-0.24,5.05-0.72,7.52-0.66c7.12,0.19,12.58,3.3,15.58,9.92c0.88,1.94,1.46,4.17,1.51,6.29
			C128.62,28.94,128.52,36.98,128.52,45.24z"/>
		<path class="st1" d="M224.64,4.9c3.55-0.85,7-1.67,10.66-2.55c0.07,1.07,0.13,2.06,0.2,3.12c1.93-0.28,3.76-0.67,5.61-0.79
			c8.17-0.56,15.22,3.65,17.82,10.71c0.68,1.86,1.18,3.89,1.21,5.85c0.14,7.69,0.07,15.39,0.07,23.08c0,0.27-0.06,0.55-0.11,0.91
			c-3.56,0-7.03,0-10.74,0c0-0.68,0-1.29,0-1.9c0-6.6,0.04-13.21-0.03-19.81c-0.01-1.41-0.26-2.87-0.68-4.21
			c-0.93-2.95-3.32-4.57-6.37-4.55c-3.01,0.02-5.37,1.7-6.23,4.71c-0.41,1.41-0.6,2.93-0.62,4.4c-0.06,6.43-0.03,12.86-0.03,19.29
			c0,0.63,0,1.25,0,2.02c-3.63,0-7.14,0-10.76,0C224.64,31.79,224.64,18.43,224.64,4.9z"/>
		<path class="st0" d="M28.91,61.77c0,0.37,0,0.75,0,1.05c1.45,0.48,2.85,0.92,4.25,1.41c0.23,0.08,0.4,0.33,0.79,0.67
			c-3.05,0-5.83,0-8.63,0c1.21-1.02,2.42-2.05,3.63-3.09C28.94,61.81,28.91,61.77,28.91,61.77z"/>
	</g>
</g>
</svg>
